<?xml version="1.0" encoding="utf-8"?>
<!DOCTYPE svg PUBLIC "-//W3C//DTD SVG 1.0//EN" "http://www.w3.org/TR/2001/REC-SVG-20010904/DTD/svg10.dtd">
<svg version="1.0" xmlns="http://www.w3.org/2000/svg" width="913px" height="878px" viewBox="0 0 913 878" preserveAspectRatio="xMidYMid meet">
 <g fill="#1a1a1a">
  <path d="M64.5 614.1 c-0.3 -0.5 0.3 -1.2 1.2 -1.4 1 -0.3 -1.7 -0.5 -5.9 -0.6 -5.7 -0.1 -7.8 -0.5 -7.8 -1.4 0 -2.5 2.4 -3.7 7.3 -3.7 4 0 4.8 -0.3 4.3 -1.5 -0.5 -1.3 5.3 -1.5 48.3 -1.5 54.4 0 50.1 -0.6 50.1 7.1 l0 3.9 -48.4 0 c-28.6 0 -48.7 -0.4 -49.1 -0.9z"/>
  <path d="M135.6 500 c-10 -13.5 -13 -24.2 -12.4 -43.5 0.4 -11.2 0.8 -14.1 3.2 -20.5 1.6 -4.1 2.8 -8.6 2.7 -10 -1 -12 -0.6 -14.9 2.2 -17.7 2.5 -2.5 3.4 -2.8 10.5 -2.9 6.5 0 8.4 -0.5 12.2 -2.7 2.5 -1.5 8.1 -3.9 12.5 -5.3 6.8 -2.2 9.9 -2.6 20.5 -2.7 18 -0.1 29.7 3.5 42.1 13 4.2 3.2 4.9 4.2 4.9 7.3 0 3.3 -2.5 6 -43.8 47.3 -50.5 50.5 -47 48.1 -54.6 37.7z"/>
  <path d="M398.4 250.6 c-2.9 -2.9 -3.4 -4.1 -3.4 -7.9 0 -4.7 1.1 -5.7 6.7 -5.7 1.2 0 2.7 -0.9 3.2 -1.9 2 -3.6 12.6 -5.6 15 -2.7 1.8 2.1 2.4 10 1.1 14 -1.8 5.6 -5.1 7.6 -12.7 7.6 -6.1 0 -6.7 -0.2 -9.9 -3.4z"/>
  <path d="M484 238.5 c0 -6.7 4.7 -10.5 12.9 -10.5 6.5 0 8.1 0.9 8.1 4.5 0 3.8 -2.8 5.5 -9 5.5 -3.3 0 -4 0.3 -4 2 0 1.7 -0.7 2 -4 2 -3.9 0 -4 -0.1 -4 -3.5z"/>
 </g>
 <g fill="#221e1f">
  <path d="M128 415.5 c0 -3 0.3 -3.5 2.4 -3.5 2.3 0 2.4 0.2 1.3 3.5 -0.6 1.9 -1.6 3.5 -2.4 3.5 -0.8 0 -1.3 -1.3 -1.3 -3.5z"/>
  <path d="M412.8 359.3 c-1.3 -0.3 -1.8 -1.5 -1.8 -3.9 0 -3 0.3 -3.4 2.8 -3.4 5.7 0 7.2 1 7.2 4.6 0 3.2 -0.2 3.4 -3.2 3.3 -1.8 -0.1 -4.1 -0.3 -5 -0.6z"/>
  <path d="M364.5 264.6 c-0.5 -0.2 -2.2 -0.7 -3.7 -1 -1.6 -0.4 -3.3 -1.8 -4.2 -3.4 -3.1 -6 -4.9 -34 -2.4 -38.5 0.6 -1.2 1.8 -2.7 2.7 -3.4 2.2 -1.7 76.8 -1.8 80.4 -0.2 2.7 1.2 4.2 3.9 5.2 9.2 l0.7 3.5 6.1 -0.5 c3.4 -0.3 7.9 -0.1 10 0.5 l3.7 1 0 -3.4 c0 -4.2 2.3 -8.9 4.9 -10.4 1.3 -0.6 16 -1 40.6 -1 l38.6 0 2.4 2.4 c1.3 1.3 2.7 4.1 3.1 6.1 0.9 4.8 -1.3 28.8 -3 32.9 -2.6 6.2 -1.1 6 -43.4 5.7 -45.8 -0.3 -42.5 0.7 -43.1 -12.2 l-0.3 -8.1 -4.6 -2 c-4.7 -2.1 -11 -2.1 -13.6 0.1 -0.8 0.7 -1.6 4.4 -1.9 9.2 -0.4 4.7 -1.3 9.2 -2.2 10.5 l-1.5 2.4 -27.9 0 c-15.3 0 -31.8 0.2 -36.7 0.5 -4.9 0.3 -9.3 0.3 -9.9 0.1z m66.3 -12.3 c1.9 -2.6 1.6 -21.7 -0.4 -23.7 -1.3 -1.4 -5.6 -1.6 -31.4 -1.6 -17 0 -31 0.4 -32.4 1 -2.2 0.8 -2.6 1.5 -2.6 5.2 0 6.4 1.9 18 3.1 19.4 1.5 1.8 4.1 1.9 34.9 1.6 24.3 -0.2 27.6 -0.5 28.8 -1.9z m107.9 0 c1.1 -1.5 2.3 -9.5 2.6 -18.2 0.2 -7.2 0.6 -7.1 -34.3 -7.1 -22.5 0 -30.9 0.3 -31.8 1.2 -1.8 1.8 -1.6 23.2 0.1 24.7 0.9 0.7 10.3 1.2 27.8 1.3 30.2 0.3 33.9 0.1 35.6 -1.9z"/>
 </g>
 <g fill="#42210b">
  <path d="M602.4 602.8 c0.4 -10.6 0.9 -26.6 1.2 -35.5 l0.6 -16.3 3.2 0 3.3 0 13.6 27.8 c10.9 22.2 13.7 28.7 13.7 32 0 3.5 -0.4 4.2 -2.2 4.7 -15.7 3.6 -29.5 6.5 -31.5 6.5 l-2.5 0 0.6 -19.2z"/>
  <path d="M566 497.6 c0 -8.5 0.3 -16.1 0.6 -17 0.4 -1 1.8 -1.6 3.8 -1.6 3 0 3.3 0.5 10.4 14.4 3.9 7.9 7.2 15.6 7.2 17 l0 2.6 -11 0 -11 0 0 -15.4z"/>
  <path d="M631.1 483.3 c-7.8 -15.9 -26.3 -49.6 -31.6 -57.9 -3 -4.6 -6.7 -9 -8.6 -10.2 -11.4 -7 -51.1 -14.9 -88.2 -17.4 l-17.7 -1.2 0.2 -21 0.3 -20.9 3.5 -1.3 c4.7 -1.7 105.3 -1.9 113.2 -0.3 15.2 3.1 27.8 13.1 35.1 27.7 l4.2 8.5 0.3 51.4 0.3 51.3 -3.3 0 c-3.2 0 -3.5 -0.4 -7.7 -8.7z"/>
  <path d="M335.7 488.3 c-0.9 -0.8 -0.9 -5.6 -0.1 -7.7 0.4 -1 1.8 -1.6 4 -1.6 l3.4 0 0 5 0 5 -3.3 0 c-1.9 0 -3.7 -0.3 -4 -0.7z"/>
  <path d="M278.2 450.5 l-8.2 -5.5 0 -23.3 c0 -16.3 0.5 -25.2 1.5 -30 4 -18.8 18.7 -33.7 37.7 -38.2 9.7 -2.3 104.4 -2.2 111.1 0.1 l4.7 1.6 0 20.9 0 20.9 -5.8 0 c-3.3 0 -13 0.7 -21.8 1.5 -38.3 3.7 -72.3 11.3 -80.4 18.2 -3.3 2.7 -10.9 14.6 -18.9 29.6 -5 9.1 -5.5 9.7 -8.4 9.7 -2.2 0 -5.8 -1.7 -11.5 -5.5z"/>
 </g>
 <g fill="#333333">
  <path d="M158.6 609.5 c-0.4 -1.4 -1.3 -2.5 -2.1 -2.5 -0.8 0 -1.5 -0.4 -1.5 -1 0 -0.5 1.6 -1 3.5 -1 3.3 0 3.5 0.2 3.5 3.5 0 4.1 -2.4 4.9 -3.4 1z"/>
  <path d="M74 605 c0 -1.8 0.7 -2 7 -2 6.3 0 7 0.2 7 2 0 1.8 -0.7 2 -7 2 -6.3 0 -7 -0.2 -7 -2z"/>
  <path d="M119 605 c0 -1.8 0.7 -2 8.5 -2 7.8 0 8.5 0.2 8.5 2 0 1.8 -0.7 2 -8.5 2 -7.8 0 -8.5 -0.2 -8.5 -2z"/>
  <path d="M136 500 c0 -1.1 -0.7 -2 -1.5 -2 -0.8 0 -1.5 -0.5 -1.5 -1.1 0 -0.6 -0.7 -1.7 -1.5 -2.5 -0.8 -0.9 -1.5 -2.9 -1.5 -4.5 0 -1.9 -0.5 -2.9 -1.5 -2.9 -1 0 -1.5 -1.1 -1.5 -3.5 0 -4.7 1.7 -4.4 3.9 0.8 1 2.3 3.9 7.2 6.5 11 l4.6 6.7 -3 0 c-2.3 0 -3 -0.4 -3 -2z"/>
  <path d="M123.6 474.3 c-0.9 -6 -0.7 -8.3 0.8 -8.3 0.9 0 1.8 1.9 2.5 5 1.4 6.7 1.4 7 -0.8 7 -1.4 0 -2 -1 -2.5 -3.7z"/>
  <path d="M123 450.8 c0 -5.9 1.3 -9.8 3.1 -9.8 2.2 0 2.2 0.3 0.8 7 -1.1 5.1 -3.9 7.2 -3.9 2.8z"/>
  <path d="M127 435.6 c0 -3.2 0.3 -3.6 2.5 -3.6 2.4 0 2.5 0.1 1.2 3.2 -1.9 4.6 -3.7 4.8 -3.7 0.4z"/>
  <path d="M131 429.3 c0 -1 -0.7 -2.7 -1.5 -3.7 -2 -2.7 -2 -8.6 0 -8.6 0.8 0 1.5 0.6 1.5 1.4 0 0.8 1.1 2.7 2.4 4.3 2.3 2.7 2.3 2.9 0.8 5.5 -1.9 3.2 -3.2 3.6 -3.2 1.1z"/>
  <path d="M228.5 412.7 c-4.2 -4 -13.1 -9.2 -19.2 -11.3 -6.1 -2.2 -7 -4.4 -1.8 -4.4 1.9 0 3.5 0.5 3.5 1 0 0.6 1.1 1 2.5 1 1.6 0 2.5 0.6 2.5 1.5 0 1 1 1.5 2.9 1.5 1.6 0 3.6 0.7 4.5 1.5 0.8 0.8 1.9 1.5 2.5 1.5 0.6 0 1.1 0.7 1.1 1.5 0 0.8 0.9 1.5 2 1.5 2.3 0 3.3 1.8 2.8 5.2 l-0.3 2.3 -3 -2.8z"/>
  <path d="M130.2 411.3 c0.2 -3.1 0.7 -3.9 2.6 -4.1 1.2 -0.2 2.2 -0.8 2.2 -1.3 0 -0.5 2.3 -0.9 5 -0.9 3.6 0 5 0.4 5 1.4 0 0.9 0.8 1.2 2.5 0.8 1.4 -0.2 2.5 -1.1 2.5 -1.8 0 -0.9 1.2 -1.4 3.5 -1.4 1.9 0 3.5 0.3 3.5 0.8 0 0.4 -2.2 2.1 -4.7 3.9 -4.3 2.9 -4.9 3.1 -6.5 1.7 -0.9 -0.9 -3.4 -1.6 -5.5 -1.6 -2.9 0 -4.3 0.7 -6.5 3.1 -1.5 1.7 -3 3.1 -3.3 3.1 -0.4 0 -0.5 -1.7 -0.3 -3.7z"/>
  <path d="M162 400.5 c0 -1.9 0.9 -2.5 5.9 -3.9 7.6 -2.1 20 -3.1 28.4 -2.2 5.8 0.7 6.7 1 6.7 2.8 0 1.8 -0.4 1.9 -4.2 1.2 -8.5 -1.5 -21 -0.6 -29.1 1.9 l-7.7 2.5 0 -2.3z"/>
  <path d="M444 365.4 c-1.9 -0.2 -7.7 -1.1 -12.7 -2 -7.7 -1.3 -9.3 -1.9 -9.3 -3.4 0 -2.4 -6.7 -5 -13.2 -5 -6.9 0 -16.1 -5.2 -25.1 -14.1 -13.1 -13.1 -18.6 -32.1 -18.7 -64.7 l0 -11.2 -3 -0.6 c-2.6 -0.6 -3 -1.1 -3 -4 0 -3.4 0 -3.4 2 -1.4 2.4 2.4 -0.9 2.2 41.3 2 33.5 -0.2 33.7 -0.1 33.7 1.9 0 2.1 -0.3 2.1 -29.5 2.1 -23.6 0 -29.5 0.3 -29.5 1.3 0 0.7 1.2 3.6 2.6 6.5 8.5 17.2 36.3 27.2 75.4 27.2 39.5 0 67.5 -10.4 75.8 -28.2 1.2 -2.6 2.2 -5.2 2.2 -5.8 0 -0.6 -10.9 -1 -31.5 -1 -20.3 0 -31.5 -0.4 -31.5 -1 0 -0.5 -1.1 -1 -2.5 -1 -1.8 0 -2.5 -0.5 -2.5 -2 0 -1.1 -0.4 -2 -1 -2 -0.5 0 -1 -1.6 -1 -3.5 0 -4.4 2.6 -4.8 3.5 -0.6 1.3 6.1 0.6 6 39.9 6.2 32.8 0.1 35.9 -0.1 37.7 -1.7 1.9 -1.7 3.3 -5.7 4.4 -12.6 0.4 -2.6 1.1 -3.8 2.2 -3.8 1.3 0 1.5 0.9 0.9 6.3 -1.1 9.9 -1.5 10.7 -4.6 10.7 l-2.8 0 -0.5 22.3 c-0.5 24.9 -2 33.1 -7.9 45.4 -6.5 13.2 -24.1 27.3 -34.2 27.3 -6.9 0 -12.6 1.9 -13.6 4.6 -0.7 1.8 -2.3 2.4 -9.7 3.8 -8.9 1.7 -27.8 2.8 -34.3 2z m19.5 -36.5 c3.3 -0.6 7.6 -1.9 9.7 -3 3.6 -1.8 7.2 -5.8 6.2 -6.8 -0.9 -0.9 -48.5 -0.7 -49.1 0.2 -1.1 1.7 5.2 6.8 10.2 8.2 9.5 2.7 14.6 3 23 1.4z"/>
  <path d="M368.3 257.3 c-3.8 -0.5 -4.9 -1.7 -5.8 -6.5 -0.7 -3.4 -0.5 -3.8 1.4 -3.8 1.4 0 2.1 0.6 2.1 1.9 0 3.7 2.7 5.1 9.6 5.1 4.8 0 6.4 0.3 6.4 1.4 0 2.3 -4.9 3 -13.7 1.9z"/>
  <path d="M524.8 257.3 c-1 -0.2 -1.8 -1.1 -1.8 -1.9 0 -1.1 1.6 -1.4 6.8 -1.4 3.7 0 7.3 -0.4 8.1 -0.9 0.7 -0.5 1.6 -2.9 1.8 -5.5 0.5 -3.7 0.9 -4.6 2.5 -4.6 1.8 0 1.9 0.5 1.3 5.3 -0.4 2.8 -1.1 5.9 -1.6 6.8 -1.1 2.2 -12 3.6 -17.1 2.2z"/>
  <path d="M429 255 c0 -1.1 0.5 -2 1 -2 0.6 0 1 -0.7 1 -1.5 0 -0.8 0.9 -1.5 2 -1.5 2.2 0 2.6 2 1 5.1 -1.4 2.6 -5 2.5 -5 -0.1z"/>
  <path d="M472.2 255.8 c-1.9 -1.9 -1.5 -4.8 0.8 -4.8 1.6 0 2 0.7 2 3 0 3.2 -0.9 3.7 -2.8 1.8z"/>
  <path d="M439 253.8 c0 -3 1.3 -5.8 2.6 -5.8 0.9 0 1.4 1.2 1.4 3.5 0 2.8 -0.4 3.5 -2 3.5 -1.1 0 -2 -0.6 -2 -1.2z"/>
  <path d="M399.2 252.4 c-1.9 -1.3 -2.2 -2.4 -2.2 -8.5 0 -6.5 0.1 -6.9 2.3 -6.9 3 0 7.7 -2.2 7.7 -3.6 0 -1.5 3.3 -2.4 8.8 -2.4 3.8 0 4.2 0.2 4.2 2.5 0 1.4 0.5 2.5 1 2.5 1.1 0 1.3 7.1 0.4 10.8 -0.5 1.6 -1.4 2.2 -3.4 2.2 l-2.8 0 1.9 -3.7 c1.9 -3.7 1.7 -7.7 -0.5 -10.1 -1.6 -1.6 -7.2 0.2 -8.7 2.9 -0.5 1 -2 1.9 -3.2 1.9 -3.9 0 -6.7 1.2 -6.7 2.7 0 2 6.4 8.3 8.4 8.3 0.9 0 1.6 0.7 1.6 1.5 0 2 -5.9 2 -8.8 -0.1z"/>
  <path d="M353.6 247.8 c-0.9 -7.9 -0.8 -9.8 0.8 -9.8 1.5 0 2 1.7 3.1 10.3 0.6 4.2 0.4 4.7 -1.3 4.7 -1.6 0 -2 -1 -2.6 -5.2z"/>
  <path d="M361.6 243.8 c-1.1 -4.2 -0.7 -5.8 1.4 -5.8 1.7 0 2 0.7 2 4 0 4.5 -2.3 5.7 -3.4 1.8z"/>
  <path d="M404 242.5 c0 -0.9 0.5 -1.5 1.1 -1.3 0.6 0.2 1.1 0.8 1.1 1.3 0 0.5 -0.5 1.1 -1.1 1.3 -0.6 0.2 -1.1 -0.4 -1.1 -1.3z"/>
  <path d="M461 242.6 c0 -0.8 -0.3 -2.2 -0.6 -3.1 -0.6 -1.6 -0.5 -1.6 2.5 -0.1 3.8 2 4.1 4.6 0.6 4.6 -1.5 0 -2.5 -0.6 -2.5 -1.4z"/>
  <path d="M484 240.6 c0 -4.9 1.2 -8.6 2.9 -8.6 0.9 0 2.3 -0.9 3.1 -2 1.1 -1.6 2.6 -2 7.1 -2 6.2 0 6.9 0.7 6.9 6.1 0 2.7 -0.3 2.9 -3.5 2.9 -4.2 0 -4.5 -1.4 -0.8 -3.3 l2.7 -1.5 -3.1 -0.6 c-2.9 -0.7 -10.3 1.4 -10.3 2.9 0 0.3 0.8 0.2 1.7 -0.4 1.1 -0.6 2.4 -0.6 3.5 0 2.4 1.3 2.3 2.9 -0.2 2.9 -1.5 0 -2.2 0.9 -2.6 3 -0.6 2.6 -1.1 3 -4 3 -2.9 0 -3.4 -0.3 -3.4 -2.4z"/>
  <path d="M440 241.1 c0 -1.4 2.5 -3.1 5.8 -3.7 2.7 -0.6 3.2 -0.4 3.2 1.4 0 1.2 -0.9 2.2 -2.2 2.6 -3.4 0.9 -6.8 0.7 -6.8 -0.3z"/>
  <path d="M549.5 235.5 c1.1 -9.5 -2.3 -15.5 -8.9 -15.5 l-2.9 0 0.6 -10.6 c0.6 -9.9 0.6 -10.6 -1.1 -9.9 -0.9 0.5 -10.4 1 -20.9 1.3 l-19.3 0.4 0 -2.3 c0 -1.3 -1.7 -4.4 -3.9 -6.9 -3.8 -4.5 -3.9 -4.5 -7.2 -3.2 -14.9 5.8 -41.3 13.2 -47.3 13.2 -3.5 0 -3.6 -0.1 -3.6 -3.6 0 -2.9 -0.3 -3.5 -1.6 -3 -3.4 1.3 -19.1 3.6 -28.6 4.3 l-9.8 0.6 0 -3.5 c0 -2.2 0.7 -4.1 2 -5.3 1.1 -1 2 -2.3 2 -2.8 0 -1.6 -11.8 -0.1 -20 2.5 l-7.5 2.4 0.3 13.2 0.4 13.2 -5.4 0 c-7.7 0.1 -10.8 3.2 -10.8 10.9 0 3.5 -0.3 4.1 -2 4.1 -1.1 0 -2.3 -0.6 -2.5 -1.2 -0.9 -2.6 -3.5 -22.8 -4.6 -35.2 l-1.1 -12.8 -8.7 -8.7 c-13.6 -13.5 -29.1 -35.9 -29.1 -42.1 0 -2.6 0.4 -3 2.8 -3 1.5 0 5.9 0.7 9.7 1.5 8.2 1.7 23.5 1.9 35.5 0.5 14.2 -1.7 13.7 -1 6.1 -8.7 -8 -8.1 -13.1 -16.5 -13.1 -21.7 0 -4.4 1 -4.5 12.7 -1.6 12.8 3.2 30.5 4.3 47.3 3 13.4 -1 19 -1.8 19 -2.5 0 -0.2 -1.1 -2.3 -2.5 -4.6 -1.4 -2.4 -2.5 -5.9 -2.5 -7.6 0 -3.1 0.2 -3.3 3.4 -3.3 1.8 0 4.4 0.8 5.7 1.9 8.4 6.5 23.6 11.2 47.8 14.6 9.7 1.4 21.4 3.7 26.1 5.1 15 4.6 31.6 13.8 44.3 24.7 10.5 9 12.7 15.5 12.7 37.9 0 16.2 -1.7 29.2 -6.5 50.3 -1.9 8.3 -3.5 16 -3.5 17.3 0 1.6 -0.6 2.2 -2.1 2.2 -2 0 -2.1 -0.3 -1.4 -5.5z"/>
  <path d="M541 234 c0 -5.3 -0.2 -6 -2 -6 -1.3 0 -2 -0.7 -2 -2 0 -2.2 2 -2.6 5 -1 3.5 1.9 3.9 15 0.5 15 -1.2 0 -1.5 -1.4 -1.5 -6z"/>
  <path d="M462.5 236.1 c-0.3 -0.5 -2.9 -1.5 -5.8 -2.1 -4.3 -1 -6.3 -0.9 -10.9 0.2 l-5.6 1.4 -0.6 -4.2 c-0.8 -6.3 -2.6 -9.3 -6.3 -10.6 -4.4 -1.6 -4.3 -3.8 0.2 -3.8 4.4 0 8.3 3.8 9.1 8.9 l0.6 3.9 9.6 0.4 c6.5 0.2 9.7 0.7 10 1.6 0.2 0.6 1 1.2 1.8 1.2 0.8 0 1.4 0.9 1.4 2 0 2 -2.4 2.8 -3.5 1.1z"/>
  <path d="M430.6 229.4 c-0.9 -2.4 -0.7 -5.4 0.3 -5.4 1.6 0 4.1 3.1 4.1 5.1 0 2.3 -3.5 2.6 -4.4 0.3z"/>
  <path d="M361 228 c0 -1.3 1 -2.4 2.6 -3 3.8 -1.5 5.4 -1.2 5.4 1 0 1.3 -0.7 2 -2 2 -1.1 0 -2 0.5 -2 1 0 0.6 -0.9 1 -2 1 -1.3 0 -2 -0.7 -2 -2z"/>
  <path d="M463 227.1 c0 -4.2 1 -6.1 3.1 -6.1 1.2 0 1.9 -0.7 1.9 -2 0 -1.6 0.7 -2 3.5 -2 4.4 0 4.6 2.1 0.5 3.7 -2.2 0.8 -3.6 2.4 -4.8 5.2 -2 4.8 -4.2 5.4 -4.2 1.2z"/>
  <path d="M471 227.2 c0 -1.4 2.3 -3.2 4.2 -3.2 1.1 0 1.8 0.7 1.8 2 0 1.6 -0.7 2 -3 2 -1.6 0 -3 -0.4 -3 -0.8z"/>
 </g>
 <g fill="#623c18">
  <path d="M54 696 c0 -1.9 -0.7 -2 -22.8 -2 -19.8 0 -23.1 -0.2 -25.2 -1.7 -4 -2.7 -4.9 -4.5 -5 -9.1 0 -3.5 0.6 -4.9 2.9 -7.3 l2.9 -2.9 47.4 -0.1 c26 -0.1 46.5 -0.3 45.6 -0.6 -1 -0.2 -1.8 -1.1 -1.8 -1.9 0 -1.2 48.6 -1.4 358.2 -1.4 278.6 0 357.9 0.3 357 1.2 -0.7 0.7 -1.2 1.6 -1.2 2 0 0.4 21.2 0.8 47.1 0.8 l47.1 0 2.9 2.9 c2.3 2.4 2.9 3.8 2.9 7.3 -0.1 4.6 -1 6.4 -5 9.1 -2.1 1.5 -5.4 1.7 -25.2 1.7 -22.1 0 -22.8 0.1 -22.8 2 0 2 -0.7 2 -402.5 2 -401.8 0 -402.5 0 -402.5 -2z"/>
  <path d="M603 618.5 c0 -1.9 0.5 -3.5 1 -3.5 0.6 0 1 0.8 1 1.8 0 1.8 0.9 1.7 14.6 -1.4 8 -1.8 14.8 -3.5 15.2 -3.8 0.3 -0.4 -0.3 -2.3 -1.3 -4.4 -0.9 -2 -2.4 -5.2 -3.1 -6.9 -1.4 -3.2 -1.3 -3.3 0.9 -3.3 1.7 0 2.8 1 4 3.5 0.9 2 1.7 4.5 1.7 5.5 0 1.1 0.5 2 1 2 0.6 0 1 1.6 1 3.5 0 2.8 -0.4 3.6 -2.2 4 -15.5 3.6 -29.5 6.5 -31.4 6.5 -2.1 0 -2.4 -0.5 -2.4 -3.5z"/>
  <path d="M602 606 c0 -4.3 0.3 -5 2 -5 1.5 0 2 0.7 2 2.8 0 4.2 -1.1 7.2 -2.6 7.2 -1 0 -1.4 -1.4 -1.4 -5z"/>
  <path d="M603 567.5 c0 -4.8 0.2 -5.5 2 -5.5 1.6 0 2 0.7 2 3.3 0 4.7 -1 7.7 -2.6 7.7 -1 0 -1.4 -1.5 -1.4 -5.5z"/>
  <path d="M565 508.5 c0 -3.8 0.3 -4.5 2 -4.5 1.6 0 2 0.7 2 3 0 2 0.5 3 1.5 3 0.8 0 1.5 0.7 1.5 1.5 0 1 -1.1 1.5 -3.5 1.5 -3.5 0 -3.5 0 -3.5 -4.5z"/>
  <path d="M582.1 510.3 l2.6 -0.4 -4.3 -8.2 c-2.4 -4.5 -4.4 -8.5 -4.4 -8.9 0 -0.5 1 -0.8 2.3 -0.8 1.8 0 2.9 1.3 5.5 6.5 1.8 3.6 3.2 7.9 3.2 9.5 0 2.8 -0.2 3 -3.7 2.9 -2.8 -0.2 -3.1 -0.3 -1.2 -0.6z"/>
  <path d="M636 490.5 c0 -2.7 -0.4 -3.5 -1.8 -3.5 -1.2 0 -3.2 -2.8 -6.5 -9.5 -4.4 -8.8 -6 -15.5 -3.8 -15.5 0.5 0 4.1 6.2 8 13.8 l7 13.7 0.1 -44.7 c0 -44.1 0 -44.8 2 -44.8 2 0 2 0.7 2 47 l0 47 -3.5 0 c-3.3 0 -3.5 -0.2 -3.5 -3.5z"/>
  <path d="M336.3 489.3 c-1.3 -0.5 -1.8 -6.9 -0.7 -9.7 0.4 -1 1.8 -1.6 3.9 -1.6 3 0 3.3 0.3 3.9 3.8 1.2 7.4 0.9 8.2 -2.6 8.1 -1.8 0 -3.9 -0.3 -4.5 -0.6z"/>
  <path d="M566 482.5 c0 -4.5 0 -4.5 3.5 -4.5 3.5 0 3.5 0.1 3.5 4.3 -0.1 4.1 -0.1 4.1 -1.5 1.7 l-1.3 -2.5 -0.7 2.8 c-1.2 4.5 -3.5 3.4 -3.5 -1.8z"/>
  <path d="M616.2 455.5 c-1.4 -3 -1.6 -8.5 -0.4 -8.5 0.8 0 6.2 9.1 6.2 10.4 0 0.3 -1.1 0.6 -2.3 0.6 -1.6 0 -2.8 -0.9 -3.5 -2.5z"/>
  <path d="M285 455 c0 -0.5 -0.7 -1 -1.5 -1 -0.8 0 -1.5 -0.4 -1.5 -1 0 -0.5 -0.7 -1 -1.5 -1 -0.8 0 -1.5 -0.4 -1.5 -1 0 -0.5 -0.7 -1 -1.5 -1 -0.8 0 -1.5 -0.4 -1.5 -1 0 -0.5 -0.7 -1 -1.5 -1 -0.8 0 -1.5 -0.4 -1.5 -1 0 -0.5 -0.7 -1 -1.5 -1 -1 0 -1.5 -1.1 -1.5 -3.5 0 -2.4 0.5 -3.5 1.5 -3.5 0.8 0 1.5 0.7 1.5 1.5 0 1.1 8.8 7.8 15.7 11.8 0.7 0.5 3 -2.8 6.4 -9 8 -15 15.6 -26.9 18.9 -29.6 7 -6 34.9 -12.8 69.8 -17.2 4.7 -0.6 5.2 -0.5 5.2 1.2 0 1.7 -1.3 2.1 -10.2 3.2 -21.8 2.7 -48.4 8.8 -56.8 13.1 -2.2 1.1 -4.8 2 -6 2 -1.5 0 -2 0.7 -2 2.5 0 1.4 -0.4 2.5 -1 2.5 -0.5 0 -1 0.7 -1 1.5 0 0.8 -0.4 1.5 -1 1.5 -0.5 0 -1 0.7 -1 1.5 0 0.8 -0.7 1.5 -1.5 1.5 -0.9 0 -1.5 0.9 -1.5 2.5 0 1.6 -0.6 2.5 -1.5 2.5 -0.8 0 -1.5 0.9 -1.5 1.9 0 3.3 -1.1 5.1 -3.1 5.1 -1.4 0 -1.9 0.7 -1.9 3 0 4.6 -2 8 -4.7 8 -1.9 0 -2.3 0.5 -2.3 3 0 2.8 -0.3 3 -3.5 3 -1.9 0 -3.5 -0.4 -3.5 -1z"/>
  <path d="M609.6 443.4 c-0.3 -0.9 -0.6 -2.9 -0.6 -4.5 0 -2.2 -0.5 -2.9 -1.9 -2.9 -1.1 0 -2.3 -0.9 -2.7 -2.2 -0.3 -1.2 -1.3 -2.8 -2 -3.6 -0.8 -0.7 -1.4 -2 -1.4 -2.8 0 -0.8 -0.4 -1.4 -1 -1.4 -0.5 0 -1 -0.7 -1 -1.5 0 -0.8 -0.4 -1.5 -1 -1.5 -0.5 0 -1 -0.7 -1 -1.5 0 -0.8 -0.4 -1.5 -1 -1.5 -0.5 0 -1 -1.1 -1 -2.5 0 -2.1 -0.5 -2.5 -2.9 -2.5 -1.6 0 -3.6 -0.6 -4.3 -1.3 -0.7 -0.8 -3 -1.7 -5.1 -2.1 -2 -0.4 -3.7 -1.1 -3.7 -1.6 0 -0.6 -1.1 -1 -2.4 -1 -1.4 0 -6.2 -0.9 -10.8 -2 -10.3 -2.4 -38.1 -7 -42.5 -7 -2.7 0 -3.3 -0.4 -3.3 -2.1 0 -2 0.4 -2.1 5.8 -1.5 12.6 1.5 37.3 5.9 48 8.7 15.4 3.9 21.5 7 25.7 12.8 3.4 4.6 15.5 25.3 15.5 26.5 0 1.3 -4.8 0.5 -5.4 -1z"/>
  <path d="M270 401.1 c0 -1 0.3 -3.9 0.6 -6.5 0.5 -3.7 1.1 -4.6 2.6 -4.6 2.1 0 2.1 0.5 0.2 10.3 -0.6 3 -3.4 3.7 -3.4 0.8z"/>
  <path d="M391 397.6 c0 -0.7 1 -1.6 2.3 -2 4.1 -1.1 5.7 -0.7 5.7 1.4 0 1.7 -0.7 2 -4 2 -2.7 0 -4 -0.4 -4 -1.4z"/>
  <path d="M510 397 c0 -2.1 2.3 -2.6 6.8 -1.4 4.1 1.1 2.6 3.4 -2.3 3.4 -3.8 0 -4.5 -0.3 -4.5 -2z"/>
  <path d="M638.6 396.8 c-1 -3.8 -0.7 -4.8 1.4 -4.8 1.6 0 2 0.7 2 3.5 0 4 -2.4 4.9 -3.4 1.3z"/>
  <path d="M403 396.6 c0 -1.6 3 -2.6 7.8 -2.6 2.5 0 3.2 0.4 3.2 2 0 1.8 -0.7 2 -5.5 2 -4 0 -5.5 -0.4 -5.5 -1.4z"/>
  <path d="M496 396 c0 -1.5 0.7 -2 2.8 -2 4.2 0 7.2 1.1 7.2 2.6 0 1 -1.4 1.4 -5 1.4 -4.3 0 -5 -0.3 -5 -2z"/>
  <path d="M484 377.5 c0 -18.8 0.1 -19.5 2 -19.5 1.9 0 2 0.7 2 18 0 15.3 0.2 18 1.5 18 0.8 0 1.5 0.7 1.5 1.5 0 1 -1.1 1.5 -3.5 1.5 l-3.5 0 0 -19.5z"/>
  <path d="M633.4 382 c-2 -3.9 -6.1 -9.4 -9.2 -12.5 l-5.5 -5.5 3.7 0 c2.9 0 3.9 0.5 4.3 1.9 0.3 1.1 1.3 2.1 2.4 2.4 1.1 0.3 1.9 1.4 1.9 2.6 0 1.2 0.6 2.1 1.5 2.1 0.8 0 1.5 0.7 1.5 1.5 0 0.8 0.4 1.5 0.8 1.5 1.3 0 4.2 6.8 4.2 10 0 4.7 -1.6 3.6 -5.6 -4z"/>
  <path d="M274 385.1 c0 -3.9 0.9 -6.1 2.6 -6.1 0.8 0 1.4 -1 1.4 -2.5 0 -2.1 0.5 -2.5 3.1 -2.5 l3 0 -1.9 2.8 c-1.1 1.5 -2.9 4.6 -4.1 7 -2.5 4.9 -4.1 5.4 -4.1 1.3z"/>
  <path d="M289 365.1 c0 -2.8 0.3 -3.1 3 -3.1 2.2 0 3 -0.5 3 -1.8 0 -2.2 3.9 -4.2 8 -4.2 4.5 0 3.6 1.6 -2.2 4.6 -2.9 1.5 -6.8 3.8 -8.5 5.2 l-3.3 2.4 0 -3.1z"/>
  <path d="M607.4 358.6 c-1.8 -0.8 -5.7 -1.9 -8.8 -2.6 -3.9 -0.8 -5.6 -1.6 -5.6 -2.7 0 -1.3 0.9 -1.5 5.8 -0.9 3.1 0.4 5.9 1.1 6 1.6 0.2 0.6 1.7 1 3.3 1 2.4 0 2.9 0.4 2.9 2.5 0 1.4 -0.1 2.5 -0.2 2.5 -0.2 -0.1 -1.7 -0.7 -3.4 -1.4z"/>
  <path d="M308 355.1 c0 -1.8 3.9 -3.1 9.8 -3.1 4.4 0 2.3 2.8 -2.8 3.9 -6.7 1.4 -7 1.4 -7 -0.8z"/>
 </g>
 <g fill="#674910">
  <path d="M287 618.5 c-8 -1.9 -14.8 -3.4 -15.2 -3.4 -3.4 -0.4 3.1 -16.3 20.9 -51.3 6.3 -12.5 6.5 -12.8 9.8 -12.8 l3.3 0 0.6 27.8 c0.4 15.2 0.9 31.2 1.2 35.5 l0.6 7.7 -3.3 -0.1 c-1.9 -0.1 -9.9 -1.6 -17.9 -3.4z"/>
  <path d="M322 509.9 c0 -4.6 11.7 -26.9 14.1 -26.9 1.1 0 1.9 0.6 1.9 1.4 0 0.8 0.6 1.6 1.4 1.9 1 0.4 1.2 0 0.9 -1.4 -0.4 -1.2 0 -1.9 0.9 -1.9 1.9 0 2.8 6.6 2.8 20.3 l0 9.7 -11 0 -11 0 0 -3.1z"/>
  <path d="M270 463.5 c0 -20.2 0.2 -23.5 1.5 -23.5 0.8 0 1.5 0.6 1.5 1.3 0 0.6 3.7 3.6 8.2 6.6 7.2 4.7 8.3 5.2 9.3 3.7 1.8 -2.3 2.5 -2 2.5 1.2 0 1.5 -3.7 9.8 -8.1 18.5 l-8 15.7 -3.4 0 -3.5 0 0 -23.5z"/>
  <path d="M187 459.5 c18.2 -18.2 18.5 -18.5 18.8 -15.4 0.3 3 -0.9 4.5 -15 18.6 -13.9 13.9 -15.6 15.3 -18.8 15.3 -3.4 0 -3.3 -0.2 15 -18.5z"/>
 </g>
 <g fill="#4b4b4d">
  <path d="M64 614.6 c0 -0.7 1 -1.6 2.3 -2 1.2 -0.3 22.6 -0.6 47.5 -0.6 39.5 0 45.2 -0.2 45.2 -1.5 0 -0.8 0.7 -1.5 1.5 -1.5 1 0 1.5 1.1 1.5 3.5 l0 3.5 -49 0 c-41.1 0 -49 -0.2 -49 -1.4z"/>
  <path d="M72.5 606 c-2.7 -4.7 -12.6 -43.1 -15 -58.3 -2.3 -14.2 -3.1 -43.1 -1.5 -55.3 3.3 -26.8 13.9 -48 31 -62.1 7.9 -6.6 23.9 -14.7 34 -17.2 4.1 -1 7.6 -2.4 7.8 -3 0.2 -0.6 1 -1.1 1.8 -1.1 0.8 0 1.4 -0.7 1.4 -1.5 0 -2.2 4.2 -2.9 13.1 -2.1 7.3 0.6 7.9 0.5 7.9 -1.2 0 -1.4 1.7 -2.7 5.8 -4.5 10.9 -4.9 26.2 -7.4 26.2 -4.2 0 0.9 -1.4 1.6 -3.7 2 -11 1.7 -23.2 6.4 -30.4 11.8 -2.6 1.9 -2.9 1.9 -6.2 0.3 -4.2 -1.9 -4.8 -2 -8.2 -0.4 -5.2 2.4 -7 9.6 -3.5 14.1 l2 2.5 -3 6.4 c-4.3 9.2 -6 17 -6 27.3 0 14.6 4.4 27.6 12.9 38.3 l4.3 5.4 15.6 -15.4 c15.1 -14.7 15.7 -15.2 16 -12.4 0.3 2.6 -1.3 4.5 -13.5 16.8 l-13.8 13.9 -4.5 -0.3 c-3.7 -0.3 -4.6 -0.7 -4.8 -2.4 -0.2 -1.2 -1.2 -2.4 -2.3 -2.7 -1 -0.3 -1.9 -1.2 -1.9 -2.1 0 -0.9 -0.4 -1.6 -1 -1.6 -0.5 0 -1 -0.7 -1 -1.5 0 -0.8 -0.4 -1.5 -0.9 -1.5 -1 0 -4.3 -7.4 -6.7 -15.5 -1.4 -4.6 -1.9 -9.2 -1.8 -19.5 0 -12.4 0.3 -14.2 3.1 -22.5 1.7 -4.9 3 -9.1 2.9 -9.2 0 -0.1 -2.6 0.7 -5.6 1.8 -31 10.8 -49.1 35.6 -53 72.5 -1.4 13.8 -0.2 29.6 4 50.5 2.7 13.5 11.7 45.7 14 49.9 2.2 4 1.4 4.5 -7.1 4.5 -4.4 0 -8.2 -0.2 -8.4 -0.5z"/>
  <path d="M118 602.8 c0 -6.6 0.3 -6.8 9.5 -6.8 9.2 0 9.5 0.2 9.5 6.8 l0 3.7 -9.5 0 -9.5 0 0 -3.7z"/>
  <path d="M201 446.4 c0 -0.4 6.9 -7.6 15.3 -16.1 l15.2 -15.5 -4 -3.4 c-5.8 -5 -18.8 -11 -27.7 -12.8 -4.2 -0.9 -8 -1.6 -8.3 -1.6 -0.3 0 -0.5 -0.7 -0.5 -1.5 0 -1.8 3.3 -1.9 11.6 -0.4 6.6 1.2 20.4 6.6 20.4 8 0 0.5 0.7 0.9 1.5 0.9 0.8 0 1.5 0.7 1.5 1.5 0 0.8 0.9 1.5 2 1.5 1.5 0 2 0.7 2 2.5 0 2 0.5 2.5 2.5 2.5 2.2 0 2.5 0.4 2.5 3.3 0 2.8 -1.7 5 -14.3 17.5 -11.4 11.3 -14.8 14.2 -17 14.2 -1.5 0 -2.7 -0.3 -2.7 -0.6z"/>
  <path d="M639.6 403.8 c-0.3 -1.3 -0.6 -3.5 -0.6 -5 0 -1.4 -0.9 -5.4 -1.9 -8.7 l-1.9 -6.1 2.2 0 c2.8 0 4.4 4.8 5.3 15.1 0.5 5.8 0.3 6.9 -0.9 6.9 -0.9 0 -1.8 -1 -2.2 -2.2z"/>
  <path d="M270 398.3 c0 -5.4 3 -15.3 4.6 -15.3 0.9 0 1.4 -1.1 1.4 -2.9 0 -1.6 0.6 -3.6 1.3 -4.3 0.7 -0.7 1.6 -2.1 2 -3 0.3 -1 1.6 -1.8 2.7 -1.8 1.5 0 2 -0.7 2 -2.5 0 -2.1 0.5 -2.5 3 -2.5 2.5 0 3 -0.4 3 -2.5 0 -1.6 0.6 -2.5 1.5 -2.5 0.8 0 1.5 -0.4 1.5 -1 0 -0.5 1.6 -1 3.5 -1 4.4 0 4.4 1 0.3 3.5 -11.6 6.8 -20.8 21 -23.3 35.8 -0.8 5 -3.5 5.1 -3.5 0z"/>
  <path d="M629.7 375.5 l-3.8 -5.5 3.1 0 c2.3 0 3 0.4 3 2 0 1.1 0.7 2 1.5 2 1 0 1.5 1.1 1.5 3.5 0 1.9 -0.3 3.5 -0.7 3.5 -0.5 -0.1 -2.5 -2.5 -4.6 -5.5z"/>
  <path d="M620.5 365.9 c-5.5 -4.3 -14.8 -8.6 -21.2 -9.9 -3.7 -0.8 -5.3 -1.6 -5.3 -2.7 0 -1.3 0.9 -1.5 5.3 -1 5.8 0.6 16 4.1 18.1 6.3 0.8 0.8 1.9 1.4 2.5 1.4 0.6 0 1.1 0.4 1.1 0.9 0 0.5 0.9 1.1 2 1.4 1.5 0.4 2 1.4 2 3.6 0 1.7 -0.1 3.1 -0.2 3.1 -0.2 0 -2.1 -1.4 -4.3 -3.1z"/>
  <path d="M444 364 c0 -2.1 2.3 -2.6 6.8 -1.4 4.1 1.1 2.6 3.4 -2.3 3.4 -3.8 0 -4.5 -0.3 -4.5 -2z"/>
  <path d="M457 364.5 c0 -0.8 1.3 -1.6 3.3 -1.9 7.3 -1 22.4 -3.6 24.5 -4.2 1.7 -0.5 2.2 -0.2 2.2 1.4 0 2.2 -3.7 3.4 -16.5 5.2 -10.1 1.4 -13.5 1.3 -13.5 -0.5z"/>
  <path d="M430.8 363.8 c-4.7 -0.8 -5.8 -1.4 -5.8 -2.9 0 -2.3 -0.4 -2.3 9.3 -0.4 4.3 0.8 8.1 1.5 8.3 1.5 0.2 0 0.4 0.7 0.4 1.5 0 1.7 -3.3 1.8 -12.2 0.3z"/>
  <path d="M301 357.6 c0 -2 0.9 -2.6 5.8 -4 7.4 -2 12.2 -2.1 12.2 -0.1 0 0.8 -1.5 1.7 -3.7 2.1 -2.1 0.4 -6.2 1.5 -9 2.5 l-5.3 1.8 0 -2.3z"/>
  <path d="M398 352.4 c-2.5 -1.4 -4.7 -2.9 -5 -3.3 -0.3 -0.4 -1.3 -1 -2.2 -1.4 -1 -0.3 -1.8 -1.6 -1.8 -2.7 0 -1.4 -0.7 -2 -2.3 -2 -2.6 0 -5.7 -2.8 -5.7 -5.2 0 -0.9 -0.9 -1.8 -2 -2.1 -1.1 -0.3 -2 -1.2 -2 -2.1 0 -0.9 -0.4 -1.6 -0.9 -1.6 -1.4 0 -5.9 -11.2 -8.1 -20.1 -1.1 -4.6 -2.3 -12.6 -2.6 -17.6 -0.6 -8.1 -0.5 -9.3 0.9 -9.3 1.7 0 2.1 1.7 3.2 12.5 0.8 8.9 3.3 18.1 7.1 26.4 4.8 10.4 14.6 19.9 27.2 26.4 l9.3 4.7 -5.3 0 c-3.8 0 -6.5 -0.7 -9.8 -2.6z"/>
  <path d="M503.5 351.6 c3.9 -1.8 9.7 -5.4 13 -7.9 5.9 -4.5 6 -4.5 6.3 -2.1 0.3 2.5 -1.2 5.4 -2.9 5.4 -0.5 0 -1.8 0.9 -2.9 2 -1.1 1.1 -2.7 2 -3.5 2 -0.8 0 -1.5 0.4 -1.5 0.8 0 1.6 -5.1 3.2 -10.3 3.2 l-5.2 -0.1 7 -3.3z"/>
  <path d="M525 336.3 c0.8 -1 2.2 -2.7 3.1 -3.8 5 -5.7 9.9 -20.1 12.4 -35.7 0.8 -5.4 3.5 -5.2 3.5 0.2 0 8.5 -5.8 30 -8.1 30 -0.5 0 -0.9 0.9 -0.9 1.9 0 1.1 -0.6 2.6 -1.2 3.3 -0.7 0.8 -1.8 2.3 -2.4 3.3 -0.7 1.2 -2.4 2.1 -4.4 2.3 -3.1 0.3 -3.3 0.2 -2 -1.5z"/>
  <path d="M446.5 332.5 c-0.5 -0.1 -3.6 -0.8 -6.8 -1.5 -9.3 -1.9 -15.5 -8.8 -12.7 -14 0.6 -1.1 2 -2 3.1 -2 1.8 0 1.9 0.4 1.3 5 -0.6 4.5 -0.5 5 1.2 5 1.1 0.1 4.4 0.9 7.4 2 3 1.1 7.2 1.9 9.3 2 3 0 3.7 0.4 3.7 2 0 1.5 -0.6 2 -2.7 1.9 -1.6 0 -3.2 -0.2 -3.8 -0.4z"/>
  <path d="M456 331 c0 -1.6 0.7 -2 3 -2 5.7 0 16 -2.4 16 -3.7 0 -0.8 1.4 -1.3 3.6 -1.3 3.2 0 3.5 0.2 2.3 1.6 -2.1 2.5 -8 5.1 -14.4 6.3 -8.7 1.6 -10.5 1.5 -10.5 -0.9z"/>
  <path d="M479 317.5 c0 -2.7 0.1 -2.8 2.4 -1.9 2.4 0.9 2 4.4 -0.4 4.4 -1.5 0 -2 -0.7 -2 -2.5z"/>
  <path d="M440 317 c0 -2.1 2.3 -2.6 6.8 -1.4 4.1 1.1 2.6 3.4 -2.3 3.4 -3.8 0 -4.5 -0.3 -4.5 -2z"/>
  <path d="M461 317.6 c0 -1.4 2.9 -2.6 6.8 -2.6 1.5 0 2.2 0.6 2.2 2 0 1.7 -0.7 2 -4.5 2 -3.2 0 -4.5 -0.4 -4.5 -1.4z"/>
  <path d="M433.8 302.3 c-3.6 -0.9 -2 -3.3 2.2 -3.3 3.3 0 4 0.3 4 2 0 2 -2 2.4 -6.2 1.3z"/>
  <path d="M469 301 c0 -1.7 0.7 -2 4.5 -2 4.9 0 6.4 2.3 2.3 3.4 -4.5 1.2 -6.8 0.7 -6.8 -1.4z"/>
  <path d="M417 299.9 c-10.6 -2.3 -20.1 -5.8 -20.8 -7.6 -0.6 -2 4 -1.6 12.1 1.2 4.1 1.3 10.6 3 14.6 3.7 5.7 1 7.1 1.6 7.1 3 0 2.2 -1 2.2 -13 -0.3z"/>
  <path d="M479 300.3 c0 -1.5 1.3 -2.1 7.8 -3.2 4.2 -0.7 9.4 -1.6 11.5 -1.8 2 -0.3 3.7 -0.9 3.7 -1.4 0 -0.5 1.1 -0.9 2.5 -0.9 1.4 0 2.5 -0.4 2.5 -1 0 -0.5 1.6 -1 3.5 -1 11.6 0 -8.8 8.1 -26.7 10.6 -4.3 0.6 -4.8 0.4 -4.8 -1.3z"/>
  <path d="M388.7 288.9 c-8.3 -5.5 -13.6 -13.1 -15.2 -22.1 -0.7 -3.4 -0.5 -3.8 1.4 -3.8 1.7 0 2.1 0.6 2.1 3.5 0 1.9 0.5 3.5 1 3.5 0.6 0 1 0.9 1 2 0 1.1 0.5 2 1 2 0.6 0 1 0.6 1 1.4 0 0.8 0.7 1.6 1.5 2 0.8 0.3 1.5 1.5 1.5 2.6 0 1.4 0.7 2 2.1 2 1.2 0 2.3 0.8 2.6 1.9 0.3 1.1 1.7 2.1 3.4 2.5 2.3 0.4 2.9 1.1 2.9 3.1 0 3.2 -0.7 3.2 -6.3 -0.6z"/>
  <path d="M515 289.5 c0 -1.6 0.6 -2.5 1.5 -2.5 0.8 0 1.5 -0.4 1.5 -1 0 -0.5 0.9 -1 2 -1 1.1 0 2 -0.6 2 -1.3 0 -1.9 4.3 -5.7 6.3 -5.7 1.2 0 1.7 -0.9 1.7 -3 0 -1.6 0.4 -3 0.9 -3 0.5 0 1.2 -2.2 1.6 -5 0.6 -4 1.1 -5 2.6 -5 2.4 0 2.4 2.3 0.3 8.7 -2.4 7 -6.7 12.7 -13.1 17.3 -3.1 2.2 -6 4 -6.5 4 -0.4 0 -0.8 -1.1 -0.8 -2.5z"/>
  <path d="M541 277.5 c0 -10.8 0.1 -11.5 2 -11.5 1.9 0 2 0.7 2 11.5 0 10.8 -0.1 11.5 -2 11.5 -1.9 0 -2 -0.7 -2 -11.5z"/>
  <path d="M365 267 c0 -1.1 -0.7 -2 -1.5 -2 -0.8 0 -1.5 -0.9 -1.5 -2 0 -1.5 -0.7 -2 -2.9 -2 -3.3 0 -3.5 -0.4 -5.1 -10 -1.3 -8.8 -1.3 -11 0.4 -11 1.5 0 2 1.8 3.2 10.1 0.9 6.8 3.5 10.5 7.8 11.3 3.7 0.7 4 1.4 3 5.4 -0.8 2.7 -3.4 2.9 -3.4 0.2z"/>
  <path d="M430 263.6 c0 -0.8 1.4 -1.7 3 -2.1 3.5 -0.8 5.5 -3.5 6.4 -8.7 0.8 -4.6 3.6 -5.3 3.6 -0.9 0 6.3 -1.1 9.1 -3.6 9.1 -1.7 0 -2.4 0.6 -2.4 2 0 1.6 -0.7 2 -3.5 2 -2.4 0 -3.5 -0.5 -3.5 -1.4z"/>
  <path d="M468 264.3 c-2.7 -1.1 -4 -3.1 -4 -6.2 0 -3.7 1.6 -4 3.2 -0.6 0.7 1.6 2.5 2.9 5 3.7 4.7 1.4 5.1 3.8 0.6 3.7 -1.8 0 -4 -0.3 -4.8 -0.6z"/>
  <path d="M541 262.7 c0 -0.6 7.1 -7.7 7.7 -7.7 0.2 0 0.3 1.7 0.1 3.8 -0.3 3.5 -0.5 3.7 -4 4 -2.1 0.2 -3.8 0.1 -3.8 -0.1z"/>
  <path d="M365.2 256.2 c-1.8 -1.2 -3 -6 -3.8 -16.2 -0.6 -8.6 -0.6 -9 1.3 -9 1.8 0 2.1 0.9 2.6 8.3 0.6 9.8 1.2 11.6 4.4 12.8 3.4 1.3 39.3 1.2 39.3 -0.1 0 -0.5 0.6 -1 1.4 -1 2.3 0 7.3 -4.8 8 -7.6 0.4 -1.4 0.2 -4.2 -0.5 -6.1 -1 -3.2 -1.4 -3.5 -4.2 -2.9 -1.7 0.4 -4.3 1.8 -5.7 3.1 -1.4 1.4 -3.7 2.5 -5.1 2.5 -1.3 0 -3.1 0.5 -3.9 1 -1.3 0.8 -1.2 1.5 0.7 5 l2.1 4 -2.8 0 c-3.4 0 -4 -1.3 -4 -9.7 0 -6.1 0.2 -6.7 3.4 -9.9 3.1 -3.1 4 -3.4 9.1 -3.4 10.1 0 13.8 3.4 14.3 13.2 0.3 4.6 0.1 6.8 -0.7 6.8 -0.6 0 -1.1 0.8 -1.1 1.8 0 1 -0.6 2.4 -1.2 3.1 -1.1 1 -0.1 1.1 4.7 0.9 5.1 -0.3 6.1 -0.6 7 -2.5 0.5 -1.3 1.8 -2.3 2.9 -2.3 1.6 0 1.8 0.5 1.3 3.7 -0.4 2 -1.2 4 -1.9 4.5 -1.7 1 -65.9 1 -67.6 0z"/>
  <path d="M472 255.1 c-0.5 -1.1 -1 -2.7 -1 -3.5 0 -2 3.6 -2.1 4.4 -0.1 0.4 1.1 2.1 1.5 6.1 1.5 l5.5 0 -2 -3.2 c-3.3 -5.4 -2.5 -16.8 1.1 -16.8 1.2 0 1.9 -0.7 1.9 -1.9 0 -2.5 1.9 -3.1 9.7 -3.1 5.8 0 6.7 0.3 9.4 2.9 2.7 2.7 2.9 3.5 2.9 10.3 0 5.1 -0.5 8 -1.6 9.7 l-1.6 2.2 15 -0.3 c9 -0.2 15.5 -0.7 16.2 -1.4 0.6 -0.6 1.3 -3.4 1.7 -6.2 0.5 -4.2 0.9 -5.2 2.4 -5.2 2.2 0 2.3 1.1 0.9 9.4 -0.5 3.3 -1.5 6.3 -2.2 6.8 -0.7 0.4 -16.2 0.8 -34.5 0.8 -31.8 0 -33.3 -0.1 -34.3 -1.9z m17.2 -18.6 c0.3 -1.7 1.1 -2 5.6 -2 6 -0.1 9.1 -2 4.8 -3.1 -1.4 -0.3 -3.8 -0.3 -5.2 0 -3.2 0.8 -7.4 4.9 -7.4 7.3 0 2.2 1.7 0.5 2.2 -2.2z"/>
  <path d="M548 249.8 c0 -3 1.3 -5.8 2.6 -5.8 0.9 0 1.4 1.2 1.4 3.5 0 2.8 -0.4 3.5 -2 3.5 -1.1 0 -2 -0.6 -2 -1.2z"/>
  <path d="M462 243.6 c0 -0.8 -1.6 -1.6 -4 -2 -3.1 -0.5 -4 -1.1 -4 -2.6 0 -2.6 2.2 -2.6 7.7 0.1 4.6 2.2 6.1 5.9 2.3 5.9 -1.1 0 -2 -0.6 -2 -1.4z"/>
  <path d="M404 242.5 c0 -0.8 0.5 -1.5 1 -1.5 0.6 0 1 0.7 1 1.5 0 0.8 -0.4 1.5 -1 1.5 -0.5 0 -1 -0.7 -1 -1.5z"/>
  <path d="M549.5 237.8 c0.3 -2.4 2.1 -11 4 -19.3 1.8 -8.2 3.8 -18.4 4.5 -22.5 0.6 -4.1 1.3 -9 1.6 -10.7 0.7 -4.9 3.4 -4.4 3.4 0.6 0 5.5 -3.5 25.5 -7 39.7 -1.7 6.7 -3 13.1 -3 14.2 0 1.6 -0.6 2.2 -2.1 2.2 -1.9 0 -2 -0.4 -1.4 -4.2z"/>
  <path d="M460.5 234.9 c-4.8 -2.2 -12.3 -2.4 -17 -0.5 l-3.5 1.5 0 -3.5 c0 -4.5 -2.3 -10 -4.8 -11.3 -1.4 -0.7 -14.6 -1.2 -38.4 -1.3 -20 -0.1 -34.4 -0.3 -32 -0.5 2.8 -0.3 4.2 -0.9 4.2 -1.9 0 -1.2 5 -1.4 33.6 -1.4 21.1 0 34.2 0.4 35.5 1 2.5 1.4 4.9 6.2 4.9 9.7 l0 2.8 7.3 -0.3 c9.4 -0.4 15.1 1.4 15.5 5.1 0.4 3.1 0 3.2 -5.3 0.6z"/>
  <path d="M431 232 c0 -2.9 -0.4 -4 -1.5 -4 -0.8 0 -1.5 -0.9 -1.5 -2 0 -2.8 3.5 -2.6 5.4 0.2 0.9 1.2 1.6 3.9 1.6 6 0 3.1 -0.4 3.8 -2 3.8 -1.7 0 -2 -0.7 -2 -4z"/>
  <path d="M541 233.6 c0 -3.7 -1 -5.6 -3.1 -5.6 -1.2 0 -1.9 -0.7 -1.9 -2 0 -2.2 1.6 -2.5 5.3 -1.1 2.5 1 3.9 5.5 2.9 9.3 -0.7 2.7 -3.2 2.2 -3.2 -0.6z"/>
  <path d="M348.7 218.8 c-1 -6.8 -2 -16.7 -2.4 -22 -0.5 -8.4 -0.4 -9.8 0.9 -9.8 1.8 0 2.8 2.9 2.8 8.6 0 3.5 1.2 13.7 3.6 30.7 0.6 4.2 0.5 4.7 -1.3 4.7 -1.7 0 -2.1 -1.3 -3.6 -12.2z"/>
  <path d="M471 228 c0 -1 0.9 -2.4 2 -3 1.8 -1 2 -0.8 2 2 0 2.3 -0.4 3 -2 3 -1.3 0 -2 -0.7 -2 -2z"/>
  <path d="M361 228.4 c0.1 -2.3 2.1 -3.5 6.8 -4.1 4.8 -0.5 5.2 -0.4 5.2 1.6 0 1.5 -0.6 2.1 -2.2 2.1 -1.3 0 -4 0.3 -6 0.6 -2.1 0.4 -3.8 0.3 -3.8 -0.2z"/>
  <path d="M463 225.4 c0 -2.6 0.8 -4.3 2.9 -6.5 l2.9 -2.9 36.1 0 c30.6 0 36.1 0.2 36.1 1.4 0 0.8 0.8 1.7 1.8 1.9 0.9 0.3 -14.8 0.5 -35 0.6 l-36.6 0.1 -2.6 3.1 c-1.4 1.7 -2.6 3.7 -2.6 4.5 0 0.8 -0.7 1.4 -1.5 1.4 -1.1 0 -1.5 -1.1 -1.5 -3.6z"/>
  <path d="M368.6 209.8 c-1.2 -4.8 -0.7 -7.8 1.4 -7.8 1.7 0 2 0.7 2 5 0 3.6 -0.4 5 -1.4 5 -0.7 0 -1.6 -1 -2 -2.2z"/>
  <path d="M538 207 c0 -4.3 0.3 -5 2 -5 1.5 0 2 0.7 2 2.8 0 4.2 -1.1 7.2 -2.6 7.2 -1 0 -1.4 -1.4 -1.4 -5z"/>
  <path d="M438 200.7 c0 -0.9 4.3 -2.5 12.3 -4.6 17.8 -4.8 16.7 -4.6 16.7 -2.3 0 2.1 -2.4 3.2 -7.2 3.2 -1.6 0 -2.8 0.4 -2.8 0.8 0 0.9 -13.2 4.2 -16.7 4.2 -1.3 0 -2.3 -0.6 -2.3 -1.3z"/>
  <path d="M496.6 197.5 c-0.4 -2.6 -1.3 -4.5 -2 -4.5 -2.4 0 -5.8 -4.7 -5.4 -7.6 l0.3 -2.9 5.3 5.3 c3.4 3.5 5.2 6.2 5.2 7.8 0 2.4 0.1 2.4 9.5 2.4 8.8 0 9.5 0.1 9.5 2 0 1.9 -0.7 2 -10.9 2 l-10.9 0 -0.6 -4.5z"/>
  <path d="M524 199.7 c0 -1.1 1.2 -1.8 3.8 -2.2 4.8 -0.8 10.3 -2.1 12.5 -3 1.3 -0.5 1.7 -0.2 1.7 1.4 0 1.4 -0.6 2.1 -1.9 2.1 -1.1 0 -2.1 0.4 -2.3 1 -0.1 0.5 -3.3 1.2 -7 1.6 -5.8 0.6 -6.8 0.5 -6.8 -0.9z"/>
  <path d="M394 196.5 c0 -3.1 0.3 -3.5 2.5 -3.5 2 0 2.5 -0.5 2.5 -2.5 0 -1.8 0.5 -2.5 2 -2.5 2.8 0 2.5 2.8 -0.7 6.2 -2.1 2.2 -2.3 2.8 -1 2.8 0.9 0 1.7 0.7 1.7 1.5 0 1 -1.1 1.5 -3.5 1.5 -3.3 0 -3.5 -0.2 -3.5 -3.5z"/>
  <path d="M402 198.7 c0 -1.7 0.3 -1.8 14.9 -3.7 4.6 -0.7 11.2 -2 14.5 -3.1 3.4 -1 6.2 -1.9 6.4 -1.9 0.1 0 0.2 0.9 0.2 2 0 1.2 -1 2.4 -2.4 3 -3.7 1.4 -17.3 3.8 -25.9 4.6 -6.7 0.6 -7.7 0.5 -7.7 -0.9z"/>
  <path d="M367.6 194.8 c-0.3 -1.3 -0.6 -2.6 -0.6 -3 0 -0.8 13.6 -5.3 19.3 -6.3 3.3 -0.7 3.7 -0.5 3.7 1.4 0 1.2 -0.6 2.1 -1.4 2.1 -3.7 0 -17.6 5.2 -17.6 6.5 0 2.4 -2.7 1.7 -3.4 -0.7z"/>
  <path d="M475 190.1 c0 -1.2 0.5 -1.5 6.8 -4 l5.2 -2.1 0 2.5 c0 2 -0.5 2.5 -2.5 2.5 -1.4 0 -2.5 0.5 -2.5 1 0 0.6 -1.6 1 -3.5 1 -1.9 0 -3.5 -0.4 -3.5 -0.9z"/>
  <path d="M391 186.6 c0 -1.6 2.5 -2.4 5.3 -1.8 3.2 0.8 1.9 3.2 -1.8 3.2 -2.4 0 -3.5 -0.5 -3.5 -1.4z"/>
  <path d="M343.2 183.8 c-0.7 -0.7 -1.2 -2.5 -1.2 -4.1 l0 -3 3.3 2.5 c4.1 3.2 4.7 5.8 1.5 5.8 -1.3 0 -2.9 -0.5 -3.6 -1.2z"/>
  <path d="M560 170.3 c0 -12.6 -1.7 -20.7 -5.4 -26.3 l-2.6 -4 3 0 c2.7 0 3.4 0.6 5 4.4 2.5 5.5 4 15.6 4 27.4 0 8.5 -0.1 9.2 -2 9.2 -1.9 0 -2 -0.7 -2 -10.7z"/>
  <path d="M328.2 168.8 c-0.7 -0.7 -1.2 -1.7 -1.2 -2.3 0 -0.5 -0.9 -1.6 -2 -2.3 -1.1 -0.7 -2 -1.6 -2 -2.2 0 -0.5 -1.1 -2.1 -2.5 -3.6 -1.4 -1.5 -2.5 -3.3 -2.5 -4 0 -0.8 -0.4 -1.4 -0.8 -1.4 -0.5 0 -1.7 -1.7 -2.8 -3.7 -1 -2.1 -2.2 -4 -2.5 -4.3 -2.6 -2.2 -3.7 -9.1 -1.9 -12 0.7 -1.2 1.9 -1.3 8 -0.2 3.9 0.7 8.2 1.2 9.5 1.2 1.8 0 2.5 0.5 2.5 2 0 2.4 -2.6 2.6 -12 0.6 -3.6 -0.8 -6.6 -1.3 -6.6 -1.2 -0.1 0 1.9 3.5 4.5 7.7 3.9 6.5 8.1 12.4 17.4 24.5 l1.9 2.4 -2.9 0 c-1.6 0 -3.4 -0.5 -4.1 -1.2z"/>
  <path d="M346 136.1 c0 -1.7 0.6 -2.1 3.2 -2.1 4.9 0 21.5 -2.4 19.6 -2.8 -1 -0.2 -1.8 -0.8 -1.8 -1.3 0 -0.5 -0.6 -0.9 -1.3 -0.9 -1.6 0 -7.7 -6.1 -7.7 -7.7 0 -0.6 -0.7 -1.3 -1.5 -1.7 -0.8 -0.3 -1.5 -1.2 -1.5 -2.1 0 -0.8 -0.4 -1.5 -0.9 -1.5 -0.5 0 -1.3 -1 -1.7 -2.2 -0.3 -1.2 -1.3 -2.8 -2 -3.6 -1.6 -1.5 -1.8 -7 -0.5 -9.1 1 -1.6 5.2 -1.2 16.1 1.3 3.6 0.9 8.2 1.5 10.3 1.6 3.1 0 3.7 0.3 3.7 2.1 0 2.1 -0.3 2.1 -6.8 1.5 -3.7 -0.4 -10 -1.5 -14 -2.5 -3.9 -1 -7.2 -1.6 -7.2 -1.3 0 0.2 1.4 3 3.2 6.1 4.8 8.4 15.1 18.4 21.7 20.8 3 1.1 5 2.2 4.5 2.5 -1.2 0.8 -19.1 3.5 -28.1 4.4 -7 0.6 -7.3 0.6 -7.3 -1.5z"/>
  <path d="M545.5 134.7 c-11.1 -9.4 -28.4 -18.8 -42.5 -23.1 -4.7 -1.4 -16.4 -3.7 -26.1 -5.1 -24.4 -3.5 -38.3 -7.8 -48.9 -15.2 -2.4 -1.8 -2.4 -1.7 0.6 3.7 1.7 3 4.6 6.5 6.3 7.7 3.2 2.2 3.2 2.2 0.9 2.7 -3.3 0.8 -19.8 2.6 -23 2.6 -2.1 0 -2.8 -0.5 -2.8 -2 0 -1.7 0.7 -2 5.3 -2.1 5.4 -0.1 16.5 -1.5 13.5 -1.8 -2.4 -0.1 -6.8 -9.1 -6.8 -13.6 0 -3.3 0.2 -3.5 3.4 -3.5 2.3 0 4 0.7 4.8 1.9 1.9 2.7 17.2 9.7 26.3 12 4.4 1.1 14.5 2.9 22.5 4.1 8 1.1 17.7 2.8 21.5 3.7 8.2 1.9 20.8 6.8 21.3 8.3 0.2 0.5 1.2 1 2.2 1 3.4 0 20 10.5 20 12.6 0 0.8 0.8 1.4 1.9 1.4 2.6 0 4.3 2.4 3.9 5.5 l-0.3 2.6 -4 -3.4z"/>
  <path d="M383.8 108.3 c-1 -0.2 -1.8 -1.1 -1.8 -1.9 0 -1.1 2.4 -1.4 13 -1.4 10.4 0 13 0.3 13 1.4 0 0.7 -1 1.6 -2.2 2 -2.6 0.7 -19.4 0.6 -22 -0.1z"/>
 </g>
 <g fill="#bd2e32">
  <path d="M80.5 646.1 c-0.3 -0.5 0.3 -1.2 1.2 -1.4 1 -0.3 -8.2 -0.5 -20.4 -0.6 l-22.3 -0.1 0 -10.5 0 -10.5 16.8 -0.1 c9.2 -0.1 15.9 -0.3 15 -0.6 -1 -0.2 -1.8 -1.1 -1.8 -1.9 0 -1.2 8.4 -1.4 57.5 -1.4 l57.5 0 0 6 0 6 -68.5 0 c-67.8 0 -68.5 0 -68.5 2 0 2 0.7 2 68.5 2 l68.5 0 0 6 0 6 -51.4 0 c-30.4 0 -51.7 -0.4 -52.1 -0.9z"/>
  <path d="M604.1 618.3 c0.1 -2.5 0.3 -3 0.6 -1.5 0.3 1.6 1 2.1 2.1 1.8 0.9 -0.3 7.7 -1.9 15 -3.5 7.4 -1.6 13.5 -3.1 13.8 -3.4 0.2 -0.2 -6.1 -13.4 -14 -29.3 -13 -26 -14.5 -28.5 -14.6 -24.9 -0.1 4 -0.1 4 -1.5 1.5 -0.8 -1.4 -1.4 -4 -1.5 -5.7 0 -3.1 0.2 -3.3 3.3 -3.3 3.2 0 3.2 0 15.5 24.5 7.4 15 12.2 25.7 12.2 27.5 0 1.9 0.5 3 1.4 3 1.8 0 2.6 2.2 2.6 6.8 l0 3.7 -15.3 3.3 c-19.8 4.2 -19.7 4.2 -19.6 -0.5z"/>
  <path d="M581 511 c0 -0.5 0.9 -1 2 -1 2 0 2 -0.2 -0.5 -5 -3.1 -6 -3.1 -6 -0.2 -6 2.7 0 5.7 5.3 5.7 10 0 2.8 -0.3 3 -3.5 3 -1.9 0 -3.5 -0.4 -3.5 -1z"/>
  <path d="M565 502 c0 -7.3 0.2 -8 2 -8 1.8 0 2 0.7 2 5.8 0 7.1 -0.8 10.2 -2.6 10.2 -1.1 0 -1.4 -1.9 -1.4 -8z"/>
  <path d="M573.9 488.8 c-4.2 -8 -4.4 -8.2 -4.7 -5 -0.3 3.1 -0.4 3.3 -1.7 1.5 -0.8 -1 -1.5 -3.3 -1.5 -5 0 -3.1 0.2 -3.3 3.5 -3.3 3.3 0 3.6 0.3 7 7 3.3 6.5 4.6 13 2.6 13 -0.5 0 -2.8 -3.7 -5.2 -8.2z"/>
  <path d="M634.7 491.5 c-1.8 -3.7 -2.3 -9.5 -0.9 -9.5 0.5 0 2.1 2.1 3.5 4.8 l2.7 4.7 0 -4 c0.1 -4 0.1 -4 1.5 -1.5 0.8 1.4 1.4 4 1.5 5.8 0 3 -0.2 3.2 -3.3 3.2 -2.8 0 -3.6 -0.5 -5 -3.5z"/>
  <path d="M340.1 487.8 c0.1 -0.7 0 -2.6 -0.1 -4.3 l-0.2 -3 -1.3 3 -1.4 3 -0.1 -4.7 0 -4.8 3.5 0 3.5 0 0 6 c0 5.4 -0.2 6 -2 6 -1.2 0 -2 -0.6 -1.9 -1.2z"/>
  <path d="M622.2 467.5 c-2.3 -4.7 -4.2 -9.9 -4.2 -11.5 0 -2.2 -0.5 -3 -1.8 -3 -2 0 -5.2 -5.6 -5.2 -9 0 -1.1 -0.6 -2 -1.4 -2 -0.7 0 -2 -1.5 -2.7 -3.2 -0.7 -1.8 -1.9 -3.9 -2.6 -4.6 -0.7 -0.7 -1.3 -2.4 -1.3 -3.8 0 -1.5 -0.6 -2.4 -1.5 -2.4 -0.8 0 -1.5 -0.7 -1.5 -1.5 0 -0.8 -0.4 -1.5 -1 -1.5 -0.5 0 -1 -0.7 -1 -1.5 0 -0.8 -0.4 -1.5 -1 -1.5 -0.5 0 -1 -0.7 -1 -1.5 0 -0.8 -0.3 -1.5 -0.8 -1.5 -0.4 0 -1.8 -1 -3.2 -2.3 -4.8 -4.4 -30.3 -11.1 -58.1 -15.1 -5.9 -0.9 -12.1 -1.6 -13.8 -1.6 -2.5 0 -3.1 -0.4 -3.1 -2.1 0 -1.9 0.4 -2 6.8 -1.4 11.7 1.2 41.1 6.4 51 9 5.3 1.4 12.2 3.8 15.5 5.2 5.4 2.5 6.5 3.5 11.3 10.8 7.2 11.1 29.4 51.8 29.4 54 0 0.3 -1 0.5 -2.3 0.5 -1.8 0 -3 -1.6 -6.5 -8.5z"/>
  <path d="M296.6 440.9 c12.3 -21.9 17.3 -28.9 20.8 -28.9 1.6 0 0.3 4.6 -1.9 6.6 -1.4 1.3 -2.5 2.8 -2.5 3.4 0 0.5 -0.4 1 -1 1 -0.5 0 -1 0.7 -1 1.5 0 0.8 -0.4 1.5 -1 1.5 -0.5 0 -1 0.6 -1 1.4 0 0.8 -0.6 2.1 -1.3 2.8 -0.7 0.7 -1.9 2.8 -2.6 4.6 -0.7 1.7 -1.6 3.2 -2 3.2 -0.3 0 -1.4 2 -2.4 4.5 -1.1 2.5 -2.5 4.5 -3.3 4.5 -0.8 0 -1.4 0.9 -1.4 2 0 4 -2.2 7 -5.1 7 -2.7 0 -2.7 0 5.7 -15.1z"/>
  <path d="M319.2 411.8 c1.1 -3.2 25.7 -9.4 52.8 -13.4 19.9 -2.9 20 -2.9 20 -0.6 0 1.6 -1.5 2 -10.7 3.1 -13.5 1.5 -42.9 7.3 -50.7 10.1 -6.8 2.3 -12 2.7 -11.4 0.8z"/>
  <path d="M393 397.6 c0 -1.5 3 -2.6 7.3 -2.6 2 0 2.7 0.5 2.7 2 0 1.7 -0.7 2 -5 2 -3.6 0 -5 -0.4 -5 -1.4z"/>
  <path d="M506 397 c0 -1.5 0.7 -2 2.8 -2 4.2 0 7.2 1.1 7.2 2.6 0 1 -1.4 1.4 -5 1.4 -4.3 0 -5 -0.3 -5 -2z"/>
  <path d="M408 396.6 c0 -1.7 3.1 -2.6 9.3 -2.6 3.5 0 4.7 -0.4 4.7 -1.5 0 -0.8 0.7 -1.5 1.5 -1.5 1 0 1.5 1.1 1.5 3.5 l0 3.5 -8.5 0 c-6.6 0 -8.5 -0.3 -8.5 -1.4z"/>
  <path d="M485 394.5 c0 -1.9 0.5 -3.5 1 -3.5 0.6 0 1 0.7 1 1.5 0 1.1 1.3 1.5 5.3 1.5 6.6 0 9.7 0.9 9.7 2.6 0 1.1 -1.9 1.4 -8.5 1.4 l-8.5 0 0 -3.5z"/>
 </g>
 <g fill="#8b6239">
  <path d="M54 786.5 l0 -91.5 402.5 0 402.5 0 0 91.5 0 91.5 -402.5 0 -402.5 0 0 -91.5z"/>
  <path d="M294.8 620.5 c-2.6 -0.7 -9 -2.1 -14.3 -3.1 l-9.5 -1.8 0 -3.9 c0 -4.7 10.5 -27.7 12.7 -27.7 0.8 0 1.3 -1.2 1.3 -3 0 -4.6 2 -8 4.7 -8 1.2 0 2.3 0.2 2.3 0.4 0 0.2 -4 8.9 -8.9 19.2 -5 10.4 -8.8 19 -8.6 19.2 0.2 0.2 7 1.8 15.2 3.5 l14.9 3.2 -0.4 -5.2 c-0.4 -4.9 -0.3 -5.3 1.7 -5.3 1.9 0 2.1 0.6 2.1 5.4 0 3 -0.3 6.1 -0.6 7 -0.7 1.9 -5.8 2 -12.6 0.1z"/>
  <path d="M602 601.5 c0 -4.8 0.2 -5.5 2 -5.5 1.6 0 2 0.7 2 3.3 0 4.7 -1 7.7 -2.6 7.7 -1 0 -1.4 -1.5 -1.4 -5.5z"/>
  <path d="M303.6 582.8 c-0.3 -1.3 -0.6 -4.2 -0.6 -6.5 0 -3.6 0.3 -4.3 2 -4.3 1.8 0 2 0.7 2 6.5 0 4.9 -0.3 6.5 -1.4 6.5 -0.7 0 -1.6 -1 -2 -2.2z"/>
  <path d="M603 560.5 c0 -6.8 0.2 -7.5 2 -7.5 1.7 0 2 0.7 2 5.3 0 6.6 -0.9 9.7 -2.6 9.7 -1.1 0 -1.4 -1.8 -1.4 -7.5z"/>
  <path d="M298 556.1 c0 -4.9 0.9 -6.1 4.6 -6.1 3.1 0 3.4 0.3 3.4 2.9 0 3.5 -0.9 6.1 -2.1 6.1 -0.5 0 -0.9 -1.2 -0.9 -2.7 l-0.1 -2.8 -1.7 2.8 c-2.2 3.5 -3.2 3.4 -3.2 -0.2z"/>
  <path d="M608.7 555.6 c-0.4 -1 -0.5 -2.1 -0.2 -2.4 0.9 -0.9 1.7 0.6 1.3 2.5 -0.3 1.7 -0.4 1.7 -1.1 -0.1z"/>
  <path d="M322 509 c0 -3.6 6.9 -18 8.7 -18 0.7 0 1.3 -0.9 1.3 -2 0 -3.6 2.2 -7 4.6 -7 2.9 0 2.9 -0.2 -5.4 15.8 -5.7 11 -6.2 12.2 -4.3 12.2 1.2 0 2.1 0.5 2.1 1 0 0.6 -1.6 1 -3.5 1 -3.2 0 -3.5 -0.2 -3.5 -3z"/>
  <path d="M340.5 493 c-0.9 -4 0.3 -9 2.1 -9 1 0 1.4 1.5 1.4 6 0 4.5 -0.4 6 -1.4 6 -0.8 0 -1.7 -1.3 -2.1 -3z"/>
  <path d="M270 484.5 c0 -3.7 2.5 -5.1 3.2 -1.7 0.3 1 3.5 -4.5 8 -13.3 4.2 -8.3 8.3 -15.7 9.2 -16.4 1.4 -1.2 1.6 -1 1.6 1.8 0 4.5 -10.9 26.1 -13.2 26.1 -1.4 0 -1.8 0.8 -1.8 3.5 0 3.3 -0.2 3.5 -3.5 3.5 -3.3 0 -3.5 -0.2 -3.5 -3.5z"/>
  <path d="M419 396 c0 -0.5 0.7 -1 1.5 -1 1.3 0 1.5 -2.7 1.5 -18.6 l0 -18.6 2.3 0.6 c2.1 0.7 15.7 3.2 22.5 4.2 1.9 0.3 3.2 1.1 3.2 1.9 0 1.9 -4.9 1.9 -15.5 0 -4.4 -0.8 -8.1 -1.5 -8.2 -1.5 -0.2 0 -0.3 7.7 -0.3 17 l0 17 -3.5 0 c-1.9 0 -3.5 -0.4 -3.5 -1z"/>
  <path d="M460 364.5 c0 -0.9 1.4 -1.6 3.8 -2 7.7 -1.2 20.1 -3.5 21.6 -4.1 1.1 -0.4 1.6 0 1.6 1.5 0 2.3 -3.1 3.4 -14.5 5.1 -9.8 1.4 -12.5 1.3 -12.5 -0.5z"/>
  <path d="M448.8 332.3 c-1 -0.2 -1.8 -1.1 -1.8 -1.9 0 -1.1 1.7 -1.4 7.5 -1.4 5.7 0 7.5 0.3 7.5 1.4 0 2.2 -7.8 3.3 -13.2 1.9z"/>
  <path d="M440.8 331.3 c-3.3 -0.8 -2 -3.3 1.7 -3.3 2.8 0 3.5 0.4 3.5 2 0 2 -1.4 2.3 -5.2 1.3z"/>
  <path d="M464 330.3 c0 -1.3 1.7 -2.3 5.8 -3.6 5.7 -1.8 11.1 -6.6 8.4 -7.5 -1.9 -0.6 -1.4 -4.2 0.6 -4.2 2.6 0 4.2 2 4.2 5.3 0 3.9 -4.8 8.3 -11.3 10.2 -6.5 1.9 -7.7 1.9 -7.7 -0.2z"/>
  <path d="M430.3 326.5 l-2.8 -2.4 3.8 -0.1 c3.3 0 3.7 0.3 3.7 2.5 0 3.1 -1.1 3.2 -4.7 0z"/>
  <path d="M427 318.2 c0 -1.4 2.3 -3.2 4.2 -3.2 1.1 0 1.8 0.7 1.8 2 0 1.6 -0.7 2 -3 2 -1.6 0 -3 -0.4 -3 -0.8z"/>
  <path d="M437 317 c0 -2.1 2.3 -2.6 6.8 -1.4 4.1 1.1 2.6 3.4 -2.3 3.4 -3.8 0 -4.5 -0.3 -4.5 -2z"/>
  <path d="M464 317.6 c0 -0.7 1 -1.6 2.3 -2 4.1 -1.1 5.7 -0.7 5.7 1.4 0 1.7 -0.7 2 -4 2 -2.7 0 -4 -0.4 -4 -1.4z"/>
  <path d="M435.8 302.3 c-1 -0.2 -1.8 -1.1 -1.8 -1.9 0 -1 1.3 -1.4 5 -1.4 4.3 0 5 0.3 5 2 0 1.6 -0.6 2 -3.2 1.9 -1.8 -0.1 -4.1 -0.3 -5 -0.6z"/>
  <path d="M466 301 c0 -1.7 0.7 -2 4.5 -2 4.9 0 6.4 2.3 2.3 3.4 -4.5 1.2 -6.8 0.7 -6.8 -1.4z"/>
  <path d="M418.5 300 c-27.1 -5.7 -42.2 -17.1 -45 -33.7 -0.6 -3.9 -0.5 -4.3 1.3 -4.3 1.7 0 2.1 0.9 2.7 5 0.4 2.8 1.1 5 1.6 5 0.5 0 0.9 0.7 0.9 1.5 0 0.8 0.5 1.5 1 1.5 0.6 0 1 0.8 1 1.8 0 0.9 1 2.2 2.3 2.7 1.2 0.6 2.3 2 2.5 3.3 0.3 1.6 1 2.2 2.8 2.2 1.5 0 2.4 0.6 2.4 1.5 0 0.8 0.9 1.5 2 1.5 2.3 0 7 2 7 3 0 0.4 1.2 1 2.8 1.3 1.5 0.3 7.1 1.7 12.6 3.1 5.4 1.4 11.1 2.6 12.7 2.6 2.2 0 2.9 0.5 2.9 2 0 2.5 -1.5 2.5 -13.5 0z"/>
  <path d="M477 300.2 c0 -1.6 1 -2.1 6.1 -2.6 3.4 -0.4 9.9 -1.8 14.5 -3.2 4.6 -1.3 9.1 -2.4 9.9 -2.4 0.8 0 1.5 -0.4 1.5 -0.9 0 -0.5 1.6 -1.5 3.5 -2.2 1.9 -0.7 3.5 -1.7 3.5 -2.1 0 -0.4 0.7 -0.8 1.5 -0.8 0.8 0 1.5 -0.4 1.5 -1 0 -0.5 1.7 -1 3.8 -1 l3.7 0.1 -3.5 3 c-7.2 6.2 -24.8 12.5 -40.2 14.4 -5.3 0.6 -5.8 0.5 -5.8 -1.3z"/>
  <path d="M365 291.5 c0 -2.4 0.5 -3.5 1.5 -3.5 0.8 0 1.5 0.6 1.6 1.3 0 0.6 0.2 2.2 0.3 3.5 0.2 1.6 -0.3 2.2 -1.6 2.2 -1.4 0 -1.8 -0.8 -1.8 -3.5z"/>
  <path d="M541 290.3 c0 -4.3 1.1 -7.3 2.6 -7.3 1 0 1.4 1.4 1.4 5 0 4.3 -0.3 5 -2 5 -1.5 0 -2 -0.7 -2 -2.7z"/>
  <path d="M528 278.7 c0 -2.6 0.4 -3.7 1.5 -3.7 0.8 0 1.5 -0.9 1.5 -2 0 -1.1 0.5 -4 1.2 -6.5 0.9 -3.3 1.7 -4.5 3.1 -4.5 1.5 0 1.7 0.5 1.1 3.8 -0.9 5.2 -4.2 12.7 -6.5 14.8 -1.8 1.7 -1.9 1.6 -1.9 -1.9z"/>
  <path d="M541.6 269.8 c-1.3 -4.9 -0.7 -8.6 1.5 -9.3 2.7 -0.9 4.5 -5.4 5.4 -13 1 -9.5 1.6 -11.5 3.1 -11.5 1.7 0 1.8 4.1 0.3 14.5 -1 6.3 -1.4 7.5 -3 7.5 -1.4 0 -1.9 0.7 -1.9 3 0 1.7 -0.4 3 -1 3 -0.5 0 -1 1.8 -1 4 0 4.5 -2.3 5.7 -3.4 1.8z"/>
  <path d="M361 262.6 c0 -2.3 0.2 -2.4 3.5 -1.3 1.9 0.6 3.5 1.6 3.5 2.4 0 0.8 -1.3 1.3 -3.5 1.3 -3 0 -3.5 -0.3 -3.5 -2.4z"/>
  <path d="M431 263.5 c0 -0.8 0.6 -1.5 1.4 -1.5 2.6 0 6.4 -4 7 -7.5 1 -5.1 3.6 -4.7 3.6 0.5 0 2.2 -0.4 4 -1 4 -0.5 0 -1 0.9 -1 2 0 2.4 -2.8 4 -6.9 4 -2.1 0 -3.1 -0.5 -3.1 -1.5z"/>
  <path d="M468 262.5 c0 -2 -0.5 -2.5 -2.4 -2.5 -2 0 -2.4 -0.6 -3 -4.6 -0.3 -2.6 -0.6 -6.4 -0.6 -8.5 0 -2.8 -0.4 -3.9 -1.5 -3.9 -0.8 0 -1.5 -0.4 -1.5 -1 0 -0.5 -1.3 -1 -3 -1 -2.3 0 -3 -0.4 -3 -2 0 -2.3 1.3 -2.5 6.1 -0.9 6 2 6.9 3.5 6.9 10.8 0 8.1 1.5 11.2 5.8 12.5 4.4 1.2 4.2 3.6 -0.3 3.6 -3.1 0 -3.5 -0.3 -3.5 -2.5z"/>
  <path d="M353.6 250.8 c-0.9 -7.9 -0.8 -9.8 0.8 -9.8 1.5 0 2 1.8 3.2 10.3 0.6 4.2 0.4 4.7 -1.3 4.7 -1.7 0 -2.1 -0.9 -2.7 -5.2z"/>
  <path d="M472 254 c-1 -1.8 -0.8 -2 2 -2 2.3 0 3 0.4 3 2 0 1.3 -0.7 2 -2 2 -1 0 -2.4 -0.9 -3 -2z"/>
  <path d="M534 254 c0 -1.6 0.7 -2 3.5 -2 4 0 4.9 2.4 1.3 3.4 -3.8 1 -4.8 0.7 -4.8 -1.4z"/>
  <path d="M404 253 c0 -1.7 0.7 -2 4 -2 3.3 0 4 0.3 4 2 0 1.7 -0.7 2 -4 2 -3.3 0 -4 -0.3 -4 -2z"/>
  <path d="M431 242 c0 -9.6 0.3 -12 1.4 -12 1.9 0 2.6 3.2 2.6 12 0 8.8 -0.7 12 -2.6 12 -1.1 0 -1.4 -2.4 -1.4 -12z"/>
  <path d="M362.6 247.8 c-1 -3.8 -0.7 -4.8 1.4 -4.8 1.6 0 2 0.7 2 3.5 0 4 -2.4 4.9 -3.4 1.3z"/>
  <path d="M540 242.5 c0 -2.8 0.4 -3.5 2 -3.5 2.1 0 2.4 1 1.4 4.8 -1 3.6 -3.4 2.7 -3.4 -1.3z"/>
  <path d="M440 241.9 c0 -1.3 1.1 -2.5 3.5 -3.5 4.9 -2 7.5 -1.8 7.5 0.6 0 1.3 -0.7 2 -1.8 2 -1 0 -2.7 0.7 -3.8 1.5 -2.8 2.1 -5.4 1.9 -5.4 -0.6z"/>
  <path d="M418.3 237.5 c-1.1 -3.3 -1 -3.5 1.3 -3.5 2.1 0 2.4 0.5 2.4 3.5 0 2.2 -0.5 3.5 -1.3 3.5 -0.8 0 -1.8 -1.6 -2.4 -3.5z"/>
  <path d="M361.9 238.8 c-0.1 -0.7 -0.3 -2.5 -0.5 -4 -0.2 -2.2 0.1 -2.8 1.7 -2.8 1.6 0 1.9 0.7 1.9 4 0 2.9 -0.4 4 -1.5 4 -0.8 0 -1.6 -0.6 -1.6 -1.2z"/>
  <path d="M352 233.5 c0 -2.5 0.3 -4.5 0.6 -4.5 1.4 0 3.3 3.6 3.4 6.3 0 2 -0.5 2.7 -2 2.7 -1.7 0 -2 -0.7 -2 -4.5z"/>
  <path d="M458.8 233.6 c-7.2 -2.6 -7.9 -5.1 -1.4 -4.4 l4.4 0.5 0.7 -4.5 c0.9 -5.8 4.2 -9.2 9 -9.2 2.4 0 3.5 0.4 3.5 1.5 0 0.8 -0.7 1.5 -1.6 1.5 -0.8 0 -2.9 1.3 -4.5 2.9 -2.5 2.6 -2.9 3.7 -2.9 8.5 0 3.1 -0.3 5.5 -0.7 5.5 -0.5 -0.1 -3.4 -1.1 -6.5 -2.3z"/>
  <path d="M440 232.5 c0 -2.5 2.2 -3.5 7.8 -3.5 5.2 0 3.9 2.5 -2.3 4.2 -5.5 1.5 -5.5 1.5 -5.5 -0.7z"/>
  <path d="M471 229.1 c0 -1.1 0.7 -2.7 1.6 -3.5 1.3 -1.4 5.7 -1.6 33.2 -1.6 17.4 0 32.7 0.3 34 0.6 1.2 0.4 2.2 1.3 2.2 2 0 1.2 -5.6 1.4 -33 1.4 -28.5 0 -33.1 0.2 -33.6 1.5 -0.9 2.2 -4.4 1.9 -4.4 -0.4z"/>
  <path d="M438.4 224.5 l-2.1 -4.5 2.7 0 c3 0 4 1.5 4 6.1 0 4.3 -2.2 3.5 -4.6 -1.6z"/>
  <path d="M367 226.6 c0 -0.7 1 -1.6 2.3 -2 1.2 -0.3 15.4 -0.6 31.5 -0.6 28.2 0 33.2 0.5 33.2 3 0 0.6 -12.6 1 -33.5 1 -27.9 0 -33.5 -0.2 -33.5 -1.4z"/>
  <path d="M369 217 c0 -1.3 0.7 -2 2 -2 1.3 0 2 0.7 2 2 0 1.3 -0.7 2 -2 2 -1.3 0 -2 -0.7 -2 -2z"/>
  <path d="M537 217 c0 -1.3 0.7 -2 2 -2 1.3 0 2 0.7 2 2 0 1.3 -0.7 2 -2 2 -1.3 0 -2 -0.7 -2 -2z"/>
  <path d="M368.6 205.8 c-1.2 -4.8 -0.7 -7.8 1.4 -7.8 1.7 0 2 0.7 2 5 0 3.6 -0.4 5 -1.4 5 -0.7 0 -1.6 -1 -2 -2.2z"/>
  <path d="M538 204 l0 -4 -6 0.7 c-5.1 0.5 -6 0.3 -6 -1 0 -1.1 1.2 -1.8 3.8 -2.2 2 -0.4 5.6 -1.3 8 -2 l4.2 -1.4 0 4.7 c0 6.1 -0.9 9.2 -2.6 9.2 -1 0 -1.4 -1.3 -1.4 -4z"/>
  <path d="M435 199.5 c0 -2.4 0.5 -3.5 1.5 -3.5 0.8 0 1.5 0.7 1.5 1.5 0 0.8 0.6 1.5 1.3 1.5 4.4 0 40.3 -11.2 47.1 -14.7 2.6 -1.4 3 -1.3 4.9 0.6 l2.1 2 -4.2 0.7 c-2.3 0.4 -4.2 1 -4.2 1.5 0 0.5 -1.1 0.9 -2.5 0.9 -1.4 0 -2.5 0.4 -2.5 0.8 0 1.6 -36.9 12.2 -42.4 12.2 -2.3 0 -2.6 -0.4 -2.6 -3.5z"/>
  <path d="M495.6 197.4 c-0.3 -2.6 -0.6 -5.6 -0.6 -6.8 0.1 -2 0.2 -1.9 2.5 0.7 1.4 1.5 2.5 3.9 2.5 5.3 0 1.5 0.6 2.4 1.5 2.4 0.8 0 1.5 0.7 1.5 1.5 0 1 -1 1.5 -3.4 1.5 -3.2 0 -3.4 -0.2 -4 -4.6z"/>
  <path d="M513 200.6 c0 -1.6 3 -2.6 7.8 -2.6 2.5 0 3.2 0.4 3.2 2 0 1.8 -0.7 2 -5.5 2 -4 0 -5.5 -0.4 -5.5 -1.4z"/>
  <path d="M393 197.9 c0 -3 1.9 -5.9 3.9 -5.9 0.6 0 1.1 -1.6 1.1 -3.6 0 -3.1 0.3 -3.5 2.3 -3.2 3.6 0.5 3.5 5.1 -0.2 8.8 l-2.9 3 2.4 0 c1.7 0 2.4 0.6 2.4 2 0 1.7 -0.7 2 -4.5 2 -4.4 0 -4.5 -0.1 -4.5 -3.1z"/>
  <path d="M405 198.5 c0 -0.8 1.3 -1.6 3.3 -1.9 12.4 -1.9 22.5 -3.9 25.3 -5.1 3.5 -1.4 4.4 -1.1 4.4 1.6 0 1.9 -7.2 3.9 -20.7 5.9 -9.6 1.4 -12.3 1.3 -12.3 -0.5z"/>
  <path d="M368 192.5 c0 -1.5 12.4 -5.9 20 -7.1 3.5 -0.6 4 -0.4 4 1.2 0 1.5 -1.5 2.2 -7.3 3.7 -4 0.9 -8.1 1.7 -9 1.7 -0.9 0 -1.7 0.5 -1.7 1 0 0.6 -1.3 1 -3 1 -2 0 -3 -0.5 -3 -1.5z"/>
 </g>
 <g fill="#8dc347">
  <path d="M23 658.7 l0 -13.4 45.2 -0.6 c24.8 -0.4 60.4 -0.7 79 -0.7 29.4 0 33.8 -0.2 33.8 -1.5 0 -1.2 1.7 -1.5 9 -1.5 l9 0 0 6 0 6 -83.7 0.2 -83.8 0.3 -0.3 4.8 -0.3 4.7 84 0 84.1 0 0 4.5 0 4.5 -88 0 -88 0 0 -13.3z"/>
  <path d="M179 477.5 c0 -3.3 0.2 -3.5 3.5 -3.5 3.3 0 3.5 0.2 3.5 3.5 0 3.3 -0.2 3.5 -3.5 3.5 -3.3 0 -3.5 -0.2 -3.5 -3.5z"/>
  <path d="M192 473.5 c0 -3.3 0.2 -3.5 3.5 -3.5 3.3 0 3.5 0.2 3.5 3.5 0 3.3 -0.2 3.5 -3.5 3.5 -3.3 0 -3.5 -0.2 -3.5 -3.5z"/>
  <path d="M201.5 450.4 c-0.5 -2.7 -0.2 -4.1 1.1 -5.5 3.7 -4.1 6.4 -1.3 6.4 6.7 0 2.1 -0.5 2.4 -3.4 2.4 -3.1 0 -3.4 -0.3 -4.1 -3.6z"/>
 </g>
 <g fill="#91be5b">
  <path d="M196 669 c0 -2 -0.5 -3 -1.5 -3 -0.8 0 -1.5 -0.7 -1.5 -1.5 0 -1 1.1 -1.5 3.5 -1.5 3.5 0 3.5 0 3.5 4.5 0 3.8 -0.3 4.5 -2 4.5 -1.6 0 -2 -0.7 -2 -3z"/>
  <path d="M28.2 658.3 c0.3 -6.5 0.6 -7.8 2.1 -8.1 1.5 -0.3 1.7 0.6 1.7 7.7 0 7.5 -0.2 8.1 -2 8.1 -1.9 0 -2.1 -0.5 -1.8 -7.7z"/>
  <path d="M193 651.5 c0 -0.8 0.7 -1.5 1.5 -1.5 1 0 1.5 -1 1.5 -3 0 -2 -0.5 -3 -1.5 -3 -0.8 0 -1.5 -0.7 -1.5 -1.5 0 -1 1.1 -1.5 3.5 -1.5 l3.5 0 0 6 0 6 -3.5 0 c-2.4 0 -3.5 -0.5 -3.5 -1.5z"/>
  <path d="M174.3 480.3 c-1.6 -0.3 -2.3 -1.1 -2.3 -2.8 0 -3.3 1.5 -4 8.5 -4.1 9.7 -0.1 14.5 -1.3 14.5 -3.6 0 -1.1 0.8 -2.2 1.9 -2.5 1 -0.3 2.1 -1.5 2.4 -2.6 0.3 -1.2 1.2 -3.9 1.9 -5.9 1.1 -3.4 1.7 -3.8 4.7 -3.8 l3.4 0 -0.6 4.8 c-0.7 5.7 -2.5 10.2 -4.3 10.2 -0.7 0 -1.4 1 -1.6 2.3 -0.2 1.7 -1.1 2.3 -3.5 2.5 -2.4 0.2 -3.3 0.8 -3.3 2.1 0 3.1 -12.8 5.1 -21.7 3.4z"/>
  <path d="M202 449.7 c0 -3.2 0.2 -3.4 3.5 -3.5 3.4 -0.1 3.5 0 3.5 3.3 0 3.3 -0.2 3.5 -3.5 3.5 -3.3 0 -3.5 -0.2 -3.5 -3.3z"/>
 </g>
 <g fill="#29aae1">
  <path d="M181 623.5 c0 -1.3 -8.9 -1.5 -74.5 -1.5 l-74.5 0 0 -4.5 0 -4.5 63.5 0 c55.8 0 63.5 -0.2 63.5 -1.5 0 -1.3 3.1 -1.5 22 -1.5 l22 0 0 7.5 0 7.5 -11 0 c-9.1 0 -11 -0.3 -11 -1.5z"/>
 </g>
 <g fill="#82a897">
  <path d="M769.2 669.5 l0.5 -2.5 -14.3 0 -14.4 0 0 -3.3 c0 -2.8 0.6 -3.7 4 -5.6 2.2 -1.2 6.1 -4.7 8.7 -7.6 2.7 -3 5.3 -5.5 5.9 -5.5 1.3 0 1.9 -4.1 3 -17.5 0.4 -5.5 1.1 -8.4 2.2 -9.2 1.4 -1.2 1.4 -1.3 -0.1 -1.3 -1.1 0 -1.7 -0.8 -1.7 -2.5 l0 -2.5 -33.8 0 -33.7 0 -29.3 -58.5 c-23 -46.1 -29.2 -59.3 -29.2 -62.3 l0.1 -3.7 1.4 2.5 c1.3 2.2 1.4 -3.1 1.5 -43.1 0 -26.8 -0.4 -47.8 -1 -51 -2.4 -12.7 -11.3 -25.9 -22.4 -33.1 -12 -7.7 -12.5 -7.8 -68.5 -7.8 l-49.6 0 7.9 -4.3 c10.7 -5.7 21.3 -15.7 25.9 -24.4 4.3 -8.3 7.5 -19.4 8.4 -29 0.5 -6 0.9 -7.3 2.3 -7.3 2.9 0 4.9 -3.3 6.5 -10.8 1.8 -8.7 3 -11.8 8.2 -20.2 6.9 -11.3 7.2 -14.9 2.1 -22.2 -1.6 -2.3 -2.3 -2.6 -3.8 -1.8 -2.2 1.2 -6 1.3 -6 0.3 0 -0.5 1.4 -6.2 3 -12.8 5.1 -20.7 7.3 -35.7 7.4 -51 0.1 -19.7 -1.2 -23.7 -10.7 -33.1 -8.3 -8.1 -16.4 -13.8 -27.6 -19.4 -15 -7.5 -23 -9.8 -45.6 -13 -24.4 -3.4 -38.9 -8 -47.7 -15.1 -2.1 -1.6 -3.8 -2.7 -3.8 -2.4 0 2.1 5.5 10.7 8.4 13.3 l3.5 3 -3.7 0.6 c-23 3.8 -58.3 3.3 -74.7 -0.9 -3.2 -0.9 -6 -1.3 -6.3 -1 -0.9 0.8 3.7 8.8 8.5 15 4.6 5.8 11.3 10.9 17.1 12.9 l3.7 1.3 -5.5 1.2 c-8.6 1.9 -29.8 4.1 -38.5 4.1 -7.5 0 -18.7 -1.2 -24.3 -2.7 l-2.6 -0.6 3.3 5.9 c6.6 11.6 13.8 21.1 24.2 31.8 l10.6 10.8 0.7 10.7 c0.5 9.4 3.5 30.9 5.2 38.4 0.5 2.3 0.3 2.7 -1.5 2.7 -2.4 0 -5.6 4.6 -6.7 9.3 -0.6 3 0.9 6.6 8.8 20.7 2.3 4.1 4.1 8.9 4.7 12.9 1.1 6.9 3.3 11.1 6.2 11.8 1.3 0.4 2 1.8 2.4 5.2 3.7 29.2 13.3 44.3 35.8 56.2 l7.2 3.8 -48.1 0.1 c-45.3 0 -48.6 0.1 -54.5 2 -16.8 5.2 -29.3 18 -34.3 34.9 -1.3 4.3 -1.6 10.4 -1.6 29.3 0 22 -0.1 23.8 -1.7 23.8 -1 0 -10.9 -6.1 -22 -13.4 -17.7 -11.7 -20 -13.6 -18.6 -14.7 1.4 -1.2 1 -1.8 -3.3 -5.7 -19.8 -17.5 -52.1 -18.8 -75.2 -3 -3.9 2.7 -4.4 2.8 -6.4 1.4 -3.8 -2.7 -8.5 -2 -12.1 1.6 -2.4 2.4 -5 3.7 -10.2 5 -9.7 2.4 -25.7 10.6 -33.5 17.1 -12.6 10.4 -23.4 27.7 -27.8 44.8 -4.7 17.9 -5.3 43.3 -1.7 66.9 2 12.4 8.3 38 12.5 50.4 1.6 5 3 9.6 3 10.3 0 0.9 -1.7 1.3 -5.9 1.3 l-5.9 0 -7 -17.7 c-13.8 -34.8 -22.1 -67.1 -27.3 -105.3 -2.6 -19.6 -3.7 -67.1 -2 -87.1 7.9 -91.3 40.9 -172.1 99 -242.3 10.2 -12.4 35.2 -37.8 48.4 -49.1 73.9 -63.8 166.6 -100.6 262.7 -104.4 62.3 -2.4 119.6 7.2 176.3 29.6 53.5 21 100.1 51.2 141.6 91.8 36 35.2 61.5 69.6 83.6 113 25.7 50.4 40.7 103.7 45.6 161.2 2.4 29 0.4 74.5 -4.7 104.8 -9.2 55.7 -31.7 114 -61.7 160.3 l-6.6 10.2 -21.7 0 -21.6 0 0.4 -2.5z"/>
  <path d="M702 663.9 c0 -4.9 1.6 -6.9 5.6 -6.9 1.9 0 4.8 0.7 6.4 1.5 2.5 1.3 3 2.2 3 5 l0 3.5 -7.5 0 -7.5 0 0 -3.1z"/>
  <path d="M197 623.5 c0 -0.8 0.7 -1.5 1.5 -1.5 0.8 0 1.5 -0.7 1.5 -1.5 0 -0.8 -0.7 -1.5 -1.5 -1.5 -0.8 0 -1.5 -0.9 -1.5 -2 0 -1.1 0.7 -2 1.5 -2 0.8 0 1.5 -0.4 1.5 -1 0 -0.5 -0.7 -1 -1.5 -1 -0.8 0 -1.5 -0.7 -1.5 -1.5 0 -1 1.1 -1.5 3.5 -1.5 l3.5 0 0 7.5 0 7.5 -3.5 0 c-2.4 0 -3.5 -0.5 -3.5 -1.5z"/>
  <path d="M158.8 610.3 l-0.3 -2.8 -12.2 -0.3 c-12.2 -0.3 -12.3 -0.3 -12.3 -2.6 0 -4.8 -0.9 -5.6 -6.5 -5.6 -5.6 0 -6.5 0.8 -6.5 5.6 l0 2.4 -17.5 0 c-16.1 0 -17.5 -0.1 -18.4 -1.9 -0.6 -1 -3.3 -9.4 -6.1 -18.7 -18.3 -60.7 -16.7 -106.1 4.9 -134.5 10.3 -13.7 25.9 -23.8 42.9 -27.9 4.6 -1 5.6 -1 6.8 0.2 1.3 1.2 1.1 2 -1 5.9 -10.2 18.5 -9.2 45.1 2.3 62.5 6.9 10.3 7.7 11.1 10.1 9.6 1.6 -1 2 -1 2 0 0 0.7 3.8 25.6 8.5 55.2 4.7 29.7 8.5 54.3 8.5 54.8 0 0.4 -1.1 0.8 -2.4 0.8 -1.9 0 -2.5 -0.6 -2.8 -2.7z"/>
  <path d="M366.8 255.3 c-3.3 -0.8 -2 -3.3 1.7 -3.3 2.8 0 3.5 0.4 3.5 2 0 2 -1.4 2.3 -5.2 1.3z"/>
  <path d="M403.3 254.3 c-2.9 -0.4 -3.3 -0.8 -3.3 -3.3 l0 -2.8 3.6 1.9 c2.3 1.1 4.7 1.6 6.5 1.2 2.5 -0.5 2.9 -0.2 2.9 1.6 0 2.2 -1.4 2.4 -9.7 1.4z"/>
  <path d="M497 253.8 c0.1 -0.7 2.1 -2.2 4.5 -3.4 l4.5 -2.1 0 2.7 c0 3 -1.5 4 -6.1 4 -1.7 0 -2.9 -0.5 -2.9 -1.2z"/>
  <path d="M539 249.5 c0 -2.8 0.4 -3.5 2 -3.5 2.1 0 2.4 1 1.4 4.8 -1 3.6 -3.4 2.7 -3.4 -1.3z"/>
  <path d="M484 246.5 c0 -1.9 0.4 -3.5 0.9 -3.5 0.5 0 1.8 1.6 3 3.5 l2 3.5 -2.9 0 c-2.8 0 -3 -0.3 -3 -3.5z"/>
  <path d="M507 241 c0 -3.3 0.3 -4 2 -4 1.7 0 2 0.7 2 4 0 3.3 -0.3 4 -2 4 -1.7 0 -2 -0.7 -2 -4z"/>
  <path d="M540 241.5 c0 -2.8 0.4 -3.5 2 -3.5 2.1 0 2.4 1 1.4 4.8 -1 3.6 -3.4 2.7 -3.4 -1.3z"/>
  <path d="M483 238.5 c0 -2.3 0.5 -3.5 1.4 -3.5 0.7 0 1.6 -0.9 1.9 -2 0.4 -1.5 1.4 -2 3.7 -2 l3.2 0 -3 2.5 c-1.7 1.4 -3.3 3.9 -3.7 5.5 -0.9 4.3 -3.5 3.9 -3.5 -0.5z"/>
  <path d="M395 236.5 c0 -1.9 0.4 -3.5 0.9 -3.5 0.5 0 1.1 -0.9 1.4 -2 0.4 -1.5 1.4 -2 4.1 -2 2 0 3.6 0.2 3.6 0.4 0 0.2 -1.6 2 -3.5 3.9 -1.9 1.9 -3.5 4.2 -3.5 5.1 0 0.9 -0.7 1.6 -1.5 1.6 -1 0 -1.5 -1.1 -1.5 -3.5z"/>
  <path d="M400.7 237.7 c-0.6 -1.8 1.1 -4.7 2.8 -4.7 2.1 0 1.9 2.3 -0.4 4.2 -1.4 1.2 -2.1 1.3 -2.4 0.5z"/>
  <path d="M489.2 236.8 c0.2 -1.5 1.1 -2.4 2.6 -2.6 2 -0.3 2.3 0 2 2 -0.2 1.5 -1.1 2.4 -2.6 2.6 -2 0.3 -2.3 0 -2 -2z"/>
  <path d="M413.3 231.8 c-4.2 -2.6 -4.2 -3.8 0.2 -3.8 3.2 0 3.5 0.2 3.5 3 0 1.7 -0.1 3 -0.2 2.9 -0.2 0 -1.8 -1 -3.5 -2.1z"/>
  <path d="M539 227 c0 -2.4 3.5 -2.8 4.4 -0.4 0.9 2.3 0.8 2.4 -1.9 2.4 -1.8 0 -2.5 -0.5 -2.5 -2z"/>
 </g>
 <g fill="#71b2a3">
  <path d="M178.3 615.3 c14 -0.2 22.7 -0.7 22.7 -1.3 0 -0.6 -8.1 -1 -21.2 -1.1 -11.7 0 -20.8 -0.3 -20.1 -0.5 0.7 -0.3 0.9 -1.2 0.6 -2 -0.4 -1.2 2.7 -1.4 21.1 -1.4 l21.6 0 0 3.5 0 3.5 -23.7 -0.2 -23.8 -0.3 22.8 -0.2z"/>
 </g>
 <g fill="#ff7257">
  <path d="M607.7 667.8 l-6.7 -4.3 0 -15.5 c0 -21.1 0.9 -32 2.6 -32 0.8 0 1.4 0.7 1.4 1.6 0 1.1 0.6 1.5 1.8 1.2 0.9 -0.3 7.9 -1.8 15.4 -3.4 7.6 -1.6 13.8 -3.3 13.8 -3.9 0 -0.5 -6.4 -13.9 -14.2 -29.8 -12.9 -26.1 -14.3 -28.6 -15.1 -26.2 -1.7 5.1 -2.7 0.4 -2.8 -13.5 -0.2 -25.1 -1.1 -27.1 -14 -27.8 -5.5 -0.3 -7.2 -0.8 -8 -2.3 -0.8 -1.6 -0.6 -1.9 1.1 -1.9 1.1 0 2 -0.2 2 -0.4 0 -0.8 -15.2 -29.7 -15.5 -29.4 -0.1 0.2 -0.6 6.9 -1 15.1 -0.6 13 -0.5 14.7 0.9 14.7 0.9 0 1.6 0.8 1.6 2 0 2 -0.7 2 -98.3 2 l-98.3 0 -16.7 -10.9 -16.6 -11 -0.3 -6.3 -0.3 -6.3 -2.3 4.2 c-1.2 2.4 -2.5 4.3 -2.8 4.3 -0.3 0 -11.1 -7 -24.1 -15.5 l-23.4 -15.5 1.9 -3.3 c1.1 -1.7 4.5 -7.9 7.7 -13.7 8.5 -15.4 15.3 -25.5 18.6 -27.4 12.2 -7.2 58.5 -16 91.2 -17.3 11.1 -0.5 15 -1 15.4 -2 0.3 -0.7 0.9 -1.3 1.4 -1.3 1.6 0 1 5.2 -1.1 9.5 -2.9 5.9 -4.2 14 -3.5 21.5 1 10.5 1.1 10.5 5.3 7 4 -3.3 10 -4.1 12.1 -1.6 0.6 0.8 3.5 2.4 6.4 3.6 8.8 3.8 20.9 2.6 28.7 -3 4 -2.8 8 -2.5 12.8 1 l4.1 2.9 0.7 -4.5 c1.3 -8.8 0 -20.6 -2.9 -26.6 -3 -6 -3.5 -10.8 -1.3 -10.8 0.7 0 1.6 0.9 1.9 2 0.5 1.8 1.4 2 9.1 2 22.9 0 67.8 7 87.5 13.6 9.4 3.2 12.2 5.2 17 12.2 9 13.4 36.3 65.4 73.8 140.5 13.1 26.2 24.4 47.7 25 47.7 0.7 0 1.3 0.7 1.3 1.5 0 1 -1 1.5 -3.1 1.5 l-3.1 0 0.4 11.8 c0.5 13.8 2.7 20 10.2 28 4.4 4.7 6.3 9.8 3.2 8.6 -0.8 -0.3 -1.9 0.3 -2.6 1.5 -0.9 1.8 -0.8 2.1 0.9 2.1 1.4 0 1.9 0.5 1.5 1.5 -0.5 1.2 -2.6 1.5 -10.4 1.5 l-9.7 0 0.5 2.5 0.4 2.5 -37.4 0 -37.4 0 -6.7 -4.2z"/>
  <path d="M44 633 c0 -4.3 0.3 -5 2 -5 1.7 0 2 0.7 2 5 0 4.3 -0.3 5 -2 5 -1.7 0 -2 -0.7 -2 -5z"/>
 </g>
 <g fill="#9ab580">
  <path d="M197 669.1 c0 -2.7 -0.3 -3 -3.7 -3.3 l-3.8 -0.3 0 -7.5 0 -7.5 3.8 -0.3 c3.4 -0.3 3.7 -0.6 3.7 -3.3 l0 -2.9 -8 0 -8 0 0 -3 c0 -2.7 -0.3 -3 -3 -3 -2.9 0 -3 -0.1 -3 -5 0 -4.9 0.1 -5 3 -5 2.7 0 3 -0.3 3 -3 l0 -3 10 0 c8.2 0 10 -0.3 10 -1.5 0 -1 -1 -1.5 -3 -1.5 -2.3 0 -3 -0.4 -3 -2 0 -1.6 0.7 -2 3.1 -2 2 0 2.9 -0.4 2.7 -1.2 -0.4 -1 -5.7 -1.4 -20.4 -1.8 l-19.9 -0.5 -8.4 -53.8 -8.5 -53.8 15.8 -15.8 15.8 -15.8 3.5 1.2 c11.5 4 27.1 -11.6 23.2 -23.2 l-1.1 -3.5 15.3 -15.4 c8.5 -8.5 15.8 -15.4 16.3 -15.4 0.5 0 9.8 5.9 20.8 13.1 l19.8 13.2 0 21.6 c0.1 19.2 0.2 21.3 1.5 19.1 l1.4 -2.5 0.1 3.6 c0 2.7 -7.8 19.4 -33.1 70.5 -18.2 36.8 -34.5 70.9 -36.2 75.9 -4.2 12.5 -4.3 21.1 -0.3 27.9 1.7 2.9 4.5 5.8 7.2 7.5 2.4 1.4 4.4 3.4 4.4 4.4 0 1.5 -1.2 1.7 -10.5 1.7 l-10.5 0 0 -2.9z m-12.2 -191.8 c-1 -0.2 -2.8 -0.2 -4 0 -1.3 0.2 -0.5 0.4 1.7 0.4 2.2 0.1 3.2 -0.1 2.3 -0.4z"/>
  <path d="M362.8 292.9 c-2.9 -1.6 -2.1 -2.9 1.7 -2.9 3.7 0 4.9 2.2 1.9 3.4 -1.9 0.7 -1.5 0.8 -3.6 -0.5z"/>
  <path d="M542.7 293.3 c-2.9 -0.8 -1.6 -3.8 1.6 -3.6 2.1 0.1 2.7 -0.3 2.7 -1.8 0 -1.3 0.7 -1.9 2.4 -1.9 1.9 0 2.3 0.4 1.9 2 -0.5 2 -4.9 6.1 -6.2 5.9 -0.3 -0.1 -1.4 -0.3 -2.4 -0.6z"/>
  <path d="M357.6 285.3 c-1.9 -10.1 -1.9 -11.3 0.3 -11.3 1.3 0 2.1 0.6 2.1 1.8 0 0.9 0.3 4.1 0.6 7 0.6 4.3 0.4 5.2 -0.9 5.2 -0.9 0 -1.8 -1.2 -2.1 -2.7z"/>
  <path d="M549 282.5 c0 -1.3 0.5 -4.7 1.1 -7.5 0.9 -4.3 1.4 -5 3.4 -5 2.3 0 2.4 0.1 1.1 3.8 -0.7 2 -1.6 5.4 -2 7.5 -0.8 4.2 -3.6 5.2 -3.6 1.2z"/>
  <path d="M349.2 262.6 c-1.7 -3 -3.2 -5.7 -3.2 -6 0 -0.3 1.1 -0.6 2.5 -0.6 2 0 2.5 0.5 2.5 2.5 0 1.6 0.6 2.5 1.5 2.5 1 0 1.5 1.1 1.5 3.5 0 1.9 -0.3 3.5 -0.8 3.5 -0.4 0 -2.2 -2.4 -4 -5.4z"/>
  <path d="M561 255.5 c0 -1.9 0.5 -3.5 1 -3.5 0.6 0 1 -2.7 1 -6 0 -3.3 -0.4 -6 -1 -6 -0.5 0 -1 -1.1 -1 -2.5 0 -1.8 -0.5 -2.5 -2 -2.5 -1.3 0 -2 -0.7 -2 -2 0 -3 3.5 -2.5 5.8 0.8 4.6 6.5 5.2 14.2 1.7 21.6 -2.2 4.6 -3.5 4.6 -3.5 0.1z"/>
  <path d="M367.5 255.3 c-4.2 -1 -6.4 -7.3 -2.5 -7.3 1.3 0 2 0.7 2 2 0 1.6 0.7 2 3 2 2.3 0 3 0.4 3 2 0 2 -1.2 2.3 -5.5 1.3z"/>
  <path d="M533 254.1 c0 -1.4 0.6 -2.1 1.9 -2.1 1.1 0 2.3 -0.4 2.6 -1 1.1 -1.8 4.5 -1.1 4.5 0.9 0 2.4 -0.5 2.7 -5.3 3.6 -3.3 0.7 -3.7 0.5 -3.7 -1.4z"/>
  <path d="M403 253.5 c0 -1 -1 -1.5 -3 -1.5 -1.9 0 -3 -0.5 -3 -1.4 0 -0.8 -0.5 -1.6 -1.2 -1.8 -1.5 -0.5 -2.5 -12.8 -0.9 -12.8 0.6 0 1.1 -1.1 1.1 -2.5 0 -1.6 0.6 -2.5 1.5 -2.5 0.8 0 1.5 -0.6 1.5 -1.4 0 -2 2.3 -2.6 9.6 -2.6 6.1 0 6.4 0.1 6.4 2.4 0 2.3 -0.2 2.4 -3.4 1.4 -7.2 -2.2 -13.6 2.3 -13.6 9.8 0 7.5 7 12.9 13.5 10.4 2.2 -0.9 2.5 -0.7 2.5 1.5 0 2.4 -0.3 2.5 -5.5 2.5 -4.2 0 -5.5 -0.3 -5.5 -1.5z"/>
  <path d="M489 252.1 l0 -2.8 3.5 1.6 c4.5 2.1 4.5 4.1 0 4.1 -3.2 0 -3.5 -0.3 -3.5 -2.9z"/>
  <path d="M417.4 245.5 c2.4 -5.1 4.6 -5.9 4.6 -1.6 0 4.6 -1 6.1 -4 6.1 l-2.7 0 2.1 -4.5z"/>
  <path d="M505.4 247.8 c0.7 -1.3 1.6 -3.5 2 -5 0.4 -1.6 1.3 -2.8 2.1 -2.8 1.6 0 2 3.6 0.9 7.8 -0.5 1.6 -1.4 2.2 -3.5 2.2 -2.8 0 -2.9 -0.1 -1.5 -2.2z"/>
  <path d="M540 240 c0 -3.3 0.3 -4 2 -4 2.1 0 2.5 1.6 1.4 5.8 -1.1 3.9 -3.4 2.7 -3.4 -1.8z"/>
  <path d="M400.7 237.4 c-1.1 -1.2 1.3 -4.4 3.3 -4.4 1.1 0 2 0.5 2 1 0 0.6 -0.7 1 -1.5 1 -0.8 0 -1.5 0.7 -1.5 1.5 0 1.5 -1.2 2 -2.3 0.9z"/>
  <path d="M485 234.4 c0 -2.7 0.5 -3.7 2 -4.1 1.1 -0.3 2 -0.9 2 -1.4 0 -0.5 1.6 -0.9 3.5 -0.9 2.4 0 3.5 0.5 3.5 1.5 0 0.8 -0.7 1.5 -1.6 1.5 -0.9 0 -3.2 1.6 -5.1 3.5 -1.9 1.9 -3.7 3.5 -3.9 3.5 -0.2 0 -0.4 -1.6 -0.4 -3.6z"/>
  <path d="M489 237.2 c0 -1.4 2.3 -3.2 4.2 -3.2 1.7 0 1.7 0.1 0.1 2 -1.7 2 -4.3 2.7 -4.3 1.2z"/>
  <path d="M361.6 234.8 c-1.5 -5.9 -0.1 -9.8 3.6 -9.8 1.1 0 1.8 0.7 1.8 2 0 1.1 -0.4 2 -1 2 -0.5 0 -1 1.8 -1 4 0 4.5 -2.3 5.7 -3.4 1.8z"/>
  <path d="M540 228 c0 -3.2 0.9 -3.7 2.8 -1.8 1.9 1.9 1.5 4.8 -0.8 4.8 -1.6 0 -2 -0.7 -2 -3z"/>
 </g>
 <g fill="#fe8a4d">
  <path d="M210.8 669.1 c-2.8 -1.8 -5.7 -4.8 -7.5 -7.8 -2.6 -4.4 -2.8 -5.6 -2.8 -14.8 0.1 -8.5 0.6 -11.3 3.2 -19 4.5 -13.1 84.5 -173.4 86.5 -173.5 1.1 0 46.3 30 46.6 31 0.2 0.4 -2.4 6 -5.7 12.2 -3.4 6.3 -6.1 11.8 -6.1 12.1 0 0.4 0.9 0.7 2 0.7 1.2 0 1.7 0.5 1.4 1.4 -0.3 0.8 -2.9 1.5 -7.1 1.9 -7.8 0.8 -13.5 3.4 -14.4 6.8 -0.4 1.3 -0.8 9.8 -0.8 18.9 -0.1 12.3 -0.5 17.1 -1.6 19 -1.4 2.5 -1.4 2.5 -1.5 -1.5 -0.1 -3.8 -0.3 -3.5 -6.5 8.5 -8.5 16.3 -22.5 45.4 -22.5 46.6 0 0.5 6 2.1 13.3 3.6 7.2 1.6 14.2 3.1 15.5 3.4 1.6 0.5 2.2 0.2 2.2 -1 0 -0.9 0.6 -1.6 1.4 -1.6 1.1 0 1.5 4.4 2 22.3 0.4 12.2 0.9 24.8 1.2 28 l0.6 5.7 -47.4 0 -47.4 0 -4.6 -2.9z"/>
  <path d="M600 664 c0 -7.3 0.2 -8 2 -8 1.4 0 2 0.7 2 2.3 0 1.7 1.9 3.4 8.5 7.6 4.7 2.9 8.5 5.5 8.5 5.7 0 0.2 -4.7 0.4 -10.5 0.4 l-10.5 0 0 -8z"/>
  <path d="M702 665 c0 -0.5 1.6 -1 3.5 -1 1.9 0 3.5 0.5 3.5 1 0 0.6 -1.6 1 -3.5 1 -1.9 0 -3.5 -0.4 -3.5 -1z"/>
  <path d="M699.8 652 l-2.8 -3.5 2.6 -0.3 c3.3 -0.4 3.6 -0.1 3.2 3.9 l-0.3 3.4 -2.7 -3.5z"/>
  <path d="M694.6 642.8 c-0.8 -1.8 -1.7 -5.2 -2.1 -7.5 -0.6 -3.8 -0.4 -4.3 1.2 -4.3 1.4 0 2.1 1.2 3.1 5.3 1.5 6.5 1.5 9.7 0.1 9.7 -0.5 0 -1.6 -1.5 -2.3 -3.2z"/>
  <path d="M601 629.5 c0 -2.8 0.4 -3.5 2 -3.5 2.1 0 2.4 1 1.4 4.8 -1 3.6 -3.4 2.7 -3.4 -1.3z"/>
  <path d="M692 611 c0 -1.7 0.7 -2 4.5 -2 3.8 0 4.5 0.3 4.5 2 0 1.7 -0.7 2 -4.5 2 -3.8 0 -4.5 -0.3 -4.5 -2z"/>
  <path d="M355.8 513.3 c-14.9 -0.3 -17.8 -0.6 -17.8 -1.8 0 -0.8 0.7 -1.5 1.5 -1.5 1.2 0 1.5 -1.9 1.5 -11.5 l0 -11.4 18.2 11.9 c10 6.6 18.8 12 19.5 12 0.7 0 1.3 0.7 1.3 1.5 0 1.1 -0.9 1.4 -3.2 1.3 -1.8 -0.1 -11.3 -0.4 -21 -0.5z"/>
  <path d="M419 441.3 c0 -1.3 0.5 -2.3 1 -2.3 1.3 0 1.3 1.1 0 3 -0.8 1.2 -1 1.1 -1 -0.7z"/>
  <path d="M488.5 440 c-0.4 -0.6 -0.3 -3.5 0 -6.5 0.6 -4.6 1.1 -5.5 2.7 -5.5 2.1 0 2.1 0.5 0.2 10.3 -0.6 2.8 -1.8 3.5 -2.9 1.7z"/>
  <path d="M449.5 437.5 c-0.5 -0.2 -2.7 -0.6 -4.7 -1 -2.4 -0.4 -3.8 -1.1 -3.8 -2 0 -1.7 1.5 -1.8 8.4 -0.9 3.6 0.5 4.6 1.1 4.6 2.5 0 1.8 -1.8 2.3 -4.5 1.4z"/>
  <path d="M417.6 434.8 c-1 -3.8 -0.7 -4.8 1.4 -4.8 1.6 0 2 0.7 2 3.5 0 4 -2.4 4.9 -3.4 1.3z"/>
  <path d="M481.3 432.7 c-4.2 -2.8 -4.1 -3.7 0.2 -3.7 3.2 0 3.5 0.2 3.5 3 0 1.7 -0.1 3 -0.2 2.9 -0.2 0 -1.8 -1 -3.5 -2.2z"/>
  <path d="M434.3 431.5 l-2.8 -2.4 3.8 -0.1 c3.3 0 3.7 0.3 3.7 2.5 0 3.1 -1.1 3.2 -4.7 0z"/>
  <path d="M490 416.5 c0 -3.7 2.4 -5 3.2 -1.7 0.6 2.7 -0.2 5.2 -1.8 5.2 -0.9 0 -1.4 -1.1 -1.4 -3.5z"/>
  <path d="M416.4 411.3 c1.4 -8.2 1.8 -9.3 3.2 -9.3 1.6 0 1.7 1.5 0.8 8.4 -0.5 3.7 -1.1 4.6 -2.6 4.6 -1.8 0 -1.9 -0.5 -1.4 -3.7z"/>
 </g>
 <g fill="#fbed21">
  <path d="M174.8 476.3 c-1 -0.2 -1.8 -0.8 -1.8 -1.1 0 -0.4 6.9 -7.6 15.4 -16.1 l15.3 -15.3 1.3 5.1 c2.6 11.1 -3.1 22.3 -13.7 26.8 -3.1 1.2 -12.7 1.6 -16.5 0.6z"/>
 </g>
 <g fill="#b2b2b2">
  <path d="M685 670.5 c-0.7 -0.8 -1.9 -1.5 -2.6 -1.5 -0.8 0 -1.4 -0.7 -1.4 -1.5 0 -1.3 6 -1.5 48 -1.5 42 0 48 0.2 48 1.5 0 0.8 -0.6 1.5 -1.4 1.5 -0.7 0 -1.9 0.7 -2.6 1.5 -1.9 2.3 -86.1 2.3 -88 0z"/>
  <path d="M706.3 658.5 l-2.8 -2.4 3.8 -0.1 c3.3 0 3.7 0.3 3.7 2.5 0 3.1 -1.1 3.2 -4.7 0z"/>
  <path d="M304.6 611.8 c-0.3 -1.3 -0.6 -4.7 -0.6 -7.5 0 -4.6 0.3 -5.3 2 -5.3 1.8 0 2 0.7 2 7.5 0 5.7 -0.3 7.5 -1.4 7.5 -0.7 0 -1.6 -1 -2 -2.2z"/>
  <path d="M696 610 c3.6 -1.1 5 -1.1 5 0 0 0.6 -1.7 1 -3.7 0.9 -3.4 -0.1 -3.5 -0.2 -1.3 -0.9z"/>
  <path d="M602 594 c0 -7.3 0.2 -8 2 -8 1.8 0 2 0.7 2 5.8 0 7.1 -0.8 10.2 -2.6 10.2 -1.1 0 -1.4 -1.9 -1.4 -8z"/>
  <path d="M303.6 575.8 c-0.3 -1.3 -0.6 -5.6 -0.6 -9.5 0 -6.6 0.2 -7.3 2 -7.3 1.9 0 2 0.7 2 9.5 0 7.4 -0.3 9.5 -1.4 9.5 -0.7 0 -1.6 -1 -2 -2.2z"/>
  <path d="M603 553.5 c0 -4.8 0.2 -5.5 2 -5.5 1.6 0 2 0.7 2 3.3 0 4.7 -1 7.7 -2.6 7.7 -1 0 -1.4 -1.5 -1.4 -5.5z"/>
  <path d="M321 512 c0 -1.9 0.7 -2 12 -2 11.3 0 12 0.1 12 2 0 1.9 -0.7 2 -12 2 -11.3 0 -12 -0.1 -12 -2z"/>
  <path d="M565 512.6 c0 -1.9 3.2 -2.6 12 -2.6 8.8 0 12 0.7 12 2.6 0 1.1 -2.4 1.4 -12 1.4 -9.6 0 -12 -0.3 -12 -1.4z"/>
  <path d="M450.7 437.3 c-0.2 -0.5 -0.2 -4.1 0.1 -8 l0.4 -7.3 3.9 0 3.9 0 0 8 0 8 -3.9 0 c-2.2 0 -4.2 -0.3 -4.4 -0.7z"/>
  <path d="M462 364.6 c0 -1.3 2.8 -2.6 5.8 -2.6 0.6 0 1.2 0.9 1.2 2 0 1.6 -0.7 2 -3.5 2 -2.3 0 -3.5 -0.5 -3.5 -1.4z"/>
  <path d="M428 362 c0 -2.1 1 -2.4 4.8 -1.4 3.6 1 2.7 3.4 -1.3 3.4 -2.8 0 -3.5 -0.4 -3.5 -2z"/>
  <path d="M479 361.6 c0 -1.3 2.8 -2.6 5.8 -2.6 0.6 0 1.2 0.9 1.2 2 0 1.6 -0.7 2 -3.5 2 -2.3 0 -3.5 -0.5 -3.5 -1.4z"/>
  <path d="M463 330 c0 -1.6 0.7 -2 3.5 -2 4 0 4.9 2.4 1.3 3.4 -3.8 1 -4.8 0.7 -4.8 -1.4z"/>
  <path d="M435.3 329.5 c-4 -1.7 -4.3 -3.5 -0.5 -3.5 4.7 0 7.2 1.1 7.2 3.1 0 2.3 -2.2 2.4 -6.7 0.4z"/>
  <path d="M479 318 c0 -2.8 0.2 -3 2 -2 1.1 0.6 2 2 2 3 0 1.3 -0.7 2 -2 2 -1.6 0 -2 -0.7 -2 -3z"/>
  <path d="M466 317.6 c0 -1.3 2.8 -2.6 5.8 -2.6 0.6 0 1.2 0.9 1.2 2 0 1.6 -0.7 2 -3.5 2 -2.3 0 -3.5 -0.5 -3.5 -1.4z"/>
  <path d="M439.8 302.3 c-3.3 -0.8 -2 -3.3 1.7 -3.3 2.8 0 3.5 0.4 3.5 2 0 2 -1.4 2.3 -5.2 1.3z"/>
  <path d="M465 301 c0 -1.6 0.7 -2 3.5 -2 4 0 4.9 2.4 1.3 3.4 -3.8 1 -4.8 0.7 -4.8 -1.4z"/>
  <path d="M428 301.5 c-0.8 -0.2 -3.2 -0.6 -5.2 -1 -2.4 -0.4 -3.8 -1.1 -3.8 -2 0 -1.7 1.1 -1.8 8.8 -0.9 4.2 0.6 5.2 1 5.2 2.5 0 1.8 -1.2 2.1 -5 1.4z"/>
  <path d="M489 298 c0 -1.6 0.7 -2 3.5 -2 4 0 4.9 2.4 1.3 3.4 -3.8 1 -4.8 0.7 -4.8 -1.4z"/>
  <path d="M527 279.5 c0 -1.9 0.5 -3.5 1 -3.5 0.6 0 1 -0.7 1 -1.5 0 -0.9 0.9 -1.5 2.5 -1.5 1.4 0 2.5 0.4 2.5 0.8 0 1.1 -5.8 9.2 -6.5 9.2 -0.3 0 -0.5 -1.6 -0.5 -3.5z"/>
  <path d="M472.6 254.4 c-2.3 -2.2 -2 -5.4 0.4 -5.4 1.6 0 2 0.7 2 3.5 0 4 -0.2 4.1 -2.4 1.9z"/>
  <path d="M362.6 246.8 c-1 -3.8 -0.7 -4.8 1.4 -4.8 1.6 0 2 0.7 2 3.5 0 4 -2.4 4.9 -3.4 1.3z"/>
  <path d="M483 244.5 c0 -2.2 0.5 -3.5 1.3 -3.5 0.8 0 1.8 1.6 2.4 3.5 1.1 3.3 1 3.5 -1.3 3.5 -2.1 0 -2.4 -0.5 -2.4 -3.5z"/>
  <path d="M507.4 243.4 c0.3 -1.4 0.1 -3.6 -0.4 -5 -0.9 -2.1 -0.7 -2.4 1.5 -2.4 2.3 0 2.5 0.3 2.5 5 0 4.3 -0.3 5 -2 5 -1.6 0 -1.9 -0.5 -1.6 -2.6z"/>
  <path d="M394 240.5 c0 -2.2 0.5 -3.5 1.3 -3.5 0.7 0 1.7 -1.5 2.2 -3.2 0.8 -2.6 1.6 -3.4 4 -3.6 l3 -0.4 -2.7 2.1 c-2.8 2.3 -4.6 6.3 -4.3 9.9 0.1 1.5 -0.4 2.2 -1.7 2.2 -1.4 0 -1.8 -0.8 -1.8 -3.5z"/>
  <path d="M489.9 239.4 c-1.7 -2.1 0 -4.9 3.2 -4.9 2.7 0 3.7 2.8 1.9 5 -1.6 1.9 -3.4 1.9 -5.1 -0.1z"/>
  <path d="M401.1 238.1 c-1.3 -2.4 0.8 -5.5 3.4 -5 2.8 0.6 4.2 3.4 2.6 5.3 -1.8 2.2 -4.8 2 -6 -0.3z"/>
  <path d="M434.3 220.1 c-4.3 -2.1 -4.2 -4.1 0.2 -4.1 3.2 0 3.5 0.2 3.5 3 0 1.7 -0.1 2.9 -0.2 2.9 -0.2 -0.1 -1.8 -0.9 -3.5 -1.8z"/>
  <path d="M369.7 218.3 c-1.5 -1.5 -0.7 -4.3 1.3 -4.3 1.5 0 2 0.7 2 2.5 0 2.4 -1.8 3.4 -3.3 1.8z"/>
  <path d="M368.6 201.8 c-1 -3.8 -0.7 -4.8 1.4 -4.8 1.6 0 2 0.7 2 3.5 0 4 -2.4 4.9 -3.4 1.3z"/>
  <path d="M538 199.5 c0 -2.8 0.4 -3.5 2 -3.5 2.1 0 2.4 1 1.4 4.8 -1 3.6 -3.4 2.7 -3.4 -1.3z"/>
  <path d="M392 197.5 c0 -3.3 0.2 -3.5 3.5 -3.5 3.1 0 3.5 -0.3 3.5 -2.5 0 -1.4 -0.4 -2.5 -1 -2.5 -0.5 0 -1 -0.9 -1 -2 0 -2 1.5 -2.5 4.4 -1.4 2.8 1.1 1.8 5.1 -2.1 8.9 l-3.8 3.7 3.8 -0.7 c3.3 -0.7 3.7 -0.5 3.7 1.4 0 1.9 -0.6 2.1 -5.5 2.1 l-5.5 0 0 -3.5z"/>
  <path d="M407 198.6 c0 -1.3 2.8 -2.6 5.8 -2.6 0.6 0 1.2 0.9 1.2 2 0 1.6 -0.7 2 -3.5 2 -2.3 0 -3.5 -0.5 -3.5 -1.4z"/>
  <path d="M420 196.6 c0 -1.3 2.8 -2.6 5.8 -2.6 0.6 0 1.2 0.9 1.2 2 0 1.6 -0.7 2 -3.5 2 -2.3 0 -3.5 -0.5 -3.5 -1.4z"/>
  <path d="M434.2 193.8 c0.2 -1.3 1 -2.3 1.8 -2.3 0.8 0 1.6 1 1.8 2.3 0.3 1.7 -0.2 2.2 -1.8 2.2 -1.6 0 -2.1 -0.5 -1.8 -2.2z"/>
  <path d="M370 192 c0 -1.2 3.3 -3 5.4 -3 0.9 0 1.6 0.9 1.6 2 0 1.6 -0.7 2 -3.5 2 -1.9 0 -3.5 -0.4 -3.5 -1z"/>
  <path d="M476 190.1 c0 -1.2 0.5 -1.5 6.8 -4 l5.2 -2.1 0 2.5 c0 2 -0.5 2.5 -2.5 2.5 -1.4 0 -2.5 0.5 -2.5 1 0 0.6 -1.6 1 -3.5 1 -1.9 0 -3.5 -0.4 -3.5 -0.9z"/>
 </g>
 <g fill="#74c5e7">
  <path d="M34 617 c0 -2 0.6 -2 83.3 -1.9 45.7 0 82.6 0.3 82 0.6 -0.7 0.2 -1.3 1.1 -1.3 1.9 0 1.2 -11.9 1.4 -82 1.4 -81.3 0 -82 0 -82 -2z"/>
 </g>
 <g fill="#c7c796">
  <path d="M189 662.5 c0 -4 2.4 -4.9 3.4 -1.2 1 3.7 0.7 4.7 -1.4 4.7 -1.6 0 -2 -0.7 -2 -3.5z"/>
  <path d="M189 653.5 c0 -2.8 0.4 -3.5 2 -3.5 2.1 0 2.4 1 1.4 4.8 -1 3.6 -3.4 2.7 -3.4 -1.3z"/>
  <path d="M436.8 365.3 c-3 -0.3 -3.8 -0.8 -3.8 -2.4 0 -1.9 0.4 -2 4.3 -1.4 8.3 1.2 9.7 1.7 9.7 3.1 0 1.4 -1.9 1.5 -10.2 0.7z"/>
  <path d="M475 362.6 c0 -1.3 2.8 -2.6 5.8 -2.6 0.6 0 1.2 0.9 1.2 2 0 1.6 -0.7 2 -3.5 2 -2.3 0 -3.5 -0.5 -3.5 -1.4z"/>
  <path d="M423 360.1 c0 -1.4 0.5 -1.8 2 -1.4 1.1 0.3 2 1.2 2 1.9 0 0.8 -0.9 1.4 -2 1.4 -1.3 0 -2 -0.7 -2 -1.9z"/>
  <path d="M483 360.6 c0 -0.7 0.9 -1.6 2 -1.9 1.5 -0.4 2 0 2 1.4 0 1.2 -0.7 1.9 -2 1.9 -1.1 0 -2 -0.6 -2 -1.4z"/>
  <path d="M441.8 331.3 c-3.3 -0.8 -2 -3.3 1.7 -3.3 2.8 0 3.5 0.4 3.5 2 0 2 -1.4 2.3 -5.2 1.3z"/>
  <path d="M428.6 324.8 c-2.2 -3.1 -2 -3.8 0.9 -3.8 2.1 0 2.5 0.5 2.5 3 0 3.6 -1.3 3.8 -3.4 0.8z"/>
  <path d="M451 318 c0 -1.6 0.7 -2 3.5 -2 2.8 0 3.5 0.4 3.5 2 0 1.6 -0.7 2 -3.5 2 -2.8 0 -3.5 -0.4 -3.5 -2z"/>
  <path d="M436 317 c0 -2.1 1 -2.4 4.8 -1.4 3.6 1 2.7 3.4 -1.3 3.4 -2.8 0 -3.5 -0.4 -3.5 -2z"/>
  <path d="M467 317.6 c0 -1.3 2.8 -2.6 5.8 -2.6 0.6 0 1.2 0.9 1.2 2 0 1.6 -0.7 2 -3.5 2 -2.3 0 -3.5 -0.5 -3.5 -1.4z"/>
  <path d="M440.8 302.3 c-3.6 -0.9 -2 -3.3 2.2 -3.3 3.3 0 4 0.3 4 2 0 2 -2 2.4 -6.2 1.3z"/>
  <path d="M463 301 c0 -1.7 0.7 -2 4 -2 4.5 0 5.7 2.3 1.8 3.4 -4.2 1.1 -5.8 0.7 -5.8 -1.4z"/>
  <path d="M428.8 301.3 c-3.3 -0.8 -2 -3.3 1.7 -3.3 2.8 0 3.5 0.4 3.5 2 0 2 -1.4 2.3 -5.2 1.3z"/>
  <path d="M476 300.1 c0 -1.3 0.6 -2.1 1.8 -2.1 0.9 0 4.1 -0.3 7 -0.6 4.3 -0.6 5.2 -0.4 5.2 0.9 0 1.5 -1.2 2 -9.7 3.2 -3.9 0.6 -4.3 0.5 -4.3 -1.4z"/>
  <path d="M415.8 299.3 c-3.3 -0.8 -2 -3.3 1.7 -3.3 2.8 0 3.5 0.4 3.5 2 0 2 -1.4 2.3 -5.2 1.3z"/>
  <path d="M497 296 c0 -1.6 0.7 -2 3.5 -2 4 0 4.9 2.4 1.3 3.4 -3.8 1 -4.8 0.7 -4.8 -1.4z"/>
  <path d="M400.3 294.5 c-4.3 -1.8 -4.2 -3.5 0.2 -3.5 3.1 0 3.5 0.3 3.5 2.5 0 1.4 -0.1 2.5 -0.2 2.5 -0.2 -0.1 -1.8 -0.7 -3.5 -1.5z"/>
  <path d="M506 293.5 c0 -2.2 0.4 -2.5 3.6 -2.5 4.4 0 4.2 1.8 -0.4 3.7 -3.1 1.3 -3.2 1.2 -3.2 -1.2z"/>
  <path d="M360.3 290.7 c-1.2 -1.6 -2.5 -4.9 -2.8 -7.5 -1 -7.3 -2.1 -10.1 -8.2 -20.7 -6.5 -11.4 -7.6 -16.8 -4.9 -23.9 2.2 -5.6 4.8 -8 7.9 -7.2 3.9 0.9 5.4 9.6 1.7 9.6 -1.6 0 -2 -0.7 -2 -3 0 -4.2 -1.2 -3.7 -3.2 1.3 -2.2 5.1 -2.2 9.3 -0.3 12.7 0.8 1.4 1.4 3.5 1.5 4.8 0 1.3 0.6 2.2 1.5 2.2 0.8 0 1.5 0.7 1.5 1.5 0 0.8 0.4 1.5 0.9 1.5 1.3 0 5.8 11 6.6 16 0.3 2.5 1.1 5.7 1.6 7.1 0.6 1.5 0.9 4 0.7 5.5 l-0.3 2.9 -2.2 -2.8z"/>
  <path d="M541.6 292.2 c-0.9 -1.5 0.6 -5.2 2 -5.2 0.8 0 1.4 0.5 1.4 1.1 0 0.6 0.6 0.5 1.4 -0.3 0.7 -0.8 1.9 -4.4 2.5 -8.2 1.3 -7.3 3.8 -14.6 5.1 -14.6 0.4 0 1.1 -1.1 1.4 -2.5 0.4 -1.4 1.1 -2.5 1.6 -2.5 0.6 0 1 -0.6 1 -1.4 0 -0.8 0.6 -2.1 1.3 -2.8 2 -2 4 -9.4 3.4 -12 -0.4 -1.2 -1.6 -3.8 -2.7 -5.6 -1.5 -2.5 -2.5 -3.2 -3.8 -2.7 -4.3 1.8 -6.2 1.8 -6.2 -0.2 0 -3.1 6.2 -5.3 10.5 -3.7 2 0.8 5.1 6.8 6 11.6 0.9 5 -0.6 9.6 -7 20.7 -4.1 7.2 -5.9 11.7 -6.9 17 -1.7 9 -3.7 12.1 -7.6 12.1 -1.6 0 -3.1 -0.4 -3.4 -0.8z"/>
  <path d="M387 287 l-3.5 -2.9 3.8 -0.1 c3.5 0 3.7 0.2 3.7 3 0 1.7 -0.1 3 -0.3 3 -0.1 0 -1.8 -1.3 -3.7 -3z"/>
  <path d="M530 274.5 c0 -3.1 0.3 -3.5 2.6 -3.5 1.4 0 2.4 0.3 2.2 0.8 -3.5 7.3 -4.8 8 -4.8 2.7z"/>
  <path d="M375.4 272.5 c-1.9 -4.6 -1.8 -6.5 0.5 -6.5 2 0 3.1 2.5 3.1 7.3 0 3.8 -1.8 3.4 -3.6 -0.8z"/>
  <path d="M541.6 264.8 c-0.4 -1.6 0.1 -2.9 1.8 -4.3 1.3 -1.1 2.9 -3 3.5 -4.2 1.7 -3.4 3.1 -2.8 3.1 1.2 0 3.1 -0.3 3.5 -2.5 3.5 -2.1 0 -2.5 0.5 -2.5 3 0 3.6 -2.5 4.1 -3.4 0.8z"/>
  <path d="M360 264 c0 -0.5 -0.7 -1 -1.5 -1 -0.8 0 -1.5 -0.7 -1.5 -1.5 0 -0.8 -0.4 -1.5 -1 -1.5 -0.5 0 -1 -1.6 -1 -3.5 0 -4.4 2 -4.6 4 -0.2 0.8 1.8 2.9 3.9 4.7 4.7 4.4 2 4.2 4 -0.2 4 -1.9 0 -3.5 -0.4 -3.5 -1z"/>
  <path d="M367.7 255.3 c-3.2 -0.5 -4.1 -2.3 -5.2 -9.9 l-0.7 -5.1 3.6 -0.7 c2 -0.4 10.4 -3.8 18.8 -7.7 l15.2 -6.9 17.1 0.2 17 0.3 0.3 13.9 c0.2 9.3 -0.1 14.3 -0.9 15.2 -0.9 1.1 -6.7 1.4 -31.8 1.3 -16.8 -0.1 -31.9 -0.4 -33.4 -0.6z m45.3 -4.8 c4 -2.1 6 -5.3 6 -9.8 0 -3.1 -0.7 -4.6 -3.4 -7.3 -6.2 -6.2 -15.2 -3.9 -17.7 4.5 -1.5 4.9 0.8 10.2 5.4 12.5 4 2 6.1 2 9.7 0.1z"/>
  <path d="M401 237.2 c0 -2.1 2.4 -4.6 3.9 -4 0.5 0.1 -0.1 1.6 -1.5 3.1 -2.1 2.4 -2.4 2.5 -2.4 0.9z"/>
  <path d="M473 255 c-1.9 -1.2 -2.8 -24.6 -1 -27.9 1 -2 1.8 -2.1 25.5 -2.1 23.3 0 24.5 0.1 24.5 1.9 0 1.3 -1.7 2.6 -6 4.4 -4.3 1.9 -5.8 3 -5.4 4.1 0.7 1.8 0.9 1.7 15.8 -5.3 12.4 -5.8 15.1 -6.2 16.8 -2.6 1.6 3.6 -0.4 24.1 -2.6 26.4 -1.5 1.4 -5.6 1.6 -32.1 1.9 -29.2 0.3 -30.5 0.2 -30.5 -1.6 0 -1.1 1.3 -2.5 3.5 -3.5 1.9 -0.9 3.5 -2.3 3.5 -3.2 0 -1.9 0.1 -1.9 -5.2 0.5 -4.1 1.8 -4.4 2.2 -4 5 0.4 3.1 -0.3 3.6 -2.8 2z m30.9 -5.6 c7.7 -6.5 2.9 -18.4 -7.4 -18.4 -9.5 0.1 -13.8 10.2 -7.4 17.5 2.7 3 3.7 3.5 7.4 3.5 3.2 0 5.2 -0.7 7.4 -2.6z"/>
  <path d="M489.2 236.8 c0.6 -1.7 3.6 -3.4 4.4 -2.5 0.4 0.4 -0.1 1.4 -1.2 2.2 -2.3 1.8 -3.7 1.9 -3.2 0.3z"/>
  <path d="M462 251.5 c0 -4 2.4 -4.9 3.4 -1.2 1 3.7 0.7 4.7 -1.4 4.7 -1.6 0 -2 -0.7 -2 -3.5z"/>
  <path d="M353 246.5 c0 -4 2.4 -4.9 3.4 -1.2 1 3.7 0.7 4.7 -1.4 4.7 -1.6 0 -2 -0.7 -2 -3.5z"/>
  <path d="M445 239.5 c0 -0.8 1.4 -1.7 3.5 -2.1 4.7 -0.9 10.5 0.3 10.5 2.1 0 1.2 -1.5 1.5 -7 1.5 -5.5 0 -7 -0.3 -7 -1.5z"/>
  <path d="M362 235.3 c0 -1.6 -0.3 -3.7 -0.6 -4.9 -1.1 -4.2 1.8 -5.4 12.7 -5.4 8.8 0 9.9 0.2 9.9 1.8 -0.1 1.2 -3.1 3.2 -9.8 6.5 -5.3 2.6 -10.3 4.7 -10.9 4.7 -0.7 0 -1.3 -1.2 -1.3 -2.7z"/>
  <path d="M461.8 234.4 c-3 -1.6 -3.7 -3.4 -1.3 -3.4 1 0 1.5 -1.1 1.5 -3.5 0 -2.8 0.4 -3.5 2 -3.5 1.9 0 2 0.4 1.4 5.8 -0.4 3.1 -0.7 5.8 -0.8 5.9 -0.1 0.1 -1.3 -0.5 -2.8 -1.3z"/>
  <path d="M369.6 217.4 c-1.2 -3.2 -0.6 -5.4 1.4 -5.4 1.6 0 2 0.7 2 3.5 0 3.7 -2.2 4.9 -3.4 1.9z"/>
  <path d="M368.6 200.8 c-1 -3.8 -0.7 -4.8 1.4 -4.8 1.6 0 2 0.7 2 3.5 0 4 -2.4 4.9 -3.4 1.3z"/>
  <path d="M436 199.5 c0 -1.9 0.5 -3.5 1 -3.5 0.6 0 1 0.9 1 1.9 0 1.8 0.3 1.8 5.3 0.5 6.8 -1.8 7.7 -1.8 7.7 0.4 0 1.4 -1.3 2.1 -5.1 3 -8.7 2 -9.9 1.7 -9.9 -2.3z"/>
  <path d="M518 200.6 c0 -0.7 1 -1.6 2.3 -2 4.1 -1.1 5.7 -0.7 5.7 1.4 0 1.7 -0.7 2 -4 2 -2.7 0 -4 -0.4 -4 -1.4z"/>
  <path d="M538 199 c0 -1.8 0.6 -3.3 1.5 -3.7 2.3 -0.8 2.8 0.1 2 3.6 -0.9 4.1 -3.5 4.1 -3.5 0.1z"/>
  <path d="M397 199.6 c0 -1.3 2.8 -2.6 5.8 -2.6 0.6 0 1.2 0.9 1.2 2 0 1.6 -0.7 2 -3.5 2 -2.3 0 -3.5 -0.5 -3.5 -1.4z"/>
  <path d="M528 199.6 c0 -1.3 2.8 -2.6 5.8 -2.6 0.6 0 1.2 0.9 1.2 2 0 1.6 -0.7 2 -3.5 2 -2.3 0 -3.5 -0.5 -3.5 -1.4z"/>
  <path d="M415 197.6 c0 -1.3 2.8 -2.6 5.8 -2.6 0.6 0 1.2 0.9 1.2 2 0 1.6 -0.7 2 -3.5 2 -2.3 0 -3.5 -0.5 -3.5 -1.4z"/>
  <path d="M455 196.6 c0 -1.3 2.8 -2.6 5.8 -2.6 0.6 0 1.2 0.9 1.2 2 0 1.6 -0.7 2 -3.5 2 -2.3 0 -3.5 -0.5 -3.5 -1.4z"/>
  <path d="M425 195.6 c0 -1.3 2.8 -2.6 5.8 -2.6 0.6 0 1.2 0.9 1.2 2 0 1.6 -0.7 2 -3.5 2 -2.3 0 -3.5 -0.5 -3.5 -1.4z"/>
  <path d="M368 193.1 c0 -1 0.9 -2.1 2 -2.4 1.6 -0.4 2 0 2 1.9 0 1.7 -0.6 2.4 -2 2.4 -1.3 0 -2 -0.7 -2 -1.9z"/>
  <path d="M465 193.7 c0 -0.7 2.9 -2.2 6.5 -3.4 l6.5 -2.1 0 2.2 c0 1.8 -0.9 2.5 -3.9 3.4 -5.1 1.6 -9.1 1.5 -9.1 -0.1z"/>
  <path d="M386 187.6 c0 -1.3 2.8 -2.6 5.8 -2.6 0.6 0 1.2 0.9 1.2 2 0 1.6 -0.7 2 -3.5 2 -2.3 0 -3.5 -0.5 -3.5 -1.4z"/>
 </g>
 <g fill="#d3d3ac">
  <path d="M189 663 c0 -2 0.5 -3 1.5 -3 0.8 0 1.5 0.3 1.5 0.8 0 0.4 0.3 1.7 0.6 3 0.5 1.8 0.2 2.2 -1.5 2.2 -1.7 0 -2.1 -0.6 -2.1 -3z"/>
  <path d="M189 655 c0 -0.7 -27.3 -1 -80 -1 -79.3 0 -80 0 -80 -2 0 -2 0.7 -2 82 -2 45.1 0 82 0.3 82 0.8 -0.1 2.4 -1.4 5.2 -2.6 5.2 -0.8 0 -1.4 -0.4 -1.4 -1z"/>
  <path d="M194 617.5 c0 -0.8 0.9 -1.5 2 -1.5 1.1 0 2 0.7 2 1.5 0 0.8 -0.9 1.5 -2 1.5 -1.1 0 -2 -0.7 -2 -1.5z"/>
  <path d="M473.2 254.8 c-0.7 -0.7 -1.2 -2.6 -1.2 -4.4 0 -3 0.5 -3.4 6.6 -6.3 7.8 -3.6 7.4 -3.6 7.4 -1.3 0 0.9 0.9 3.2 2 4.9 l2 3.3 -5 2.5 c-5.3 2.7 -9.9 3.2 -11.8 1.3z"/>
  <path d="M497.1 255.6 c0.9 -0.9 41.9 -19.4 44.3 -20 1.5 -0.4 2.6 -0.2 2.6 0.3 0 2.7 -37.7 20.1 -43.5 20.1 -2.1 0 -3.6 -0.2 -3.4 -0.4z"/>
  <path d="M365 254 c-1.2 -0.7 -1.1 -1 0.5 -1.6 1.1 -0.4 7 -3 13 -5.9 6.1 -2.9 12.7 -6 14.8 -6.9 3.7 -1.5 3.8 -1.5 3.5 0.5 -0.2 1.5 -3.2 3.3 -11.3 7 -6 2.8 -12.1 5.5 -13.5 5.9 -1.4 0.4 -3.2 1.1 -4 1.4 -0.8 0.3 -2.2 0.2 -3 -0.4z"/>
  <path d="M362.4 242.5 c-1.2 -6.7 -0.6 -7.5 9.6 -12.7 l9.5 -4.9 13.2 0.3 13.3 0.3 -18.8 8.3 c-10.3 4.6 -20.4 9.2 -22.4 10.2 l-3.7 1.8 -0.7 -3.3z"/>
  <path d="M508 240.8 c0 -1.1 -0.9 -3.5 -2 -5.3 l-2 -3.2 8.3 -3.7 c7.8 -3.4 8.7 -3.6 19 -3.6 5.9 0 10.7 0.4 10.7 0.8 0 1.2 -5.7 4.2 -20.7 11.1 -12.2 5.5 -13.3 5.8 -13.3 3.9z"/>
  <path d="M414.6 231.8 c-1.7 -0.9 -1.1 -1.4 4.4 -3.9 3.4 -1.6 7.9 -2.9 9.9 -2.9 l3.6 0.1 -5 2.6 c-8.8 4.6 -10.9 5.2 -12.9 4.1z"/>
 </g>
 <g fill="#cbcbcb">
  <path d="M777 666.6 c0 -2 0.5 -2.6 2.1 -2.6 1.5 0 2 0.5 1.7 2.2 -0.5 3.4 -3.8 3.7 -3.8 0.4z"/>
  <path d="M306 663 c0 -4.3 0.3 -5 2 -5 1.7 0 2 0.7 2 5 0 4.3 -0.3 5 -2 5 -1.7 0 -2 -0.7 -2 -5z"/>
  <path d="M711 665.5 c0 -0.8 0.8 -1.5 1.8 -1.5 1.6 -0.1 1.6 -0.1 0 -1.4 -2.6 -2 -2.2 -2.6 1.7 -2.6 3.3 0 3.5 0.2 3.5 3.5 0 3.3 -0.2 3.5 -3.5 3.5 -2.4 0 -3.5 -0.5 -3.5 -1.5z"/>
  <path d="M740 663.6 c0 -3.5 1.3 -4.6 5.1 -4.6 1 0 1.9 -0.7 1.9 -1.5 0 -1.1 1.1 -1.5 3.6 -1.5 4.3 0 3.8 1.1 -2.4 5 -4.4 2.8 -4.5 3 -1.9 3 1.5 0 2.7 0.4 2.7 0.9 0 1.2 -2.6 2.1 -6.1 2.1 -2.6 0 -2.9 -0.3 -2.9 -3.4z"/>
  <path d="M600 655.5 c0 -5.9 0.2 -6.5 2 -6.5 1.9 0 2.1 0.6 1.9 6.5 -0.2 5.6 -0.4 6.5 -2 6.5 -1.7 0 -1.9 -0.8 -1.9 -6.5z"/>
  <path d="M706 658 l-3.5 -2.9 3.8 -0.1 c3.5 0 3.7 0.2 3.7 3 0 1.7 -0.1 3 -0.3 3 -0.1 0 -1.8 -1.3 -3.7 -3z"/>
  <path d="M755 651.8 c0 -2.1 0.5 -3.8 1 -3.8 0.6 0 1 -0.7 1 -1.5 0 -1.2 1.3 -1.5 5.5 -1.5 3 0 5.5 -0.4 5.5 -1 0 -0.5 -1.6 -1 -3.5 -1 -3.9 0 -4.1 -0.7 -2.9 -8.2 0.5 -2.9 1.1 -3.8 2.7 -3.8 1.7 0 1.9 0.5 1.3 3.9 -0.3 2.2 -0.9 4.6 -1.2 5.5 -0.5 1.3 0.1 1.6 2.9 1.6 4.4 0 8.2 -4.1 9.8 -10.6 0.7 -2.5 1.7 -4.4 2.5 -4.4 0.8 0 1.4 -0.4 1.4 -1 0 -0.5 -0.7 -1 -1.5 -1 -0.8 0 -1.5 -0.6 -1.5 -1.3 0 -0.7 -0.6 -2.1 -1.3 -3.1 -1.6 -2.2 -6.9 -1.4 -9.8 1.5 -1.9 1.9 -1.9 1.8 -1.9 -3.6 l0 -5.5 -35 0 c-29.1 0 -35 -0.2 -35 -1.4 0 -0.7 1 -1.6 2.3 -2 1.2 -0.3 17.2 -0.6 35.5 -0.6 l33.2 0 0 2.6 c0 2.1 0.4 2.5 1.8 1.9 0.9 -0.4 3.4 -0.9 5.4 -1.2 12.9 -1.9 16 19.3 4.7 32 -3.6 4.1 -3.8 4.2 -10.3 4.3 -6.3 0.1 -6.9 0.3 -9.6 3.5 l-2.9 3.4 -0.1 -3.7z"/>
  <path d="M698.1 649.4 c-2.7 -3.5 -2.6 -4.4 0.4 -4.4 2.2 0 2.5 0.4 2.5 3.5 0 1.9 -0.2 3.5 -0.4 3.5 -0.3 0 -1.4 -1.2 -2.5 -2.6z"/>
  <path d="M305 633.5 c0 -4.8 0.2 -5.5 2 -5.5 1.8 0 2 0.7 2 5.5 0 4.8 -0.2 5.5 -2 5.5 -1.8 0 -2 -0.7 -2 -5.5z"/>
  <path d="M601 623 c0 -8.3 0.1 -9 2 -9 1.8 0 2 0.7 2 6.8 0 8 -0.8 11.2 -2.6 11.2 -1.1 0 -1.4 -2 -1.4 -9z"/>
  <path d="M432 611.2 c-4 -3.9 -4 -4 -4 -11.8 0 -9.1 1.9 -13.3 6.9 -15.5 2.7 -1.2 3.1 -1.9 3.1 -5.2 0 -5.2 3.2 -10.9 7.2 -13.1 2.7 -1.5 5 -1.8 11.2 -1.4 7.5 0.3 7.9 0.5 11.2 4.1 3 3.2 3.4 4.3 3.4 9.1 0 4.8 0.3 5.4 2.3 6 1.2 0.3 3.6 1.9 5.2 3.6 2.7 2.8 3 3.9 3.3 10.8 0.5 13.4 -4.2 17.8 -18.2 16.8 -4.5 -0.3 -8.5 -0.5 -9.1 -0.5 -0.5 0 -5 0.3 -9.8 0.6 l-8.8 0.4 -3.9 -3.9z m41 -12.7 c0 -0.7 -0.4 -1.7 -1 -2 -0.6 -0.3 -1 0.4 -1 1.8 0 1.3 -0.9 3.7 -2.1 5.3 -1.9 2.6 -1.8 2.5 1 -0.4 1.7 -1.8 3.1 -3.9 3.1 -4.7z m-33.2 2.8 c-1.6 -3.8 -2.8 -5.1 -2.8 -3 0 2 2.1 5.7 3.2 5.7 0.4 0 0.2 -1.2 -0.4 -2.7z m18.2 -26.8 c-1.6 -1.9 -4.1 -1.9 -6.6 0 -1.8 1.3 -1.5 1.4 3 1.5 4.2 0 4.7 -0.2 3.6 -1.5z"/>
  <path d="M304.6 602.8 c-0.3 -1.3 -0.6 -4 -0.6 -6 0 -3.1 0.4 -3.8 2 -3.8 1.8 0 2 0.7 2 6 0 4.4 -0.4 6 -1.4 6 -0.7 0 -1.6 -1 -2 -2.2z"/>
  <path d="M602 586 c0 -5.3 0.2 -6 2 -6 1.6 0 2 0.7 2 3.8 0 5.2 -1 8.2 -2.6 8.2 -1 0 -1.4 -1.6 -1.4 -6z"/>
  <path d="M303.6 562.8 c-0.3 -1.3 -0.6 -5.1 -0.6 -8.5 0 -5.6 0.2 -6.3 2 -6.3 1.8 0 2 0.7 2 8.5 0 6.6 -0.3 8.5 -1.4 8.5 -0.7 0 -1.6 -1 -2 -2.2z"/>
  <path d="M602.8 537.3 l-0.3 -16.7 -3.5 -2 c-3.5 -2.1 -4.1 -2.1 -144 -2.1 -139.8 0 -140.5 0 -144 2 -2.4 1.5 -3.6 2.9 -3.8 4.8 -0.2 1.9 -0.9 2.7 -2.3 2.7 -1.5 0 -1.9 -0.7 -1.8 -3.2 0.2 -5.9 1.3 -8.1 5.4 -10.2 4 -2.1 4.1 -2.1 146.5 -1.7 148.8 0.3 146.4 0.2 149.9 4.4 0.9 1.2 1.5 6.1 1.9 16.5 0.5 16.3 -0.1 22.2 -2.3 22.2 -1.2 0 -1.5 -3 -1.7 -16.7z"/>
  <path d="M418.7 439.4 c-2 -10 -2 -10.4 0.2 -10.4 1.4 0 2.1 0.6 2.1 1.9 0 1 0.3 3.1 0.6 4.7 0.3 1.8 0 3.7 -0.9 4.8 -1.4 1.9 -1.5 1.9 -2 -1z"/>
  <path d="M488.6 440.4 c-0.9 -2.2 -0.8 -2.4 0.9 -2.4 0.8 0 1.5 0.9 1.5 2 0 2.4 -1.5 2.7 -2.4 0.4z"/>
  <path d="M446 436.6 c-6 -1.3 -8 -2.2 -8 -3.7 0 -1.2 4.6 -1.2 8.7 0 l3.2 0.9 0.3 -6.1 0.3 -6.2 4.3 -0.3 4.2 -0.3 0 3.5 c0 2 -0.4 3.6 -1 3.6 -0.5 0 -1 1.4 -1 3.1 l0 3 4.7 -0.7 c2.6 -0.4 5.3 -1.3 6.1 -2 0.7 -0.8 1.9 -1.4 2.7 -1.4 0.7 0 1.5 -0.7 1.9 -1.5 0.4 -1 2 -1.5 5.1 -1.5 4.1 0 4.5 0.2 4.5 2.5 0 2.7 -0.6 3 -2.9 1.6 -1 -0.7 -2.4 -0.3 -4.2 1 -3.4 2.4 -8.9 4.4 -14.6 5.3 l-4.3 0.6 0 -6.5 c0 -8.3 -1.8 -8.5 -2.2 -0.3 -0.2 3.4 -0.7 6.2 -1.3 6.4 -0.5 0.1 -3.5 -0.3 -6.5 -1z"/>
  <path d="M426 431 c0 -2.8 0.3 -3 3.5 -3 4.4 0 4.4 0.9 0 3.8 l-3.5 2.2 0 -3z"/>
  <path d="M489 430.5 c0 -2.8 0.4 -3.5 2 -3.5 2.1 0 2.4 1 1.4 4.8 -1 3.6 -3.4 2.7 -3.4 -1.3z"/>
  <path d="M416.6 425.8 c-1.1 -4.2 -0.7 -5.8 1.4 -5.8 1.7 0 2 0.7 2 4 0 4.5 -2.3 5.7 -3.4 1.8z"/>
  <path d="M416 415.3 c0 -3.4 1.2 -6.3 2.6 -6.3 1 0 1.4 1.3 1.4 4 0 3.3 -0.3 4 -2 4 -1.2 0 -2 -0.7 -2 -1.7z"/>
  <path d="M489 407.5 c0 -4 2.4 -4.9 3.4 -1.2 1 3.7 0.7 4.7 -1.4 4.7 -1.6 0 -2 -0.7 -2 -3.5z"/>
  <path d="M418.9 400.8 c1.7 -4.4 4.6 -8.8 5.9 -8.8 0.7 0 1.2 1.4 1.2 3.5 0 1.9 -0.4 3.5 -0.9 3.5 -0.5 0 -1.3 0.9 -1.6 2 -0.4 1.3 -1.5 2 -3 2 -2.1 0 -2.3 -0.3 -1.6 -2.2z"/>
  <path d="M402.2 239.1 c-1.8 -1.1 -1.2 -4.1 1.1 -5.5 2.5 -1.5 5.1 1.8 3.6 4.5 -1 2 -2.6 2.4 -4.7 1z"/>
  <path d="M490.4 239.1 c0.4 -0.5 0 -1.1 -0.6 -1.4 -1 -0.3 -1 -0.7 0.1 -2 1.6 -2.1 3.5 -2.2 5 -0.3 1.7 2 0.2 4.6 -2.6 4.6 -1.3 0 -2.2 -0.4 -1.9 -0.9z"/>
 </g>
 <g fill="#fbd69d">
  <path d="M306.6 669.5 c-0.8 -3.3 0.3 -7.5 2 -7.5 1 0 1.4 1.4 1.4 5 0 5.5 -2.3 7.1 -3.4 2.5z"/>
  <path d="M600 661 c0 -4.3 2.3 -5.7 3.3 -2 0.7 2.8 -0.3 6 -1.9 6 -1 0 -1.4 -1.3 -1.4 -4z"/>
  <path d="M305.5 642 c-0.9 -4 0.3 -9 2.1 -9 1 0 1.4 1.5 1.4 6 0 4.5 -0.4 6 -1.4 6 -0.8 0 -1.7 -1.3 -2.1 -3z"/>
  <path d="M303.7 521.1 c-0.3 -1.2 0.3 -2.7 1.4 -3.7 1.8 -1.6 1.9 -1.6 1.9 1.9 0 4 -2.4 5.2 -3.3 1.8z"/>
  <path d="M309.5 514.9 c1.1 -0.7 5.6 -1.4 10 -1.5 l8 -0.2 -6.5 0.7 c-3.6 0.4 -8.1 1.1 -10 1.5 -3 0.6 -3.2 0.6 -1.5 -0.5z"/>
  <path d="M348.8 513.3 c5.6 -0.2 14.8 -0.2 20.5 0 5.6 0.1 1 0.3 -10.3 0.3 -11.3 0 -15.9 -0.2 -10.2 -0.3z"/>
  <path d="M317.8 510.3 c1.2 -0.2 3.2 -0.2 4.5 0 1.2 0.2 0.2 0.4 -2.3 0.4 -2.5 0 -3.5 -0.2 -2.2 -0.4z"/>
  <path d="M350.3 510.3 c4.8 -0.2 12.6 -0.2 17.5 0 4.8 0.1 0.8 0.3 -8.8 0.3 -9.6 0 -13.6 -0.2 -8.7 -0.3z"/>
  <path d="M444 426.1 c-9.4 -2.9 -16.8 -9.4 -21.1 -18.5 -3.3 -6.9 -3.5 -8.8 -1.5 -10.9 1.1 -1.1 1.5 -5.3 1.6 -19.2 0 -9.9 0.3 -18.1 0.5 -18.3 0.2 -0.2 3.7 0.4 7.7 1.3 14.5 3.4 33.7 3 53.1 -1.1 l2.7 -0.6 0 17.5 c0 14.2 0.3 18.1 1.6 20.4 1.5 2.6 1.5 3.2 -0.6 8.5 -4.2 11.3 -15.4 20.4 -26.6 21.5 -4.6 0.5 -5.4 0.3 -5.4 -1.1 0 -2 -1.9 -2.1 -2.6 -0.1 -0.7 1.6 -5.1 1.9 -9.4 0.6z"/>
  <path d="M439.5 330.5 c-2.7 -0.8 -5.3 -1.4 -5.7 -1.5 -0.3 0 -2 -1.4 -3.7 -3.1 -3.8 -3.8 -4.2 -8.4 -0.8 -10 1.4 -0.6 6.3 -0.7 13.7 -0.2 6.3 0.4 16.7 0.5 23 0 13.7 -0.9 15.8 -0.5 16.6 2.9 0.9 3.6 -2 7.3 -8.1 10.4 -4.4 2.1 -6.5 2.5 -17.5 2.7 -8.6 0.2 -14 -0.2 -17.5 -1.2z"/>
  <path d="M434.7 301.9 c-26.5 -2.5 -46.1 -10.4 -55.1 -22.2 -3 -3.9 -5.6 -10.8 -5.6 -14.8 l0 -2.9 29.9 0 c16.5 0 30.7 -0.3 31.6 -0.6 2.8 -1.1 4.5 -6 4.5 -13.3 0 -6.5 0.2 -7.2 2.6 -8.8 3.6 -2.3 14.7 -2.3 19.2 0 2.9 1.6 3.2 2.2 3.2 6.5 0.1 6.9 1.6 12.5 4.1 14.5 1.9 1.5 5.2 1.7 34.5 1.7 l32.4 0 0 3.3 c0 4.4 -5 14.4 -9.2 18.4 -8.2 7.9 -22.7 13.9 -40.8 16.8 -12 1.9 -38.5 2.7 -51.3 1.4z"/>
  <path d="M360.4 290.5 c-0.9 -1.4 -2.2 -5.7 -3 -9.6 -0.7 -3.9 -2.7 -9.5 -4.4 -12.5 -1.6 -3 -4.5 -8 -6.2 -11.1 -2.6 -4.6 -3.2 -6.9 -3.2 -11.3 0 -6.8 3.3 -13.7 6.9 -14.6 3.6 -0.9 4.2 0 5 6.8 1.5 13.9 2.6 18.7 5.2 21.3 1.4 1.4 3.6 2.5 4.9 2.5 l2.4 0 0 15.5 0 15.5 -3 0 c-2 0 -3.5 -0.8 -4.6 -2.5z"/>
  <path d="M541.8 277.8 l-0.3 -15.3 2.8 -2.5 c2.3 -2 3.1 -4 4.2 -10.5 0.8 -4.4 1.4 -9.7 1.5 -11.8 0 -3.4 0.4 -4 3.7 -5.3 2.7 -1.2 4.2 -1.3 5.9 -0.5 3.4 1.5 6.4 8.1 6.4 14.1 0 5.5 -1.2 8.5 -7.9 19.7 -3 5.1 -4.7 9.4 -5.8 15.2 -1.7 8.7 -3.9 12.1 -7.8 12.1 l-2.4 0 -0.3 -15.2z"/>
  <path d="M461.5 234.1 c-4.5 -2.2 -13.4 -2.6 -17.8 -0.8 l-3.7 1.6 0 -4.9 c0 -3.8 -0.6 -5.5 -2.6 -7.9 l-2.6 -3.1 -32.3 0 -32.4 0 -0.5 -4.2 c-0.3 -2.4 -0.7 -8.6 -0.8 -13.8 l-0.3 -9.5 6.5 -2.3 c12.9 -4.6 28 -5.4 28 -1.4 -0.1 2.7 -2.4 6.2 -5.6 8.3 -3.6 2.3 -3.2 2.4 12.6 0.4 12 -1.4 18.8 -2.7 23.5 -4.5 3.4 -1.3 4.5 -0.1 4.5 4.8 0 2.7 0.3 3.2 1.8 2.8 0.9 -0.2 8.5 -2.3 16.7 -4.6 8.3 -2.3 18.8 -5.7 23.4 -7.6 4.7 -1.9 9 -3.4 9.6 -3.4 1.4 0 7.9 6.7 9.5 9.8 0.6 1.3 0.9 3.1 0.6 3.9 -0.6 1.4 1 1.5 15.1 1.1 11.7 -0.5 17.3 -1.1 21.4 -2.5 l5.5 -1.9 -0.4 11.1 c-0.2 6 -0.5 11.6 -0.7 12.3 -0.3 0.9 -8.1 1.2 -34.5 1.2 -21.4 0 -34.8 0.4 -36 1 -2.7 1.5 -4.2 4.7 -4.9 10.5 l-0.6 5 -3 -1.4z"/>
 </g>
 <g fill="#e1e1e1">
  <path d="M306.6 661.3 c-1 -17.4 -2.6 -82.5 -2.9 -113.6 l-0.2 -28.9 2.3 -1.9 c1.3 -1 4.1 -2.3 6.2 -2.9 2.5 -0.7 50.8 -0.9 145.2 -0.8 140.5 0.3 141.3 0.3 144.8 2.4 l3.5 2 0.3 23.5 c0.1 12.8 -0.4 46.4 -1.3 74.4 -0.8 28.1 -1.5 52.2 -1.5 53.8 l0 2.7 -147.9 0 -147.9 0 -0.6 -10.7z m145.3 -51.4 c3.1 -1.9 3.4 -1.9 5.2 -0.3 2.7 2.5 10.8 3 14.8 1 7.6 -4 9.4 -14.6 3.5 -20.7 -1.6 -1.6 -3.9 -3.2 -5.1 -3.5 -2 -0.6 -2.3 -1.2 -2.3 -6 0 -4.7 -0.4 -5.9 -3.3 -9 -2.8 -3.1 -4.2 -3.7 -8.4 -4.1 -4.1 -0.4 -5.9 -0.1 -8.6 1.6 -4.2 2.5 -7.2 8.8 -6.4 13 0.6 2.7 0.3 3.2 -2.9 4.7 -4.9 2.3 -7.4 6.7 -7.4 12.8 0 4.3 0.4 5.3 3.9 8.7 3.4 3.5 4.4 3.9 8.7 3.9 3.2 0 6.1 -0.7 8.3 -2.1z"/>
  <path d="M439.3 608.4 c-4.5 -2.3 -6.9 -7.6 -5.4 -12.4 1.1 -3.8 3.2 -6.2 6.4 -7.3 1.4 -0.5 1.6 -0.2 1.1 1.9 -1.1 4.4 2.2 11.1 6.9 13.8 l4.1 2.5 -3.6 1.6 c-4.6 1.9 -5.5 1.9 -9.5 -0.1z"/>
  <path d="M460.5 608.4 c-2.8 -1.6 -2.9 -1.8 -1 -2.8 1.1 -0.6 3.4 -2.5 5.2 -4.2 2.9 -2.8 3.3 -3.8 3.3 -8.3 0 -5 0.1 -5.1 2.3 -4 3.8 1.9 5.7 5.1 5.7 9.6 0 8.3 -8.5 13.6 -15.5 9.7z"/>
  <path d="M448.7 601.9 c-2.3 -1.3 -4.7 -6.2 -4.7 -9.4 0 -3 -0.1 -3 4.6 -0.2 3.7 2.1 3.9 2.5 3.6 6.5 -0.3 4.4 -0.7 4.7 -3.5 3.1z"/>
  <path d="M457.5 598.5 c0.1 -4.2 0.3 -4.6 4 -6.5 2.2 -1.1 4.1 -2 4.3 -2 1.5 0 -1.2 7.8 -3.4 10.2 -3.8 3.9 -4.9 3.5 -4.9 -1.7z"/>
  <path d="M452.1 588 c-1.3 -1.1 -3.1 -2 -4 -2 -3.6 -0.1 3.1 -4 6.8 -4 3.3 0 8.4 2.3 7.1 3.2 -0.3 0.2 -1.9 1.3 -3.7 2.6 -3.8 2.6 -3.2 2.6 -6.2 0.2z"/>
  <path d="M444 580.5 c0 -6.6 6.7 -12.3 12.8 -10.9 3.9 0.9 8.1 5.2 8.8 9.1 0.4 1.9 0.4 3.6 0.2 3.8 -0.2 0.3 -2.2 -0.4 -4.3 -1.5 -5 -2.5 -9.1 -2.5 -13.3 0 -4.1 2.5 -4.2 2.5 -4.2 -0.5z"/>
  <path d="M678 666.5 l0 -2.5 18.8 0 c17.7 -0.1 18.5 -0.2 15.7 -1.7 -9.3 -4.9 -16.3 -13.7 -19 -23.8 -2.1 -8.2 -2 -10.5 0.5 -10.5 1.5 0 2 0.7 2 2.8 0 3.3 4 15.2 5.2 15.2 0.4 0 0.8 0.5 0.8 1 0 0.6 1.6 2.5 3.5 4.3 1.9 1.7 3.5 3.8 3.5 4.4 0 0.7 0.7 1.3 1.5 1.3 0.9 0 3.4 0.9 5.7 2.1 3.6 1.8 5.5 2.1 14.8 1.7 8.5 -0.2 11 -0.7 12.4 -2.1 1 -0.9 2.3 -1.7 2.9 -1.7 0.7 0 1.8 -0.9 2.5 -2 0.7 -1.1 1.8 -2 2.6 -2 0.7 0 1.6 -0.9 1.9 -2 0.3 -1.2 1.4 -2 2.6 -2 1.5 0 2.1 -0.6 2.1 -2 0 -1.2 0.7 -3.4 1.5 -5 0.8 -1.5 1.8 -5.3 2.1 -8.4 0.6 -4.7 1 -5.6 2.7 -5.6 1.8 0 1.9 0.5 1.4 4.5 -0.4 2.5 -0.9 5.6 -1.3 7 -0.6 2.4 -0.4 2.5 3.5 2.5 3.7 0 4.3 -0.4 6.7 -4 2.8 -4.2 4.2 -11.8 3 -16.4 -0.5 -1.9 -1.3 -2.6 -3.1 -2.6 -3.8 0 -7.7 1.9 -8.2 4 -0.3 1.1 -1.2 2 -1.9 2 -1.1 0 -1.4 -1.7 -1.4 -7 0 -5.6 0.3 -7 1.5 -7 0.8 0 1.5 0.7 1.5 1.5 0 1.8 0.2 1.8 5.1 0.4 8.2 -2.5 13.3 2.9 13.3 13.8 0 4.9 -0.7 7.5 -3 11.9 -4.1 8.1 -7 9.9 -15 9.7 -3.5 0 -6.4 0.2 -6.4 0.6 0 1.9 -7.8 9.5 -12.4 12.1 l-5.1 3 18.8 0 18.7 0 0 2.5 0 2.5 -51 0 -51 0 0 -2.5z"/>
  <path d="M174 634.5 l0 -2.5 -64.5 0 c-63.8 0 -64.5 0 -64.5 -2 0 -2 0.7 -2 66.5 -2 l66.5 0 0 4.5 c0 3.8 -0.3 4.5 -2 4.5 -1.5 0 -2 -0.7 -2 -2.5z"/>
  <path d="M194 617.5 c0 -0.8 0.8 -1.5 1.8 -1.5 1 0 1.9 0.7 1.9 1.5 0 0.8 -0.9 1.5 -1.9 1.5 -1 0 -1.8 -0.7 -1.8 -1.5z"/>
  <path d="M418.1 435.7 c-1.4 -8.1 -1.4 -7.7 0.9 -7.7 1.4 0 2 0.7 2 2.2 0 1.7 0.3 1.9 1.2 1 0.7 -0.7 2.6 -1.2 4.4 -1.2 2.3 0 3.3 -0.5 3.7 -1.9 0.3 -1.2 2.2 -2.4 5.3 -3.4 6.3 -2 7.9 -2.2 13.4 -1.3 l4.5 0.7 -0.3 6.5 c-0.4 6.2 -0.4 6.4 -3.1 6.4 -4.1 0 -11.5 -2.4 -15 -4.9 -3.7 -2.7 -5.1 -2.1 -11.4 4.9 l-4.5 5 -1.1 -6.3z"/>
  <path d="M486.4 437.3 c-2.2 -2.7 -5.2 -5.4 -6.6 -6.1 -2.2 -1.2 -2.9 -1.1 -6.3 1.2 -4.2 2.9 -9.5 4.6 -14.2 4.6 l-3.3 0 0 -6.4 0 -6.4 4.8 -0.8 c2.6 -0.4 5.6 -0.6 6.7 -0.5 3.7 0.4 11.5 3.2 11.5 4.2 0 0.5 1.1 0.9 2.5 0.9 1.5 0 2.5 0.6 2.5 1.4 0 0.7 1.1 1.6 2.5 1.8 2.3 0.5 2.5 0.2 2.5 -2.8 0 -2.8 0.4 -3.4 2.1 -3.4 1.9 0 2 0.4 1.4 5.4 -0.4 2.9 -1 6.7 -1.3 8.5 l-0.7 3.1 -4.1 -4.7z"/>
  <path d="M416.6 423.8 c-1.4 -5.4 -0.2 -12.8 2 -12.8 1.1 0 1.4 1.8 1.4 7.5 0 5.7 -0.3 7.5 -1.4 7.5 -0.7 0 -1.6 -1 -2 -2.2z"/>
  <path d="M489 410 c0 -1.1 -0.7 -3.8 -1.6 -5.9 -1.2 -3 -1.3 -4.7 -0.6 -6.8 l1 -2.8 2 4.5 c1.1 2.5 2.3 6.4 2.7 8.8 0.6 3.8 0.5 4.2 -1.4 4.2 -1.4 0 -2.1 -0.6 -2.1 -2z"/>
  <path d="M417.5 406.3 c1.2 -6.6 4.5 -10.2 4.5 -4.9 0 5.4 -1.2 8.6 -3.2 8.6 -1.8 0 -1.9 -0.4 -1.3 -3.7z"/>
  <path d="M402.2 238.8 c-2.5 -2.5 0 -6.4 3.2 -5.2 2.1 0.8 2.1 5 0 5.8 -2 0.8 -1.8 0.8 -3.2 -0.6z"/>
  <path d="M490.4 238.6 c-1.4 -1.5 0 -4.6 2 -4.6 2 0 3.7 2.5 3 4.4 -0.7 1.9 -3.4 2 -5 0.2z"/>
 </g>
 <g fill="#f1f1f1">
  <path d="M29 658.5 l0 -7.5 81.5 0 81.5 0 0 7.5 0 7.5 -81.5 0 -81.5 0 0 -7.5z"/>
  <path d="M712.2 661.6 c-6.1 -3.1 -12.8 -10 -15.7 -16.1 -3.1 -6.3 -4.5 -14.3 -4.5 -26.2 l0 -9.3 37 0 37 0 0 9.1 c0 19.1 -2.6 27.4 -11.4 36.1 -7.7 7.6 -11.3 8.8 -25.7 8.8 -10.9 -0.1 -12.9 -0.4 -16.7 -2.4z"/>
  <path d="M45 633.5 l0 -4.5 66.3 0 66.2 0 0.2 4.5 0.1 4.5 -66.4 0 -66.4 0 0 -4.5z"/>
  <path d="M35 617.5 c0 -1.3 9.7 -1.5 81 -1.5 71.3 0 81 0.2 81 1.5 0 1.3 -9.7 1.5 -81 1.5 -71.3 0 -81 -0.2 -81 -1.5z"/>
  <path d="M418 433.8 c-1.6 -10.9 -0.9 -28 1.4 -33.5 1.7 -4.1 3.6 -5.7 3.6 -3 0 2.7 6 13.6 9.4 17 4 4 9.7 7.3 16 9.1 l4.1 1.2 -5 0.8 c-5.7 0.9 -16.1 4.6 -20.1 7.2 -1.5 1 -3.9 3.5 -5.4 5.6 l-2.8 3.8 -1.2 -8.2z"/>
  <path d="M489 440.2 c0 -0.4 -1.8 -2.7 -4.1 -4.9 -4.5 -4.6 -14.2 -8.7 -23.1 -9.9 l-5.3 -0.7 4.5 -1.2 c6.6 -1.7 12 -4.8 16.1 -9.2 5.3 -5.7 6 -6.8 8.4 -13.4 l2.2 -6.1 2.2 5.3 c1.5 3.3 2.5 8.2 2.9 13.2 0.5 8.5 -1.5 27.7 -2.9 27.7 -0.5 0 -0.9 -0.4 -0.9 -0.8z"/>
  <path d="M492.4 238.5 c2.1 -1.6 3.2 -1.3 2.1 0.4 -0.3 0.6 -1.4 1.1 -2.3 1.1 -1.5 -0.1 -1.5 -0.2 0.2 -1.5z"/>
  <path d="M401.7 237.6 c-0.8 -1.9 0.8 -3.8 2.8 -3.4 2.8 0.5 2.8 2.3 0.1 3.6 -1.9 0.8 -2.5 0.8 -2.9 -0.2z"/>
 </g>
</svg>