<?xml version="1.0" encoding="utf-8"?>
<!DOCTYPE svg PUBLIC "-//W3C//DTD SVG 1.0//EN" "http://www.w3.org/TR/2001/REC-SVG-20010904/DTD/svg10.dtd">
<svg version="1.0" xmlns="http://www.w3.org/2000/svg" width="242px" height="443px" viewBox="0 0 242 443" preserveAspectRatio="xMidYMid meet">
 <g fill="#ffffff">
  <path d="M0 221.5 l0 -221.5 121 0 121 0 0 221.5 0 221.5 -121 0 -121 0 0 -221.5z m17 210.8 c4.6 -3 9.2 -7.8 11 -11.4 3.4 -6.5 4 -15.3 4 -56.1 l0 -39.8 -4.4 0 -4.5 0 -0.3 46.8 c-0.2 33.8 -0.7 47.5 -1.5 49.4 -0.7 1.6 -3.1 4.7 -5.3 7.1 -2.2 2.4 -3.7 4.7 -3.3 5 1 1 1.6 0.9 4.3 -1z m54.8 -20.8 c7.1 -2.2 7.3 -3.4 0.3 -2.8 -11.9 1.1 -16.1 -2.6 -16.1 -14.1 0 -5.5 0.4 -6.9 2.6 -9.5 3.3 -3.9 7.7 -5.1 19.7 -5.1 l9.7 0 0 10.7 c0 8.5 -0.3 11 -1.7 12.5 -1.5 1.7 -1.5 1.8 0.9 1.8 2.1 0 2.7 0.6 3.2 3.5 0.6 2.9 1.1 3.5 3.2 3.5 l2.5 0 -0.3 -25.3 -0.3 -25.4 -2.8 -4.2 c-3.1 -4.7 -8.3 -7.5 -15.7 -8.6 -5.1 -0.7 -17.3 1.5 -21.7 3.9 -2.7 1.6 -2.7 1.6 2.7 0.8 8.6 -1.1 20.2 -0.8 23.7 0.6 4.5 1.9 6.3 6.4 6.3 15.5 l0 7.4 -9.7 0.6 c-11.5 0.6 -17.6 2.5 -23.1 7.3 -5.5 4.7 -7.9 10.8 -6.2 16.1 1.6 4.9 4.5 8.1 9.5 10.4 4.9 2.3 6.7 2.3 13.3 0.4z m131 -1.4 l3.7 -1.9 -6.5 0.5 c-7.9 0.6 -13.5 -1.3 -15 -5.2 -1.3 -3.5 -1.3 -15.1 0.1 -17.7 2.1 -3.9 8.5 -5.8 20.2 -5.8 l10.7 0 0 10.9 c0 10.2 -0.2 11.1 -2.2 12.5 -2.2 1.6 -2.2 1.6 0.9 1.6 2.8 0 3.2 0.3 3.5 3.3 0.2 2.7 0.7 3.2 2.8 3.2 l2.5 0 0 -24.5 0 -24.5 -2.7 -4.7 c-4.8 -8 -14.7 -11.1 -27.3 -8.5 -7.7 1.7 -13 3.5 -12.3 4.2 0.3 0.3 4.1 0 8.5 -0.6 10.9 -1.6 18.6 -0.5 22.5 3 3 2.7 3.1 3 3.2 11.7 l0.1 8.9 -9 0.6 c-13.7 1 -19.4 3 -25.3 9 -6.5 6.6 -6.5 15.4 -0.1 21.8 5.3 5.4 13.8 6.2 21.7 2.2z m-56.1 -7.8 c4.9 -11.7 10.4 -28.9 13.7 -43 l2.4 -10.3 -3.8 0 c-4.3 0 -3.9 -0.8 -6 12 -1.5 8.8 -4.5 20.6 -8.2 32.3 l-3 9.7 -3.4 0 c-2.8 0 -3.5 -0.4 -4 -2.7 -1.8 -8.2 -3.9 -15.6 -9.2 -32.3 l-5.8 -18.5 -3.8 -0.3 c-2.9 -0.3 -3.7 0 -3.4 1 0.3 0.7 4.7 14.9 9.8 31.6 l9.3 30.2 5.7 0 5.6 0 4.1 -9.7z m2.3 -119.1 c3 -0.4 -9.3 -0.6 -27.5 -0.3 -45 0.5 -78.5 -2.3 -89.2 -7.5 -3.3 -1.6 -3.8 -2.4 -4.1 -5.7 l-0.3 -3.8 -5 2.7 c-7.6 4.2 -7.9 5.1 -2.8 7.3 4.9 2.2 25.6 5.4 44.9 7.1 6.9 0.6 14.3 1.2 16.5 1.4 6.1 0.6 61.3 -0.4 67.5 -1.2z m-16 -28.2 c8.8 -1.4 23.9 -5.1 24.5 -6 0.2 -0.4 -1.2 -1.5 -3.3 -2.4 -3.4 -1.5 -4.5 -1.5 -13.7 -0.1 -19.3 2.9 -55.3 1.5 -62.2 -2.5 -2.6 -1.5 -3.4 -1.6 -4.9 -0.6 -1.6 1.2 -1.4 1.6 2.3 4 10.7 7.1 37.6 10.6 57.3 7.6z m14.4 -35.4 c8.2 -1.4 15.1 -2.8 15.3 -3 0.2 -0.2 -0.3 -0.9 -1.2 -1.6 -1.2 -1 -3.9 -0.9 -13.7 0.6 -9.5 1.5 -18 1.9 -36.8 1.9 -31.1 0 -37.5 -0.7 -41.1 -4.6 -2.4 -2.6 -2.8 -2.7 -4.5 -1.4 -1.9 1.5 -1.9 1.5 0 3 11 8.4 49 10.8 82 5.1z m78.8 -26 c2.8 -5.5 2.6 -10 -0.8 -14.9 -1.6 -2.2 -4 -4.7 -5.4 -5.6 l-2.4 -1.6 2.4 3.3 c2.2 2.9 2.5 4.4 2.5 11.5 0 7.1 -0.4 8.9 -2.8 13.2 l-2.8 5 3.6 -3.5 c2 -1.9 4.6 -5.3 5.7 -7.4z m-101.2 -3.5 c4.1 -0.4 -4 -0.5 -18 -0.3 -26.1 0.5 -44.9 -0.7 -49.8 -3.1 -2 -0.9 -2.8 -2.2 -3.2 -5 l-0.5 -3.7 -6.5 3.1 c-4.9 2.3 -6.1 3.2 -5 3.9 2.3 1.4 14.6 3.9 24 4.9 10.1 1 48.4 1.1 59 0.2z m25.6 -35.7 c3.4 -6.9 3 -8.4 -5.1 -20.4 -7.6 -11.5 -10 -18 -9.2 -25.4 0.6 -6.4 2.5 -10.4 8.1 -17.1 l4.1 -5 -3.5 2.5 c-10.4 7.3 -19 20.1 -19 28.2 0 5.9 3.7 14.2 10.1 22.9 7.1 9.5 7.9 11.4 7.9 18.1 0 5.1 0 5.1 2 3.3 1.1 -1 3.2 -4.2 4.6 -7.1z m-54.2 -23.9 c-1 -3.4 -1.4 -7.7 -1.2 -13.2 0.7 -14.7 7 -23.7 29.8 -42.8 10.7 -9.1 19.6 -19.2 24.6 -28.1 4.6 -8.3 4.3 -9.3 -0.6 -1.8 -5.2 7.9 -13.6 16.3 -28.5 28.2 -20.1 16 -28.6 24.6 -32.5 32.8 -2.6 5.6 -2.5 8.6 0.3 15.4 2.3 5.5 8.5 15.5 9.3 14.8 0.2 -0.2 -0.4 -2.6 -1.2 -5.3z m59.5 -100 c0 -1.1 -0.7 0 -1.5 2.5 -1.7 5.6 -1.7 6.4 0.1 2.5 0.8 -1.6 1.4 -3.9 1.4 -5z"/>
 </g>
 <g fill="#5382a1">
  <path d="M8.6 435.4 l-2.9 -3.5 5 -4.4 c9.2 -8 8.8 -5.5 9.1 -58.7 l0.3 -46.8 7.5 0 7.4 0 0 42.8 c0 43.8 -0.6 52.6 -4 59.1 -2.9 5.7 -12 13.4 -17.1 14.5 -1.9 0.4 -3 -0.3 -5.3 -3z"/>
  <path d="M55.5 414.1 c-7 -3.2 -10.5 -9.1 -10.5 -17.5 0.1 -8.7 6.5 -16.8 15.9 -20.2 2.5 -0.9 9 -1.8 14.4 -2.1 l9.7 -0.6 0 -4.4 c0 -6.1 -2.4 -10.8 -6.3 -12.5 -4.2 -1.7 -15 -1.4 -22.2 0.6 -3.1 1 -5.8 1.6 -6 1.4 -0.1 -0.2 -0.6 -2.1 -0.9 -4.4 l-0.7 -4.1 7.3 -2.4 c5.8 -1.9 9.4 -2.4 17.3 -2.4 12.5 0 17.9 2.1 22.2 8.6 l2.8 4.2 0.3 28.4 0.3 28.3 -5.5 0 c-5.5 0 -5.5 0 -6.2 -3.5 -0.3 -1.9 -0.8 -3.5 -1.1 -3.5 -0.2 0 -2 1.2 -3.8 2.6 -7 5.3 -19.5 7 -27 3.5z m22.9 -10.7 c6.1 -3.2 6.6 -4 6.6 -12.6 l0 -7.8 -6.7 0 c-9 0 -13.6 1.4 -16.7 5.1 -4.5 5.3 -2.9 13.9 2.9 16.6 3.5 1.5 9.2 1 13.9 -1.3z"/>
  <path d="M184.9 415 c-8.1 -2.4 -12.4 -9.5 -11.7 -19.4 0.8 -13.4 10.1 -20.1 29.8 -21.5 l9.5 -0.6 -0.2 -5.9 c-0.2 -4.8 -0.7 -6.5 -2.6 -8.4 -4.5 -4.4 -13.2 -5 -25.6 -1.6 -2.9 0.9 -5.5 1.3 -5.8 1 -0.3 -0.2 -0.7 -2.2 -1 -4.5 l-0.5 -4 7.3 -2.3 c5.6 -1.7 9.8 -2.3 17.4 -2.3 12.7 0 18.1 2.2 22.3 9.3 l2.7 4.7 0 27.5 0 27.5 -5.5 0 c-5.5 0 -5.5 0 -5.8 -3.2 -0.2 -1.8 -0.5 -3.3 -0.7 -3.3 -0.2 0 -2.6 1.4 -5.2 3 -2.6 1.7 -6.3 3.5 -8.3 4 -4.1 1.2 -12.4 1.2 -16.1 0z m23.1 -12.8 l4.5 -2.8 0.3 -8.2 0.3 -8.2 -7.8 0 c-8.6 0 -15.3 2.3 -17.2 5.8 -1.4 2.6 -1.4 8.2 -0.1 11.7 2.2 5.9 11.8 6.7 20 1.7z"/>
  <path d="M119 384.8 c-5.1 -16.7 -9.9 -32.2 -10.6 -34.6 l-1.3 -4.3 7.6 0.3 7.7 0.3 5.8 18.5 c3.2 10.2 6.7 22 7.8 26.4 1 4.3 2.1 8 2.3 8.3 1.1 1 9.6 -29.3 11.7 -41.7 2.2 -13.3 1.2 -12 9.1 -12 6.8 0 6.9 0 6.9 2.7 0 3.7 -6.3 29 -10 39.8 -1.7 5 -4.7 12.9 -6.7 17.8 l-3.7 8.7 -8.7 0 -8.6 0 -9.3 -30.2z"/>
  <path d="M230 350.2 c0 -1 -0.5 -2.3 -1.2 -3 -0.9 -0.9 -0.7 -1.2 0.8 -1.2 1.7 0 2 0.5 1.6 3 -0.5 3.3 -1.2 4 -1.2 1.2z"/>
  <path d="M233.1 349.3 c-0.1 -3.5 1.3 -4.4 2.4 -1.5 0.6 1.6 0.7 1.6 1.6 -0.1 0.6 -0.9 1.4 -1.5 2 -1.2 1.2 0.8 1.2 5.5 -0.1 5.5 -0.5 0 -1 -0.6 -1 -1.2 0 -0.9 -0.3 -0.8 -1 0.2 -0.7 1.2 -1 1.1 -1.6 -0.5 -0.7 -1.8 -0.8 -1.8 -1.5 0.1 -0.6 1.5 -0.8 1.2 -0.8 -1.3z"/>
  <path d="M84.5 300.9 c-13.2 -1.3 -32.5 -5.3 -31.3 -6.5 0.2 -0.2 6.2 0.3 13.3 1.1 60.8 6.8 144 -2.6 162.6 -18.2 l2.9 -2.5 -1.1 2.8 c-3.9 10.3 -21.7 17.4 -55.4 22.1 -13 1.8 -76.8 2.7 -91 1.2z"/>
  <path d="M71 286.9 c-13.9 -1.1 -40.7 -4.4 -47.6 -5.9 -11.1 -2.4 -14.5 -7.5 -8.1 -12.3 10.1 -7.7 32.1 -14 40.5 -11.8 2.4 0.7 2 0.9 -3.3 1.8 -7.3 1.4 -16.6 4.8 -19.6 7.2 -10.7 8.6 29.9 14.9 89.1 13.8 59.8 -1.2 95.3 -7.9 92.7 -17.7 -0.7 -2.6 0.5 -2.6 2.9 0.1 1.7 1.8 1.7 2.3 0.4 4.7 -3.7 6.7 -27.2 14.2 -57 18.2 -17.9 2.4 -70 3.5 -90 1.9z"/>
  <path d="M93.5 257.6 c-10 -2 -16.1 -4.1 -20.5 -7 -6.6 -4.4 -5.9 -9 2.1 -13 5.2 -2.5 7.4 -2.7 5.1 -0.4 -1.8 1.8 -1.5 2.6 1.6 4.2 7.5 3.9 44.9 4.6 62.2 1.2 l7.5 -1.5 8.2 3.7 c4.5 2 8.2 4 8.3 4.3 0 0.9 -14.7 5.6 -23.5 7.5 -9.8 2.2 -41.7 2.8 -51 1z"/>
  <path d="M84.9 224.6 c-9.7 -1.5 -16.9 -3.7 -21.7 -6.6 -2.8 -1.7 -3.3 -2.5 -3 -5.3 0.3 -2.7 1.2 -3.7 5.8 -6.4 6.6 -4 8.7 -4.3 6.5 -0.9 -1.4 2.1 -1.4 2.5 0.3 4.6 2.5 3.1 7.8 3.9 29.7 4.6 19.3 0.7 30.5 -0.1 49.6 -3.2 l9.5 -1.6 4.6 3.1 c2.5 1.7 5.1 3.1 5.7 3.1 0.6 0 1.1 0.4 1.1 0.9 0 1.1 -9.9 3.6 -25.1 6.2 -15.7 2.7 -50 3.5 -63 1.5z"/>
  <path d="M185 223.6 c0 -0.2 3.7 -2.6 8.3 -5.3 10.7 -6.6 19.5 -14.8 23.1 -21.3 8 -14.7 -1.3 -29.1 -17.8 -27.7 -5.1 0.5 -5.7 0.3 -4.4 -0.9 0.8 -0.8 4.2 -2 7.5 -2.6 16.8 -3.1 32.2 9 29.9 23.5 -1.8 11.1 -13.4 22.3 -30.2 29.1 -6 2.4 -16.4 5.7 -16.4 5.2z"/>
  <path d="M63 192.9 c-25.7 -2.7 -33.4 -7.7 -21.2 -13.8 8.4 -4.2 19.6 -7.8 29.6 -9.6 15.2 -2.6 16.2 -1.8 3.1 2.6 -13.5 4.4 -18.8 7.7 -16.6 10.2 2.7 3.3 11.6 4.2 41.1 4.1 28.9 -0.1 47.3 -1.4 72.8 -5.2 6.7 -1 11.9 -1.5 11.5 -1.1 -2.6 2.4 -13.9 7 -20.3 8.3 -18.7 3.7 -31.6 4.8 -61.5 5.1 -16.5 0.2 -33.8 -0.1 -38.5 -0.6z"/>
 </g>
 <g fill="#f8981d">
  <path d="M135.3 175 c5.2 -7.2 7 -15.4 4.8 -21.4 -0.6 -1.3 -3.7 -6.1 -7 -10.5 -7.4 -10 -10.1 -16.9 -10.1 -25.9 0 -15.6 11.5 -28.9 35.6 -41 6.7 -3.3 27.1 -11.2 29.2 -11.2 0.3 0 -4.2 3 -9.9 6.6 -25.6 16.3 -35.2 25.2 -38 35.7 -1.5 5.7 0.9 12 8.9 24 7.8 11.6 8.9 17 5.4 25 -2.4 5.4 -9.8 13.6 -16.2 18 -4.2 2.9 -4.4 3 -2.7 0.7z"/>
  <path d="M109.3 155.2 c-18.8 -18.6 -26.2 -30.6 -26.3 -42.5 0 -12.1 7.2 -21.1 34.5 -42.9 21.2 -16.9 29.9 -27.1 33.7 -39.2 2 -6.2 2.6 -17.6 1.3 -23.8 -0.7 -3.3 -0.7 -3.3 1 -1.1 6.8 9.5 8 23.7 2.8 35.9 -5.9 14 -14.3 24.2 -32.5 39.6 -13 10.9 -18.8 17.5 -22.5 25.5 -5.7 12.5 -3.7 22.5 8.3 40.4 8.3 12.5 12.8 19.9 12.1 19.9 -0.2 0 -5.8 -5.3 -12.4 -11.8z"/>
 </g>
</svg>