<?xml version="1.0" encoding="utf-8"?>
<!DOCTYPE svg PUBLIC "-//W3C//DTD SVG 1.0//EN" "http://www.w3.org/TR/2001/REC-SVG-20010904/DTD/svg10.dtd">
<svg version="1.0" xmlns="http://www.w3.org/2000/svg" width="512px" height="512px" viewBox="0 0 512 512" preserveAspectRatio="xMidYMid meet">
 <g fill="#373737">
  <path d="M192.5 511.1 c-6.1 -1.1 -11.2 -3.9 -15.1 -8.4 -5.6 -6.7 -6.4 -11 -6.4 -36.8 l0 -22.6 -12.2 -0.7 c-74 -4.1 -131.1 -19.5 -150 -40.4 -2.1 -2.3 -4.7 -6 -6 -8.4 l-2.3 -4.3 -0.3 -163.9 c-0.2 -109.1 0.1 -165.8 0.8 -169.5 2 -11.1 11.3 -20.7 28 -29.1 28.6 -14.4 79.9 -24.1 136.5 -25.8 104.7 -3.3 190.7 16.5 206.5 47.4 l2.5 4.9 0.3 110.3 0.2 110.2 18.6 0 c10.2 0 19.3 0.4 20.3 1 1 0.5 2.4 2.3 3.1 4 0.7 1.6 1.9 3 2.6 3 2.4 0 1.7 5.8 -1.1 8.5 l-2.4 2.5 -109.1 0 c-112.6 0 -111.7 0 -114.7 3.9 -1 1.2 -1.2 23.3 -1.3 95.9 l0 94.3 2.6 2.4 2.7 2.5 144.9 0 145 0 2.9 -2.9 2.9 -2.9 0 -93.7 0 -93.7 -2.9 -2.9 -2.9 -2.9 -24.5 0 -24.5 0 -2.6 -3.1 c-3.2 -3.8 -3.5 -7.9 -0.6 -7.9 1.3 0 2 -0.7 2 -1.8 0 -1 1 -2.8 2.3 -4 2.3 -2.1 3 -2.2 28 -2.2 27.7 0 29.2 0.2 36.2 5.5 1.9 1.5 4.7 5.2 6.2 8.3 l2.8 5.7 0 98.5 c0 78.3 -0.3 99.3 -1.3 102.2 -2.3 6.5 -6.7 11.4 -12.9 14.4 l-5.8 2.9 -147.5 0.1 c-81.1 0.1 -149.3 -0.1 -151.5 -0.5z m-24.5 -127.4 l0 -39.4 -18.7 -1.1 c-54.1 -3.4 -98.3 -12.5 -124.1 -25.6 l-5.2 -2.6 0 34.4 0 34.5 3.3 3.7 c14.2 16.3 62.7 29.8 125.2 34.7 2.2 0.2 7.5 0.4 11.8 0.5 l7.7 0.2 0 -39.3z m0 -78.5 c0 -15.1 0.1 -16.1 2.6 -21.1 3.1 -6.1 9.6 -11.4 16.1 -13 2.8 -0.7 31.8 -1.1 86.2 -1.1 l82.1 0 0 -32.8 0 -32.8 -6.7 3.3 c-20.9 10.2 -56.3 18.4 -98.8 23 -24.5 2.6 -99.5 2.6 -123.5 0 -43.6 -4.8 -74.3 -11.8 -96.8 -22.3 l-9.3 -4.3 0.3 39.4 0.3 39.5 3.5 3.4 c16.9 16.8 71.3 30.7 132.5 33.9 3.3 0.2 7.2 0.4 8.8 0.5 l2.7 0.2 0 -15.8z m76 -97.6 c52.7 -5.9 93.8 -18.1 106.5 -31.7 l4.5 -4.8 0 -38.9 0 -38.8 -6.7 3.2 c-22.1 10.5 -56.2 18.5 -97.8 23 -20.3 2.1 -81.7 3 -105.2 1.5 -50.7 -3.4 -94.3 -12.6 -119.6 -25.3 l-5.8 -2.9 0.3 39.7 0.3 39.6 4.7 4.2 c17.5 15.9 63.5 27.9 126.3 33 12.8 1 78.6 -0.3 92.5 -1.8z m-0.5 -111 c36.2 -3.9 64.6 -10.1 84.9 -18.6 12.7 -5.3 17.8 -8.4 22.5 -13.6 l4.2 -4.5 -2 -2.8 c-7.9 -11 -38.2 -22.6 -77.2 -29.5 -76 -13.5 -172.5 -7.8 -227.3 13.3 -14.7 5.7 -27.6 14.6 -27.6 19.1 0 2.6 7.7 9.1 15.8 13.3 23.8 12.4 61.2 20.7 111.2 24.7 16.7 1.3 78.2 0.4 95.5 -1.4z"/>
  <path d="M242.4 453.6 c-14.1 -4.6 -23.4 -18.1 -23.4 -34.2 0 -6.6 0.3 -7.8 2.5 -9.9 2 -2.1 3.4 -2.5 8.5 -2.5 3.4 0 6.9 0.4 7.9 1 2 1 3.6 4.6 4.5 10 1 5.3 4.8 10.3 9.6 12.5 l4.2 1.9 4.7 -2.4 c3.4 -1.9 5.2 -3.7 6.9 -7.1 2.1 -4.3 2.2 -5 0.9 -8.1 -0.8 -1.8 -3 -4.8 -5 -6.5 -3.6 -3.1 -5.1 -3.6 -15.1 -4.8 -11.1 -1.2 -21.5 -8.8 -26.5 -19.4 -2.4 -5.1 -2.6 -6.7 -2.6 -17.6 0 -11.8 0.1 -12.1 3.4 -18.3 3.9 -7.1 7.8 -11 15.4 -15 4.8 -2.5 6 -2.7 17.2 -2.7 10.8 0 12.5 0.3 17.5 2.6 7.9 3.7 12.5 8.1 16.2 15.6 2.7 5.5 3.3 8 3.6 15.2 0.4 7.7 0.2 8.9 -1.8 11.4 -2 2.5 -2.7 2.7 -9 2.7 -8.6 0 -10.6 -1.5 -12 -8.9 -1.3 -7.2 -4.1 -11.3 -9.5 -14.2 l-4.5 -2.4 -4.7 2.5 c-3.5 1.9 -5.3 3.7 -7.1 7.2 l-2.4 4.7 2.1 4.3 c3 6.2 7.7 9 16.9 10 13.8 1.5 23.1 7.8 28.8 19.4 2.7 5.5 2.9 6.7 2.9 17.9 0 11.8 -0.1 12.1 -3.4 18.3 -3.8 7 -8.9 11.9 -16 15.3 -3.7 1.9 -6.6 2.3 -15.6 2.6 -7.2 0.2 -12.4 -0.2 -15.1 -1.1z"/>
  <path d="M329 454.1 c-7.6 -2.3 -14.9 -8 -19.6 -15.1 -5 -7.5 -5.6 -13.2 -5.2 -49.3 0.5 -39.2 0.5 -39.6 10.2 -49.3 8.6 -8.6 14.5 -10.7 28.6 -10.2 8.9 0.3 11.4 0.8 16.1 3.1 6.3 3 12.5 9.2 16.1 15.9 2.3 4.3 2.3 4.4 2.2 42.3 0 20.9 -0.1 39.4 -0.2 41 -0.1 1.7 0.1 6.2 0.4 10.2 0.5 6.8 0.4 7.4 -2 9.8 -2.2 2.1 -3.4 2.5 -8.9 2.5 -3.4 0 -6.8 -0.5 -7.4 -1.1 -0.9 -0.9 -2.3 -0.9 -5.7 0 -5 1.2 -20.7 1.4 -24.6 0.2z m10 -32.3 c1.3 -4.6 5 -6.8 11.5 -6.8 l4.5 0 0 -25.3 0 -25.2 -2.5 -3.8 c-3.6 -5.2 -9.6 -8.1 -13.9 -6.7 -4.2 1.4 -9.4 6.7 -10.6 11.1 -1.4 4.9 -1.3 50.2 0.2 55.1 0.7 2.3 2.8 5.4 5.2 7.6 l4.1 3.7 0.3 -3 c0.1 -1.7 0.7 -4.7 1.2 -6.7z"/>
  <path d="M392.2 452.7 l-2.2 -2.3 0 -58.1 0 -58.2 2.6 -2 c4 -3.1 13.3 -3 17.1 0.3 l2.8 2.4 0.3 48.6 0.3 48.5 22.9 0.3 c21.9 0.3 23 0.4 25.1 2.4 2.3 2.3 3.6 9.5 2.5 13.8 -0.3 1.4 -1.6 3.5 -2.8 4.6 -2.1 1.9 -3.4 2 -34.3 2 l-32.2 0 -2.1 -2.3z"/>
 </g>
 <g fill="#aac7c8">
  <path d="M190.6 492.5 l-2.6 -2.4 0 -97.3 c0.1 -74.9 0.3 -97.7 1.3 -98.9 3 -3.9 2.1 -3.9 114.7 -3.9 l109.1 0 2.4 -2.5 c1.4 -1.3 2.5 -3.1 2.5 -4 0 -1.2 1.5 -1.5 8.5 -1.5 4.7 0 8.5 0.4 8.5 0.9 0 0.5 1.2 2.3 2.6 4 l2.6 3.1 24.5 0 24.5 0 2.9 2.9 2.9 2.9 0 96.7 0 96.7 -2.9 2.9 -2.9 2.9 -148 0 -147.9 0 -2.7 -2.5z m79.5 -43.4 c7 -3.3 12.2 -8.3 16 -15.3 3.2 -5.8 3.4 -6.9 3.4 -15.3 0 -7.9 -0.4 -9.7 -2.9 -14.9 -5.7 -11.6 -15 -17.9 -28.8 -19.4 -9.1 -1 -13.9 -3.7 -16.8 -9.8 -2.6 -5.3 -2.5 -10.1 0.3 -15.5 4.4 -8.3 14.6 -11.3 22.9 -6.7 4.8 2.8 7.5 6.9 8.8 13.9 1.2 6.5 3.7 8.9 9 8.9 8.7 0 10.5 -10.5 4.1 -23.5 -3.6 -7.3 -8.2 -11.7 -16.1 -15.4 -4.7 -2.2 -6.9 -2.6 -14.5 -2.6 -7.8 0 -9.7 0.4 -14.2 2.8 -7.5 3.9 -11.5 7.8 -15.4 14.9 -3.2 5.8 -3.4 7 -3.4 15.3 0 7.6 0.4 9.9 2.6 14.6 5.4 11.4 15.5 18.3 29.2 19.8 8.5 1 10.3 1.8 14.5 6.5 7 8 4.6 20.8 -4.7 25.6 -10.5 5.3 -22.7 -0.7 -24.7 -12.1 -1.4 -8.4 -3.6 -10.9 -9.4 -10.9 -7.5 0 -10.1 8.3 -6 19.4 3.9 10.3 11.7 18.1 21.4 21.2 6.1 2.1 19 1.3 24.7 -1.5z m83.1 0.8 l6.1 -2 2.1 2 c7.4 7 18 -4.1 11.6 -12.1 -1.9 -2.5 -1.9 -2.5 0.1 -7.8 1.9 -5 2 -7.3 1.7 -39.4 -0.3 -33.5 -0.3 -34.2 -2.6 -38.4 -6.2 -11.6 -16.4 -18.2 -29.2 -19 -10.7 -0.6 -17.5 2.1 -25.6 10.2 -9.5 9.6 -9.7 10.4 -10.2 46.3 -0.4 32.9 0.3 38.9 5.2 46.3 4.7 7.1 12 12.8 19.6 15.1 4.9 1.5 15 0.9 21.2 -1.2z m104.6 0.1 c2.9 -2.7 3.7 -6.3 2 -9.6 -2.3 -5 -4.4 -5.4 -28 -5.4 l-21.7 0 -0.3 -48.6 -0.3 -48.6 -2.8 -2.4 c-3.4 -2.9 -7.6 -3.1 -11.1 -0.3 l-2.6 2 0 55.2 0 55.1 2.2 2.3 2.1 2.3 29.2 0 c27.9 0 29.2 -0.1 31.3 -2z"/>
  <path d="M333.5 433.1 c-4.2 -2.5 -7 -6 -8.4 -10 -1.4 -4.3 -1.5 -56.1 -0.1 -61.1 1.1 -4.1 6.1 -9.4 10.3 -10.9 7.1 -2.7 15.8 0.1 20.2 6.6 l2.5 3.8 0 30.1 0 30.2 -3.8 -2.1 c-3.5 -1.9 -4.2 -1.9 -7.2 -0.7 -5.4 2.2 -7.4 10.8 -3.1 13.5 2.3 1.4 0.9 2.5 -3.1 2.5 -2.4 0 -5.6 -0.8 -7.3 -1.9z"/>
 </g>
 <g fill="#5663af">
  <path d="M153.5 323.3 c-61.2 -3.2 -115.6 -17.1 -132.5 -33.9 l-3.5 -3.4 -0.3 -44.6 -0.3 -44.6 3.1 2.2 c4.4 3.1 20.3 10.3 29.5 13.3 20.4 6.7 47.1 11.8 79.5 15.4 23.9 2.6 93.2 2.6 117.5 0 48.1 -5.2 87.5 -15.2 106.3 -27.1 2.3 -1.4 4.4 -2.6 4.7 -2.6 0.3 0 0.5 16.9 0.5 37.5 l0 37.5 -82.1 0 c-54.4 0 -83.4 0.4 -86.2 1.1 -6.5 1.6 -13 6.9 -16.1 13 -2.5 5 -2.6 6 -2.6 21.1 l0 15.8 -5.7 -0.2 c-3.2 -0.1 -8.5 -0.3 -11.8 -0.5z"/>
  <path d="M145 101 c-59.6 -4.8 -104.8 -16.6 -122.5 -32.2 -9.5 -8.4 -6.4 -15.9 10.5 -25.1 39.5 -21.7 133 -32 214.5 -23.7 59.2 6.1 110.5 24.4 110.5 39.5 0 11.1 -25 24 -62.8 32.5 -12.9 2.8 -31.1 5.7 -48.7 7.6 -17.2 1.8 -84.3 2.8 -101.5 1.4z"/>
 </g>
 <g fill="#3d4b89">
  <path d="M145.5 425.3 c-62.5 -4.9 -111 -18.4 -125.2 -34.7 l-3.3 -3.7 0 -38.9 c0 -21.5 0.2 -39 0.4 -39 0.3 0 3.7 1.8 7.8 3.9 26.5 14.3 70.5 23.7 127.1 27.3 l18.7 1.1 0 42.4 0 42.3 -10.7 -0.2 c-6 -0.1 -12.6 -0.3 -14.8 -0.5z"/>
  <path d="M148.5 212.4 c-62.6 -5 -108.8 -17.1 -126.3 -33 l-4.7 -4.2 -0.3 -44.1 c-0.1 -24.2 -0.1 -44.1 0.2 -44.1 0.2 0 4.1 2 8.7 4.4 26.3 13.9 69.1 23.2 122.3 26.7 22.9 1.5 78.7 0.6 99.1 -1.5 46.5 -5 86.8 -15.3 105.4 -27 2.2 -1.4 4.3 -2.6 4.6 -2.6 0.3 0 0.5 19.6 0.5 43.5 l0 43.6 -4.5 4.8 c-12.7 13.6 -53.7 25.8 -106.5 31.7 -13.8 1.5 -85.2 2.8 -98.5 1.8z"/>
  <path d="M217 101 c0 -0.5 0.7 -1 1.5 -1 0.8 0 1.5 0.5 1.5 1 0 0.6 -0.7 1 -1.5 1 -0.8 0 -1.5 -0.4 -1.5 -1z"/>
  <path d="M261 97 c0 -0.5 0.7 -1 1.5 -1 0.8 0 1.5 0.5 1.5 1 0 0.6 -0.7 1 -1.5 1 -0.8 0 -1.5 -0.4 -1.5 -1z"/>
 </g>
</svg>